%TF.GenerationSoftware,KiCad,Pcbnew,(5.1.9)-1*%
%TF.CreationDate,2021-11-15T23:12:41-03:00*%
%TF.ProjectId,RepeaterBoard,52657065-6174-4657-9242-6f6172642e6b,rev?*%
%TF.SameCoordinates,Original*%
%TF.FileFunction,Soldermask,Bot*%
%TF.FilePolarity,Negative*%
%FSLAX46Y46*%
G04 Gerber Fmt 4.6, Leading zero omitted, Abs format (unit mm)*
G04 Created by KiCad (PCBNEW (5.1.9)-1) date 2021-11-15 23:12:41*
%MOMM*%
%LPD*%
G01*
G04 APERTURE LIST*
%ADD10C,2.600000*%
%ADD11R,2.600000X2.600000*%
%ADD12R,1.700000X1.700000*%
%ADD13O,1.700000X1.700000*%
%ADD14C,2.000000*%
%ADD15C,0.800000*%
%ADD16C,6.400000*%
G04 APERTURE END LIST*
D10*
%TO.C,J1*%
X77750000Y-39500000D03*
D11*
X77750000Y-44500000D03*
%TD*%
D12*
%TO.C,J2*%
X58800000Y-34500000D03*
D13*
X56260000Y-34500000D03*
X53720000Y-34500000D03*
X51180000Y-34500000D03*
%TD*%
D12*
%TO.C,J3*%
X50000000Y-64750000D03*
D13*
X50000000Y-67290000D03*
X52540000Y-64750000D03*
X52540000Y-67290000D03*
X55080000Y-64750000D03*
X55080000Y-67290000D03*
X57620000Y-64750000D03*
X57620000Y-67290000D03*
X60160000Y-64750000D03*
X60160000Y-67290000D03*
X62700000Y-64750000D03*
X62700000Y-67290000D03*
X65240000Y-64750000D03*
X65240000Y-67290000D03*
X67780000Y-64750000D03*
X67780000Y-67290000D03*
%TD*%
D14*
%TO.C,SW1*%
X46600000Y-34500000D03*
X42100000Y-34500000D03*
X46600000Y-28000000D03*
X42100000Y-28000000D03*
%TD*%
D15*
%TO.C,H1*%
X38697056Y-28502944D03*
X37000000Y-27800000D03*
X35302944Y-28502944D03*
X34600000Y-30200000D03*
X35302944Y-31897056D03*
X37000000Y-32600000D03*
X38697056Y-31897056D03*
X39400000Y-30200000D03*
D16*
X37000000Y-30200000D03*
%TD*%
%TO.C,H2*%
X78800000Y-30000000D03*
D15*
X81200000Y-30000000D03*
X80497056Y-31697056D03*
X78800000Y-32400000D03*
X77102944Y-31697056D03*
X76400000Y-30000000D03*
X77102944Y-28302944D03*
X78800000Y-27600000D03*
X80497056Y-28302944D03*
%TD*%
%TO.C,H3*%
X38897056Y-70102944D03*
X37200000Y-69400000D03*
X35502944Y-70102944D03*
X34800000Y-71800000D03*
X35502944Y-73497056D03*
X37200000Y-74200000D03*
X38897056Y-73497056D03*
X39600000Y-71800000D03*
D16*
X37200000Y-71800000D03*
%TD*%
%TO.C,H4*%
X79000000Y-71700000D03*
D15*
X81400000Y-71700000D03*
X80697056Y-73397056D03*
X79000000Y-74100000D03*
X77302944Y-73397056D03*
X76600000Y-71700000D03*
X77302944Y-70002944D03*
X79000000Y-69300000D03*
X80697056Y-70002944D03*
%TD*%
M02*
