%TF.GenerationSoftware,KiCad,Pcbnew,(5.1.9)-1*%
%TF.CreationDate,2021-11-15T23:12:41-03:00*%
%TF.ProjectId,RepeaterBoard,52657065-6174-4657-9242-6f6172642e6b,rev?*%
%TF.SameCoordinates,Original*%
%TF.FileFunction,Copper,L4,Bot*%
%TF.FilePolarity,Positive*%
%FSLAX46Y46*%
G04 Gerber Fmt 4.6, Leading zero omitted, Abs format (unit mm)*
G04 Created by KiCad (PCBNEW (5.1.9)-1) date 2021-11-15 23:12:41*
%MOMM*%
%LPD*%
G01*
G04 APERTURE LIST*
%TA.AperFunction,ComponentPad*%
%ADD10C,2.600000*%
%TD*%
%TA.AperFunction,ComponentPad*%
%ADD11R,2.600000X2.600000*%
%TD*%
%TA.AperFunction,ComponentPad*%
%ADD12R,1.700000X1.700000*%
%TD*%
%TA.AperFunction,ComponentPad*%
%ADD13O,1.700000X1.700000*%
%TD*%
%TA.AperFunction,ComponentPad*%
%ADD14C,2.000000*%
%TD*%
%TA.AperFunction,ComponentPad*%
%ADD15C,0.800000*%
%TD*%
%TA.AperFunction,ComponentPad*%
%ADD16C,6.400000*%
%TD*%
%TA.AperFunction,ViaPad*%
%ADD17C,0.800000*%
%TD*%
%TA.AperFunction,Conductor*%
%ADD18C,0.300000*%
%TD*%
%TA.AperFunction,Conductor*%
%ADD19C,0.200000*%
%TD*%
%TA.AperFunction,Conductor*%
%ADD20C,0.254000*%
%TD*%
%TA.AperFunction,Conductor*%
%ADD21C,0.100000*%
%TD*%
G04 APERTURE END LIST*
D10*
%TO.P,J1,2*%
%TO.N,GND*%
X77750000Y-39500000D03*
D11*
%TO.P,J1,1*%
%TO.N,RX_RS232*%
X77750000Y-44500000D03*
%TD*%
D12*
%TO.P,J2,1*%
%TO.N,+3V3*%
X58800000Y-34500000D03*
D13*
%TO.P,J2,2*%
%TO.N,I2C1_SCL*%
X56260000Y-34500000D03*
%TO.P,J2,3*%
%TO.N,I2C1_SDA*%
X53720000Y-34500000D03*
%TO.P,J2,4*%
%TO.N,GND*%
X51180000Y-34500000D03*
%TD*%
D12*
%TO.P,J3,1*%
%TO.N,+5V*%
X50000000Y-64750000D03*
D13*
%TO.P,J3,2*%
%TO.N,ANODE_C_5V*%
X50000000Y-67290000D03*
%TO.P,J3,3*%
%TO.N,DIGIT_1*%
X52540000Y-64750000D03*
%TO.P,J3,4*%
%TO.N,ANODE_B_5V*%
X52540000Y-67290000D03*
%TO.P,J3,5*%
%TO.N,DIGIT_2*%
X55080000Y-64750000D03*
%TO.P,J3,6*%
%TO.N,ANODE_A_5V*%
X55080000Y-67290000D03*
%TO.P,J3,7*%
%TO.N,DIGIT_3*%
X57620000Y-64750000D03*
%TO.P,J3,8*%
%TO.N,ANODE_D_5V*%
X57620000Y-67290000D03*
%TO.P,J3,9*%
%TO.N,DIGIT_4*%
X60160000Y-64750000D03*
%TO.P,J3,10*%
%TO.N,ANODE_E_5V*%
X60160000Y-67290000D03*
%TO.P,J3,11*%
%TO.N,DIGIT_5*%
X62700000Y-64750000D03*
%TO.P,J3,12*%
%TO.N,ANODE_F_5V*%
X62700000Y-67290000D03*
%TO.P,J3,13*%
%TO.N,DIGIT_6*%
X65240000Y-64750000D03*
%TO.P,J3,14*%
%TO.N,ANODE_G_5V*%
X65240000Y-67290000D03*
%TO.P,J3,15*%
%TO.N,GND*%
X67780000Y-64750000D03*
%TO.P,J3,16*%
%TO.N,ANODE_DP*%
X67780000Y-67290000D03*
%TD*%
D14*
%TO.P,SW1,2*%
%TO.N,GND*%
X46600000Y-34500000D03*
%TO.P,SW1,1*%
%TO.N,NRST*%
X42100000Y-34500000D03*
%TO.P,SW1,2*%
%TO.N,GND*%
X46600000Y-28000000D03*
%TO.P,SW1,1*%
%TO.N,NRST*%
X42100000Y-28000000D03*
%TD*%
D15*
%TO.P,H1,1*%
%TO.N,GND*%
X38697056Y-28502944D03*
X37000000Y-27800000D03*
X35302944Y-28502944D03*
X34600000Y-30200000D03*
X35302944Y-31897056D03*
X37000000Y-32600000D03*
X38697056Y-31897056D03*
X39400000Y-30200000D03*
D16*
X37000000Y-30200000D03*
%TD*%
%TO.P,H2,1*%
%TO.N,GND*%
X78800000Y-30000000D03*
D15*
X81200000Y-30000000D03*
X80497056Y-31697056D03*
X78800000Y-32400000D03*
X77102944Y-31697056D03*
X76400000Y-30000000D03*
X77102944Y-28302944D03*
X78800000Y-27600000D03*
X80497056Y-28302944D03*
%TD*%
%TO.P,H3,1*%
%TO.N,GND*%
X38897056Y-70102944D03*
X37200000Y-69400000D03*
X35502944Y-70102944D03*
X34800000Y-71800000D03*
X35502944Y-73497056D03*
X37200000Y-74200000D03*
X38897056Y-73497056D03*
X39600000Y-71800000D03*
D16*
X37200000Y-71800000D03*
%TD*%
%TO.P,H4,1*%
%TO.N,GND*%
X79000000Y-71700000D03*
D15*
X81400000Y-71700000D03*
X80697056Y-73397056D03*
X79000000Y-74100000D03*
X77302944Y-73397056D03*
X76600000Y-71700000D03*
X77302944Y-70002944D03*
X79000000Y-69300000D03*
X80697056Y-70002944D03*
%TD*%
D17*
%TO.N,+5V*%
X46900000Y-62800000D03*
X46900000Y-64800000D03*
X50100000Y-63200000D03*
X70200000Y-59000000D03*
X45400000Y-69400000D03*
X70350000Y-51200000D03*
X69600000Y-59800000D03*
%TO.N,GND*%
X71800000Y-33300000D03*
X48000000Y-44750000D03*
X71800000Y-28200000D03*
X71800000Y-35800000D03*
X58800000Y-56500000D03*
X48000000Y-39800000D03*
X49500000Y-38800000D03*
X53800000Y-41200000D03*
X39550000Y-49050000D03*
X39500000Y-45700000D03*
X47800000Y-55600000D03*
X46900000Y-54400000D03*
X48600000Y-49800000D03*
X51800000Y-56500000D03*
X70200000Y-56500000D03*
X81300000Y-58500000D03*
X81300000Y-50400000D03*
X81300000Y-52900000D03*
X81400000Y-56000000D03*
X42700000Y-59800000D03*
X43900000Y-60700000D03*
X35000000Y-67700000D03*
X61500000Y-59100000D03*
X48500000Y-33750000D03*
X34550000Y-45900000D03*
X43400000Y-69400000D03*
X42500000Y-70300000D03*
X63200000Y-46300000D03*
X63900000Y-55200000D03*
X70200000Y-46300000D03*
X70250000Y-48800000D03*
X64600000Y-43300000D03*
X68850000Y-58100000D03*
X69650000Y-55350000D03*
%TO.N,+3V3*%
X63500000Y-58450000D03*
X64150000Y-50850000D03*
X70950000Y-44550000D03*
X50100000Y-44000000D03*
X61400000Y-56500000D03*
X48800000Y-57800000D03*
X49800000Y-58800000D03*
X39000000Y-66500000D03*
X36250000Y-45900000D03*
X35300000Y-57200000D03*
X37800000Y-62100000D03*
X40100000Y-57300000D03*
X57600000Y-37000000D03*
X52200000Y-37000000D03*
X51300000Y-38800000D03*
X51300000Y-41500000D03*
X53400000Y-57300000D03*
X71850000Y-38400000D03*
X63200000Y-43900000D03*
X68900000Y-53700000D03*
%TO.N,NRST*%
X56200000Y-45400000D03*
X57000000Y-40400000D03*
%TO.N,STATUS*%
X59550000Y-45250000D03*
X62200000Y-42600000D03*
%TO.N,ANODE_DP*%
X62150000Y-53600000D03*
X62650000Y-57050000D03*
%TO.N,ANODE_A_5V*%
X66700000Y-51950000D03*
X72500000Y-64950000D03*
%TO.N,ANODE_B_5V*%
X67650000Y-51950000D03*
X73500000Y-63750000D03*
%TO.N,ANODE_C_5V*%
X68600000Y-51950000D03*
X74450000Y-62450000D03*
%TD*%
D18*
%TO.N,NRST*%
X56200000Y-45400000D02*
X56200000Y-41200000D01*
X56200000Y-41200000D02*
X57000000Y-40400000D01*
%TO.N,STATUS*%
X59550000Y-45250000D02*
X62200000Y-42600000D01*
D19*
%TO.N,ANODE_DP*%
X62175001Y-53625001D02*
X62175001Y-54925001D01*
X62150000Y-53600000D02*
X62175001Y-53625001D01*
X62175001Y-54925001D02*
X62650000Y-55400000D01*
X62650000Y-55400000D02*
X62650000Y-57050000D01*
%TO.N,ANODE_A_5V*%
X66150000Y-52500000D02*
X66700000Y-51950000D01*
X66150000Y-61300000D02*
X66150000Y-52500000D01*
X67500000Y-62650000D02*
X66150000Y-61300000D01*
X71600000Y-64950000D02*
X69300000Y-62650000D01*
X69300000Y-62650000D02*
X67500000Y-62650000D01*
X72500000Y-64950000D02*
X71600000Y-64950000D01*
%TO.N,ANODE_B_5V*%
X66950000Y-52650000D02*
X67650000Y-51950000D01*
X66950000Y-60750000D02*
X66950000Y-52650000D01*
X69950000Y-61900000D02*
X68100000Y-61900000D01*
X68100000Y-61900000D02*
X66950000Y-60750000D01*
X71800000Y-63750000D02*
X69950000Y-61900000D01*
X73500000Y-63750000D02*
X71800000Y-63750000D01*
%TO.N,ANODE_C_5V*%
X67750000Y-52800000D02*
X68600000Y-51950000D01*
X67750000Y-60300000D02*
X67750000Y-52800000D01*
X68550000Y-61100000D02*
X67750000Y-60300000D01*
X70700000Y-61100000D02*
X68550000Y-61100000D01*
X72050000Y-62450000D02*
X70700000Y-61100000D01*
X74450000Y-62450000D02*
X72050000Y-62450000D01*
%TD*%
D20*
%TO.N,GND*%
X41057748Y-26730013D02*
X40830013Y-26957748D01*
X40651082Y-27225537D01*
X40527832Y-27523088D01*
X40465000Y-27838967D01*
X40465000Y-28161033D01*
X40527832Y-28476912D01*
X40651082Y-28774463D01*
X40830013Y-29042252D01*
X41057748Y-29269987D01*
X41325537Y-29448918D01*
X41623088Y-29572168D01*
X41938967Y-29635000D01*
X42261033Y-29635000D01*
X42576912Y-29572168D01*
X42874463Y-29448918D01*
X43142252Y-29269987D01*
X43276826Y-29135413D01*
X45644192Y-29135413D01*
X45739956Y-29399814D01*
X46029571Y-29540704D01*
X46341108Y-29622384D01*
X46662595Y-29641718D01*
X46981675Y-29597961D01*
X47286088Y-29492795D01*
X47460044Y-29399814D01*
X47555808Y-29135413D01*
X46600000Y-28179605D01*
X45644192Y-29135413D01*
X43276826Y-29135413D01*
X43369987Y-29042252D01*
X43548918Y-28774463D01*
X43672168Y-28476912D01*
X43735000Y-28161033D01*
X43735000Y-28062595D01*
X44958282Y-28062595D01*
X45002039Y-28381675D01*
X45107205Y-28686088D01*
X45200186Y-28860044D01*
X45464587Y-28955808D01*
X46420395Y-28000000D01*
X46779605Y-28000000D01*
X47735413Y-28955808D01*
X47999814Y-28860044D01*
X48140704Y-28570429D01*
X48222384Y-28258892D01*
X48241718Y-27937405D01*
X48197961Y-27618325D01*
X48092795Y-27313912D01*
X47999814Y-27139956D01*
X47735413Y-27044192D01*
X46779605Y-28000000D01*
X46420395Y-28000000D01*
X45464587Y-27044192D01*
X45200186Y-27139956D01*
X45059296Y-27429571D01*
X44977616Y-27741108D01*
X44958282Y-28062595D01*
X43735000Y-28062595D01*
X43735000Y-27838967D01*
X43672168Y-27523088D01*
X43548918Y-27225537D01*
X43369987Y-26957748D01*
X43142252Y-26730013D01*
X43112300Y-26710000D01*
X45700182Y-26710000D01*
X45644192Y-26864587D01*
X46600000Y-27820395D01*
X47555808Y-26864587D01*
X47499818Y-26710000D01*
X76816946Y-26710000D01*
X76679330Y-26782445D01*
X76638912Y-26809452D01*
X76278724Y-27299119D01*
X78800000Y-29820395D01*
X78814143Y-29806253D01*
X78993748Y-29985858D01*
X78979605Y-30000000D01*
X81500881Y-32521276D01*
X81990548Y-32161088D01*
X82290001Y-31609250D01*
X82290000Y-69716946D01*
X82217555Y-69579330D01*
X82190548Y-69538912D01*
X81700881Y-69178724D01*
X79179605Y-71700000D01*
X79193748Y-71714143D01*
X79014143Y-71893748D01*
X79000000Y-71879605D01*
X76478724Y-74400881D01*
X76838912Y-74890548D01*
X77502882Y-75250849D01*
X77629075Y-75290000D01*
X38803135Y-75290000D01*
X39320670Y-75017555D01*
X39361088Y-74990548D01*
X39721276Y-74500881D01*
X37200000Y-71979605D01*
X37185858Y-71993748D01*
X37006253Y-71814143D01*
X37020395Y-71800000D01*
X37379605Y-71800000D01*
X39900881Y-74321276D01*
X40390548Y-73961088D01*
X40750849Y-73297118D01*
X40974694Y-72575615D01*
X41053480Y-71824305D01*
X41039789Y-71675695D01*
X75146520Y-71675695D01*
X75215822Y-72427938D01*
X75430548Y-73152208D01*
X75782445Y-73820670D01*
X75809452Y-73861088D01*
X76299119Y-74221276D01*
X78820395Y-71700000D01*
X76299119Y-69178724D01*
X75809452Y-69538912D01*
X75449151Y-70202882D01*
X75225306Y-70924385D01*
X75146520Y-71675695D01*
X41039789Y-71675695D01*
X40984178Y-71072062D01*
X40769452Y-70347792D01*
X40417555Y-69679330D01*
X40390548Y-69638912D01*
X39927170Y-69298061D01*
X44365000Y-69298061D01*
X44365000Y-69501939D01*
X44404774Y-69701898D01*
X44482795Y-69890256D01*
X44596063Y-70059774D01*
X44740226Y-70203937D01*
X44909744Y-70317205D01*
X45098102Y-70395226D01*
X45298061Y-70435000D01*
X45501939Y-70435000D01*
X45701898Y-70395226D01*
X45890256Y-70317205D01*
X46059774Y-70203937D01*
X46203937Y-70059774D01*
X46317205Y-69890256D01*
X46395226Y-69701898D01*
X46435000Y-69501939D01*
X46435000Y-69298061D01*
X46395226Y-69098102D01*
X46354226Y-68999119D01*
X76478724Y-68999119D01*
X79000000Y-71520395D01*
X81521276Y-68999119D01*
X81161088Y-68509452D01*
X80497118Y-68149151D01*
X79775615Y-67925306D01*
X79024305Y-67846520D01*
X78272062Y-67915822D01*
X77547792Y-68130548D01*
X76879330Y-68482445D01*
X76838912Y-68509452D01*
X76478724Y-68999119D01*
X46354226Y-68999119D01*
X46317205Y-68909744D01*
X46203937Y-68740226D01*
X46059774Y-68596063D01*
X45890256Y-68482795D01*
X45701898Y-68404774D01*
X45501939Y-68365000D01*
X45298061Y-68365000D01*
X45098102Y-68404774D01*
X44909744Y-68482795D01*
X44740226Y-68596063D01*
X44596063Y-68740226D01*
X44482795Y-68909744D01*
X44404774Y-69098102D01*
X44365000Y-69298061D01*
X39927170Y-69298061D01*
X39900881Y-69278724D01*
X37379605Y-71800000D01*
X37020395Y-71800000D01*
X34499119Y-69278724D01*
X34009452Y-69638912D01*
X33710000Y-70190748D01*
X33710000Y-69099119D01*
X34678724Y-69099119D01*
X37200000Y-71620395D01*
X39721276Y-69099119D01*
X39361088Y-68609452D01*
X38697118Y-68249151D01*
X37975615Y-68025306D01*
X37224305Y-67946520D01*
X36472062Y-68015822D01*
X35747792Y-68230548D01*
X35079330Y-68582445D01*
X35038912Y-68609452D01*
X34678724Y-69099119D01*
X33710000Y-69099119D01*
X33710000Y-66398061D01*
X37965000Y-66398061D01*
X37965000Y-66601939D01*
X38004774Y-66801898D01*
X38082795Y-66990256D01*
X38196063Y-67159774D01*
X38340226Y-67303937D01*
X38509744Y-67417205D01*
X38698102Y-67495226D01*
X38898061Y-67535000D01*
X39101939Y-67535000D01*
X39301898Y-67495226D01*
X39490256Y-67417205D01*
X39659774Y-67303937D01*
X39803937Y-67159774D01*
X39917205Y-66990256D01*
X39995226Y-66801898D01*
X40035000Y-66601939D01*
X40035000Y-66398061D01*
X39995226Y-66198102D01*
X39917205Y-66009744D01*
X39803937Y-65840226D01*
X39659774Y-65696063D01*
X39490256Y-65582795D01*
X39301898Y-65504774D01*
X39101939Y-65465000D01*
X38898061Y-65465000D01*
X38698102Y-65504774D01*
X38509744Y-65582795D01*
X38340226Y-65696063D01*
X38196063Y-65840226D01*
X38082795Y-66009744D01*
X38004774Y-66198102D01*
X37965000Y-66398061D01*
X33710000Y-66398061D01*
X33710000Y-61998061D01*
X36765000Y-61998061D01*
X36765000Y-62201939D01*
X36804774Y-62401898D01*
X36882795Y-62590256D01*
X36996063Y-62759774D01*
X37140226Y-62903937D01*
X37309744Y-63017205D01*
X37498102Y-63095226D01*
X37698061Y-63135000D01*
X37901939Y-63135000D01*
X38101898Y-63095226D01*
X38290256Y-63017205D01*
X38459774Y-62903937D01*
X38603937Y-62759774D01*
X38645172Y-62698061D01*
X45865000Y-62698061D01*
X45865000Y-62901939D01*
X45904774Y-63101898D01*
X45982795Y-63290256D01*
X46096063Y-63459774D01*
X46240226Y-63603937D01*
X46409744Y-63717205D01*
X46598102Y-63795226D01*
X46622103Y-63800000D01*
X46598102Y-63804774D01*
X46409744Y-63882795D01*
X46240226Y-63996063D01*
X46096063Y-64140226D01*
X45982795Y-64309744D01*
X45904774Y-64498102D01*
X45865000Y-64698061D01*
X45865000Y-64901939D01*
X45904774Y-65101898D01*
X45982795Y-65290256D01*
X46096063Y-65459774D01*
X46240226Y-65603937D01*
X46409744Y-65717205D01*
X46598102Y-65795226D01*
X46798061Y-65835000D01*
X47001939Y-65835000D01*
X47201898Y-65795226D01*
X47390256Y-65717205D01*
X47559774Y-65603937D01*
X47703937Y-65459774D01*
X47817205Y-65290256D01*
X47895226Y-65101898D01*
X47935000Y-64901939D01*
X47935000Y-64698061D01*
X47895226Y-64498102D01*
X47817205Y-64309744D01*
X47703937Y-64140226D01*
X47559774Y-63996063D01*
X47416006Y-63900000D01*
X48511928Y-63900000D01*
X48511928Y-65600000D01*
X48524188Y-65724482D01*
X48560498Y-65844180D01*
X48619463Y-65954494D01*
X48698815Y-66051185D01*
X48795506Y-66130537D01*
X48905820Y-66189502D01*
X48978380Y-66211513D01*
X48846525Y-66343368D01*
X48684010Y-66586589D01*
X48572068Y-66856842D01*
X48515000Y-67143740D01*
X48515000Y-67436260D01*
X48572068Y-67723158D01*
X48684010Y-67993411D01*
X48846525Y-68236632D01*
X49053368Y-68443475D01*
X49296589Y-68605990D01*
X49566842Y-68717932D01*
X49853740Y-68775000D01*
X50146260Y-68775000D01*
X50433158Y-68717932D01*
X50703411Y-68605990D01*
X50946632Y-68443475D01*
X51153475Y-68236632D01*
X51270000Y-68062240D01*
X51386525Y-68236632D01*
X51593368Y-68443475D01*
X51836589Y-68605990D01*
X52106842Y-68717932D01*
X52393740Y-68775000D01*
X52686260Y-68775000D01*
X52973158Y-68717932D01*
X53243411Y-68605990D01*
X53486632Y-68443475D01*
X53693475Y-68236632D01*
X53810000Y-68062240D01*
X53926525Y-68236632D01*
X54133368Y-68443475D01*
X54376589Y-68605990D01*
X54646842Y-68717932D01*
X54933740Y-68775000D01*
X55226260Y-68775000D01*
X55513158Y-68717932D01*
X55783411Y-68605990D01*
X56026632Y-68443475D01*
X56233475Y-68236632D01*
X56350000Y-68062240D01*
X56466525Y-68236632D01*
X56673368Y-68443475D01*
X56916589Y-68605990D01*
X57186842Y-68717932D01*
X57473740Y-68775000D01*
X57766260Y-68775000D01*
X58053158Y-68717932D01*
X58323411Y-68605990D01*
X58566632Y-68443475D01*
X58773475Y-68236632D01*
X58890000Y-68062240D01*
X59006525Y-68236632D01*
X59213368Y-68443475D01*
X59456589Y-68605990D01*
X59726842Y-68717932D01*
X60013740Y-68775000D01*
X60306260Y-68775000D01*
X60593158Y-68717932D01*
X60863411Y-68605990D01*
X61106632Y-68443475D01*
X61313475Y-68236632D01*
X61430000Y-68062240D01*
X61546525Y-68236632D01*
X61753368Y-68443475D01*
X61996589Y-68605990D01*
X62266842Y-68717932D01*
X62553740Y-68775000D01*
X62846260Y-68775000D01*
X63133158Y-68717932D01*
X63403411Y-68605990D01*
X63646632Y-68443475D01*
X63853475Y-68236632D01*
X63970000Y-68062240D01*
X64086525Y-68236632D01*
X64293368Y-68443475D01*
X64536589Y-68605990D01*
X64806842Y-68717932D01*
X65093740Y-68775000D01*
X65386260Y-68775000D01*
X65673158Y-68717932D01*
X65943411Y-68605990D01*
X66186632Y-68443475D01*
X66393475Y-68236632D01*
X66510000Y-68062240D01*
X66626525Y-68236632D01*
X66833368Y-68443475D01*
X67076589Y-68605990D01*
X67346842Y-68717932D01*
X67633740Y-68775000D01*
X67926260Y-68775000D01*
X68213158Y-68717932D01*
X68483411Y-68605990D01*
X68726632Y-68443475D01*
X68933475Y-68236632D01*
X69095990Y-67993411D01*
X69207932Y-67723158D01*
X69265000Y-67436260D01*
X69265000Y-67143740D01*
X69207932Y-66856842D01*
X69095990Y-66586589D01*
X68939170Y-66351890D01*
X79274048Y-66351890D01*
X79274048Y-66598110D01*
X79322083Y-66839598D01*
X79416307Y-67067074D01*
X79553099Y-67271798D01*
X79727202Y-67445901D01*
X79931926Y-67582693D01*
X80159402Y-67676917D01*
X80400890Y-67724952D01*
X80647110Y-67724952D01*
X80888598Y-67676917D01*
X81116074Y-67582693D01*
X81320798Y-67445901D01*
X81494901Y-67271798D01*
X81631693Y-67067074D01*
X81725917Y-66839598D01*
X81773952Y-66598110D01*
X81773952Y-66351890D01*
X81725917Y-66110402D01*
X81631693Y-65882926D01*
X81494901Y-65678202D01*
X81320798Y-65504099D01*
X81116074Y-65367307D01*
X80888598Y-65273083D01*
X80647110Y-65225048D01*
X80400890Y-65225048D01*
X80159402Y-65273083D01*
X79931926Y-65367307D01*
X79727202Y-65504099D01*
X79553099Y-65678202D01*
X79416307Y-65882926D01*
X79322083Y-66110402D01*
X79274048Y-66351890D01*
X68939170Y-66351890D01*
X68933475Y-66343368D01*
X68726632Y-66136525D01*
X68550594Y-66018900D01*
X68780269Y-65847588D01*
X68975178Y-65631355D01*
X69124157Y-65381252D01*
X69221481Y-65106891D01*
X69100814Y-64877000D01*
X67907000Y-64877000D01*
X67907000Y-64897000D01*
X67653000Y-64897000D01*
X67653000Y-64877000D01*
X67633000Y-64877000D01*
X67633000Y-64623000D01*
X67653000Y-64623000D01*
X67653000Y-64603000D01*
X67907000Y-64603000D01*
X67907000Y-64623000D01*
X69100814Y-64623000D01*
X69221481Y-64393109D01*
X69124157Y-64118748D01*
X68975178Y-63868645D01*
X68780269Y-63652412D01*
X68546920Y-63478359D01*
X68350915Y-63385000D01*
X68995554Y-63385000D01*
X71054746Y-65444193D01*
X71077762Y-65472238D01*
X71189680Y-65564087D01*
X71317367Y-65632337D01*
X71455915Y-65674365D01*
X71563895Y-65685000D01*
X71563904Y-65685000D01*
X71599999Y-65688555D01*
X71636094Y-65685000D01*
X71771289Y-65685000D01*
X71840226Y-65753937D01*
X72009744Y-65867205D01*
X72198102Y-65945226D01*
X72398061Y-65985000D01*
X72601939Y-65985000D01*
X72801898Y-65945226D01*
X72990256Y-65867205D01*
X73159774Y-65753937D01*
X73303937Y-65609774D01*
X73417205Y-65440256D01*
X73495226Y-65251898D01*
X73535000Y-65051939D01*
X73535000Y-64848061D01*
X73522456Y-64785000D01*
X73601939Y-64785000D01*
X73801898Y-64745226D01*
X73990256Y-64667205D01*
X74159774Y-64553937D01*
X74303937Y-64409774D01*
X74417205Y-64240256D01*
X74495226Y-64051898D01*
X74535000Y-63851939D01*
X74535000Y-63648061D01*
X74502565Y-63485000D01*
X74551939Y-63485000D01*
X74751898Y-63445226D01*
X74940256Y-63367205D01*
X75109774Y-63253937D01*
X75253937Y-63109774D01*
X75367205Y-62940256D01*
X75445226Y-62751898D01*
X75485000Y-62551939D01*
X75485000Y-62348061D01*
X75445226Y-62148102D01*
X75367205Y-61959744D01*
X75253937Y-61790226D01*
X75109774Y-61646063D01*
X74940256Y-61532795D01*
X74751898Y-61454774D01*
X74551939Y-61415000D01*
X74348061Y-61415000D01*
X74148102Y-61454774D01*
X73959744Y-61532795D01*
X73790226Y-61646063D01*
X73721289Y-61715000D01*
X72354447Y-61715000D01*
X71245258Y-60605812D01*
X71222238Y-60577762D01*
X71110320Y-60485913D01*
X70982633Y-60417663D01*
X70844085Y-60375635D01*
X70736105Y-60365000D01*
X70700000Y-60361444D01*
X70663895Y-60365000D01*
X70467263Y-60365000D01*
X70517205Y-60290256D01*
X70595226Y-60101898D01*
X70626729Y-59943519D01*
X70690256Y-59917205D01*
X70859774Y-59803937D01*
X71003937Y-59659774D01*
X71117205Y-59490256D01*
X71195226Y-59301898D01*
X71235000Y-59101939D01*
X71235000Y-58898061D01*
X71195226Y-58698102D01*
X71117205Y-58509744D01*
X71003937Y-58340226D01*
X70859774Y-58196063D01*
X70690256Y-58082795D01*
X70501898Y-58004774D01*
X70301939Y-57965000D01*
X70098061Y-57965000D01*
X69898102Y-58004774D01*
X69709744Y-58082795D01*
X69540226Y-58196063D01*
X69396063Y-58340226D01*
X69282795Y-58509744D01*
X69204774Y-58698102D01*
X69173271Y-58856481D01*
X69109744Y-58882795D01*
X68940226Y-58996063D01*
X68796063Y-59140226D01*
X68682795Y-59309744D01*
X68604774Y-59498102D01*
X68565000Y-59698061D01*
X68565000Y-59901939D01*
X68604774Y-60101898D01*
X68614270Y-60124824D01*
X68485000Y-59995554D01*
X68485000Y-54648377D01*
X68598102Y-54695226D01*
X68798061Y-54735000D01*
X69001939Y-54735000D01*
X69201898Y-54695226D01*
X69390256Y-54617205D01*
X69559774Y-54503937D01*
X69703937Y-54359774D01*
X69817205Y-54190256D01*
X69895226Y-54001898D01*
X69935000Y-53801939D01*
X69935000Y-53598061D01*
X69895226Y-53398102D01*
X69817205Y-53209744D01*
X69703937Y-53040226D01*
X69559774Y-52896063D01*
X69390256Y-52782795D01*
X69277586Y-52736125D01*
X69403937Y-52609774D01*
X69517205Y-52440256D01*
X69595226Y-52251898D01*
X69635000Y-52051939D01*
X69635000Y-51948711D01*
X69690226Y-52003937D01*
X69859744Y-52117205D01*
X70048102Y-52195226D01*
X70248061Y-52235000D01*
X70451939Y-52235000D01*
X70651898Y-52195226D01*
X70840256Y-52117205D01*
X71009774Y-52003937D01*
X71153937Y-51859774D01*
X71267205Y-51690256D01*
X71345226Y-51501898D01*
X71385000Y-51301939D01*
X71385000Y-51098061D01*
X71345226Y-50898102D01*
X71267205Y-50709744D01*
X71153937Y-50540226D01*
X71009774Y-50396063D01*
X70840256Y-50282795D01*
X70651898Y-50204774D01*
X70451939Y-50165000D01*
X70248061Y-50165000D01*
X70048102Y-50204774D01*
X69859744Y-50282795D01*
X69690226Y-50396063D01*
X69546063Y-50540226D01*
X69432795Y-50709744D01*
X69354774Y-50898102D01*
X69315000Y-51098061D01*
X69315000Y-51201289D01*
X69259774Y-51146063D01*
X69090256Y-51032795D01*
X68901898Y-50954774D01*
X68701939Y-50915000D01*
X68498061Y-50915000D01*
X68298102Y-50954774D01*
X68125000Y-51026476D01*
X67951898Y-50954774D01*
X67751939Y-50915000D01*
X67548061Y-50915000D01*
X67348102Y-50954774D01*
X67175000Y-51026476D01*
X67001898Y-50954774D01*
X66801939Y-50915000D01*
X66598061Y-50915000D01*
X66398102Y-50954774D01*
X66209744Y-51032795D01*
X66040226Y-51146063D01*
X65896063Y-51290226D01*
X65782795Y-51459744D01*
X65704774Y-51648102D01*
X65665000Y-51848061D01*
X65665000Y-51945554D01*
X65655808Y-51954746D01*
X65627763Y-51977762D01*
X65535914Y-52089680D01*
X65479499Y-52195226D01*
X65467664Y-52217367D01*
X65425635Y-52355915D01*
X65411444Y-52500000D01*
X65415001Y-52536115D01*
X65415000Y-61263895D01*
X65411444Y-61300000D01*
X65424478Y-61432337D01*
X65425635Y-61444084D01*
X65467663Y-61582632D01*
X65535913Y-61710319D01*
X65627762Y-61822237D01*
X65655808Y-61845254D01*
X66954746Y-63144193D01*
X66977762Y-63172238D01*
X67089680Y-63264087D01*
X67217367Y-63332337D01*
X67280981Y-63351634D01*
X67275901Y-63353175D01*
X67013080Y-63478359D01*
X66779731Y-63652412D01*
X66584822Y-63868645D01*
X66515195Y-63985534D01*
X66393475Y-63803368D01*
X66186632Y-63596525D01*
X65943411Y-63434010D01*
X65673158Y-63322068D01*
X65386260Y-63265000D01*
X65093740Y-63265000D01*
X64806842Y-63322068D01*
X64536589Y-63434010D01*
X64293368Y-63596525D01*
X64086525Y-63803368D01*
X63970000Y-63977760D01*
X63853475Y-63803368D01*
X63646632Y-63596525D01*
X63403411Y-63434010D01*
X63133158Y-63322068D01*
X62846260Y-63265000D01*
X62553740Y-63265000D01*
X62266842Y-63322068D01*
X61996589Y-63434010D01*
X61753368Y-63596525D01*
X61546525Y-63803368D01*
X61430000Y-63977760D01*
X61313475Y-63803368D01*
X61106632Y-63596525D01*
X60863411Y-63434010D01*
X60593158Y-63322068D01*
X60306260Y-63265000D01*
X60013740Y-63265000D01*
X59726842Y-63322068D01*
X59456589Y-63434010D01*
X59213368Y-63596525D01*
X59006525Y-63803368D01*
X58890000Y-63977760D01*
X58773475Y-63803368D01*
X58566632Y-63596525D01*
X58323411Y-63434010D01*
X58053158Y-63322068D01*
X57766260Y-63265000D01*
X57473740Y-63265000D01*
X57186842Y-63322068D01*
X56916589Y-63434010D01*
X56673368Y-63596525D01*
X56466525Y-63803368D01*
X56350000Y-63977760D01*
X56233475Y-63803368D01*
X56026632Y-63596525D01*
X55783411Y-63434010D01*
X55513158Y-63322068D01*
X55226260Y-63265000D01*
X54933740Y-63265000D01*
X54646842Y-63322068D01*
X54376589Y-63434010D01*
X54133368Y-63596525D01*
X53926525Y-63803368D01*
X53810000Y-63977760D01*
X53693475Y-63803368D01*
X53486632Y-63596525D01*
X53243411Y-63434010D01*
X52973158Y-63322068D01*
X52686260Y-63265000D01*
X52393740Y-63265000D01*
X52106842Y-63322068D01*
X51836589Y-63434010D01*
X51593368Y-63596525D01*
X51461513Y-63728380D01*
X51439502Y-63655820D01*
X51380537Y-63545506D01*
X51301185Y-63448815D01*
X51204494Y-63369463D01*
X51129538Y-63329398D01*
X51135000Y-63301939D01*
X51135000Y-63098061D01*
X51095226Y-62898102D01*
X51017205Y-62709744D01*
X50903937Y-62540226D01*
X50759774Y-62396063D01*
X50590256Y-62282795D01*
X50401898Y-62204774D01*
X50201939Y-62165000D01*
X49998061Y-62165000D01*
X49798102Y-62204774D01*
X49609744Y-62282795D01*
X49440226Y-62396063D01*
X49296063Y-62540226D01*
X49182795Y-62709744D01*
X49104774Y-62898102D01*
X49065000Y-63098061D01*
X49065000Y-63270299D01*
X49025518Y-63274188D01*
X48905820Y-63310498D01*
X48795506Y-63369463D01*
X48698815Y-63448815D01*
X48619463Y-63545506D01*
X48560498Y-63655820D01*
X48524188Y-63775518D01*
X48511928Y-63900000D01*
X47416006Y-63900000D01*
X47390256Y-63882795D01*
X47201898Y-63804774D01*
X47177897Y-63800000D01*
X47201898Y-63795226D01*
X47390256Y-63717205D01*
X47559774Y-63603937D01*
X47703937Y-63459774D01*
X47817205Y-63290256D01*
X47895226Y-63101898D01*
X47935000Y-62901939D01*
X47935000Y-62698061D01*
X47895226Y-62498102D01*
X47817205Y-62309744D01*
X47703937Y-62140226D01*
X47559774Y-61996063D01*
X47390256Y-61882795D01*
X47201898Y-61804774D01*
X47001939Y-61765000D01*
X46798061Y-61765000D01*
X46598102Y-61804774D01*
X46409744Y-61882795D01*
X46240226Y-61996063D01*
X46096063Y-62140226D01*
X45982795Y-62309744D01*
X45904774Y-62498102D01*
X45865000Y-62698061D01*
X38645172Y-62698061D01*
X38717205Y-62590256D01*
X38795226Y-62401898D01*
X38835000Y-62201939D01*
X38835000Y-61998061D01*
X38795226Y-61798102D01*
X38717205Y-61609744D01*
X38603937Y-61440226D01*
X38459774Y-61296063D01*
X38290256Y-61182795D01*
X38101898Y-61104774D01*
X37901939Y-61065000D01*
X37698061Y-61065000D01*
X37498102Y-61104774D01*
X37309744Y-61182795D01*
X37140226Y-61296063D01*
X36996063Y-61440226D01*
X36882795Y-61609744D01*
X36804774Y-61798102D01*
X36765000Y-61998061D01*
X33710000Y-61998061D01*
X33710000Y-57098061D01*
X34265000Y-57098061D01*
X34265000Y-57301939D01*
X34304774Y-57501898D01*
X34382795Y-57690256D01*
X34496063Y-57859774D01*
X34640226Y-58003937D01*
X34809744Y-58117205D01*
X34998102Y-58195226D01*
X35198061Y-58235000D01*
X35401939Y-58235000D01*
X35601898Y-58195226D01*
X35790256Y-58117205D01*
X35959774Y-58003937D01*
X36103937Y-57859774D01*
X36217205Y-57690256D01*
X36295226Y-57501898D01*
X36335000Y-57301939D01*
X36335000Y-57198061D01*
X39065000Y-57198061D01*
X39065000Y-57401939D01*
X39104774Y-57601898D01*
X39182795Y-57790256D01*
X39296063Y-57959774D01*
X39440226Y-58103937D01*
X39609744Y-58217205D01*
X39798102Y-58295226D01*
X39998061Y-58335000D01*
X40201939Y-58335000D01*
X40401898Y-58295226D01*
X40590256Y-58217205D01*
X40759774Y-58103937D01*
X40903937Y-57959774D01*
X41017205Y-57790256D01*
X41055393Y-57698061D01*
X47765000Y-57698061D01*
X47765000Y-57901939D01*
X47804774Y-58101898D01*
X47882795Y-58290256D01*
X47996063Y-58459774D01*
X48140226Y-58603937D01*
X48309744Y-58717205D01*
X48498102Y-58795226D01*
X48698061Y-58835000D01*
X48765000Y-58835000D01*
X48765000Y-58901939D01*
X48804774Y-59101898D01*
X48882795Y-59290256D01*
X48996063Y-59459774D01*
X49140226Y-59603937D01*
X49309744Y-59717205D01*
X49498102Y-59795226D01*
X49698061Y-59835000D01*
X49901939Y-59835000D01*
X50101898Y-59795226D01*
X50290256Y-59717205D01*
X50459774Y-59603937D01*
X50603937Y-59459774D01*
X50717205Y-59290256D01*
X50795226Y-59101898D01*
X50835000Y-58901939D01*
X50835000Y-58698061D01*
X50795226Y-58498102D01*
X50717205Y-58309744D01*
X50603937Y-58140226D01*
X50459774Y-57996063D01*
X50290256Y-57882795D01*
X50101898Y-57804774D01*
X49901939Y-57765000D01*
X49835000Y-57765000D01*
X49835000Y-57698061D01*
X49795226Y-57498102D01*
X49717205Y-57309744D01*
X49642582Y-57198061D01*
X52365000Y-57198061D01*
X52365000Y-57401939D01*
X52404774Y-57601898D01*
X52482795Y-57790256D01*
X52596063Y-57959774D01*
X52740226Y-58103937D01*
X52909744Y-58217205D01*
X53098102Y-58295226D01*
X53298061Y-58335000D01*
X53501939Y-58335000D01*
X53701898Y-58295226D01*
X53890256Y-58217205D01*
X54059774Y-58103937D01*
X54203937Y-57959774D01*
X54317205Y-57790256D01*
X54395226Y-57601898D01*
X54435000Y-57401939D01*
X54435000Y-57198061D01*
X54395226Y-56998102D01*
X54317205Y-56809744D01*
X54203937Y-56640226D01*
X54059774Y-56496063D01*
X53913104Y-56398061D01*
X60365000Y-56398061D01*
X60365000Y-56601939D01*
X60404774Y-56801898D01*
X60482795Y-56990256D01*
X60596063Y-57159774D01*
X60740226Y-57303937D01*
X60909744Y-57417205D01*
X61098102Y-57495226D01*
X61298061Y-57535000D01*
X61501939Y-57535000D01*
X61701898Y-57495226D01*
X61712350Y-57490897D01*
X61732795Y-57540256D01*
X61846063Y-57709774D01*
X61990226Y-57853937D01*
X62159744Y-57967205D01*
X62348102Y-58045226D01*
X62532217Y-58081849D01*
X62504774Y-58148102D01*
X62465000Y-58348061D01*
X62465000Y-58551939D01*
X62504774Y-58751898D01*
X62582795Y-58940256D01*
X62696063Y-59109774D01*
X62840226Y-59253937D01*
X63009744Y-59367205D01*
X63198102Y-59445226D01*
X63398061Y-59485000D01*
X63601939Y-59485000D01*
X63801898Y-59445226D01*
X63990256Y-59367205D01*
X64159774Y-59253937D01*
X64303937Y-59109774D01*
X64417205Y-58940256D01*
X64495226Y-58751898D01*
X64535000Y-58551939D01*
X64535000Y-58348061D01*
X64495226Y-58148102D01*
X64417205Y-57959744D01*
X64303937Y-57790226D01*
X64159774Y-57646063D01*
X63990256Y-57532795D01*
X63801898Y-57454774D01*
X63617783Y-57418151D01*
X63645226Y-57351898D01*
X63685000Y-57151939D01*
X63685000Y-56948061D01*
X63645226Y-56748102D01*
X63567205Y-56559744D01*
X63453937Y-56390226D01*
X63385000Y-56321289D01*
X63385000Y-55436104D01*
X63388556Y-55399999D01*
X63374365Y-55255914D01*
X63332337Y-55117368D01*
X63332337Y-55117367D01*
X63264087Y-54989680D01*
X63172237Y-54877762D01*
X63144192Y-54854746D01*
X62910001Y-54620555D01*
X62910001Y-54303710D01*
X62953937Y-54259774D01*
X63067205Y-54090256D01*
X63145226Y-53901898D01*
X63185000Y-53701939D01*
X63185000Y-53498061D01*
X63145226Y-53298102D01*
X63067205Y-53109744D01*
X62953937Y-52940226D01*
X62809774Y-52796063D01*
X62640256Y-52682795D01*
X62451898Y-52604774D01*
X62251939Y-52565000D01*
X62048061Y-52565000D01*
X61848102Y-52604774D01*
X61659744Y-52682795D01*
X61490226Y-52796063D01*
X61346063Y-52940226D01*
X61232795Y-53109744D01*
X61154774Y-53298102D01*
X61115000Y-53498061D01*
X61115000Y-53701939D01*
X61154774Y-53901898D01*
X61232795Y-54090256D01*
X61346063Y-54259774D01*
X61440002Y-54353713D01*
X61440002Y-54888886D01*
X61436445Y-54925001D01*
X61450636Y-55069086D01*
X61465283Y-55117368D01*
X61492665Y-55207634D01*
X61560915Y-55335321D01*
X61652764Y-55447239D01*
X61680809Y-55470255D01*
X61724825Y-55514271D01*
X61701898Y-55504774D01*
X61501939Y-55465000D01*
X61298061Y-55465000D01*
X61098102Y-55504774D01*
X60909744Y-55582795D01*
X60740226Y-55696063D01*
X60596063Y-55840226D01*
X60482795Y-56009744D01*
X60404774Y-56198102D01*
X60365000Y-56398061D01*
X53913104Y-56398061D01*
X53890256Y-56382795D01*
X53701898Y-56304774D01*
X53501939Y-56265000D01*
X53298061Y-56265000D01*
X53098102Y-56304774D01*
X52909744Y-56382795D01*
X52740226Y-56496063D01*
X52596063Y-56640226D01*
X52482795Y-56809744D01*
X52404774Y-56998102D01*
X52365000Y-57198061D01*
X49642582Y-57198061D01*
X49603937Y-57140226D01*
X49459774Y-56996063D01*
X49290256Y-56882795D01*
X49101898Y-56804774D01*
X48901939Y-56765000D01*
X48698061Y-56765000D01*
X48498102Y-56804774D01*
X48309744Y-56882795D01*
X48140226Y-56996063D01*
X47996063Y-57140226D01*
X47882795Y-57309744D01*
X47804774Y-57498102D01*
X47765000Y-57698061D01*
X41055393Y-57698061D01*
X41095226Y-57601898D01*
X41135000Y-57401939D01*
X41135000Y-57198061D01*
X41095226Y-56998102D01*
X41017205Y-56809744D01*
X40903937Y-56640226D01*
X40759774Y-56496063D01*
X40590256Y-56382795D01*
X40401898Y-56304774D01*
X40201939Y-56265000D01*
X39998061Y-56265000D01*
X39798102Y-56304774D01*
X39609744Y-56382795D01*
X39440226Y-56496063D01*
X39296063Y-56640226D01*
X39182795Y-56809744D01*
X39104774Y-56998102D01*
X39065000Y-57198061D01*
X36335000Y-57198061D01*
X36335000Y-57098061D01*
X36295226Y-56898102D01*
X36217205Y-56709744D01*
X36103937Y-56540226D01*
X35959774Y-56396063D01*
X35790256Y-56282795D01*
X35601898Y-56204774D01*
X35401939Y-56165000D01*
X35198061Y-56165000D01*
X34998102Y-56204774D01*
X34809744Y-56282795D01*
X34640226Y-56396063D01*
X34496063Y-56540226D01*
X34382795Y-56709744D01*
X34304774Y-56898102D01*
X34265000Y-57098061D01*
X33710000Y-57098061D01*
X33710000Y-50748061D01*
X63115000Y-50748061D01*
X63115000Y-50951939D01*
X63154774Y-51151898D01*
X63232795Y-51340256D01*
X63346063Y-51509774D01*
X63490226Y-51653937D01*
X63659744Y-51767205D01*
X63848102Y-51845226D01*
X64048061Y-51885000D01*
X64251939Y-51885000D01*
X64451898Y-51845226D01*
X64640256Y-51767205D01*
X64809774Y-51653937D01*
X64953937Y-51509774D01*
X65067205Y-51340256D01*
X65145226Y-51151898D01*
X65185000Y-50951939D01*
X65185000Y-50748061D01*
X65145226Y-50548102D01*
X65067205Y-50359744D01*
X64953937Y-50190226D01*
X64809774Y-50046063D01*
X64640256Y-49932795D01*
X64451898Y-49854774D01*
X64251939Y-49815000D01*
X64048061Y-49815000D01*
X63848102Y-49854774D01*
X63659744Y-49932795D01*
X63490226Y-50046063D01*
X63346063Y-50190226D01*
X63232795Y-50359744D01*
X63154774Y-50548102D01*
X63115000Y-50748061D01*
X33710000Y-50748061D01*
X33710000Y-45798061D01*
X35215000Y-45798061D01*
X35215000Y-46001939D01*
X35254774Y-46201898D01*
X35332795Y-46390256D01*
X35446063Y-46559774D01*
X35590226Y-46703937D01*
X35759744Y-46817205D01*
X35948102Y-46895226D01*
X36148061Y-46935000D01*
X36351939Y-46935000D01*
X36551898Y-46895226D01*
X36740256Y-46817205D01*
X36909774Y-46703937D01*
X37053937Y-46559774D01*
X37167205Y-46390256D01*
X37245226Y-46201898D01*
X37285000Y-46001939D01*
X37285000Y-45798061D01*
X37245226Y-45598102D01*
X37167205Y-45409744D01*
X37092582Y-45298061D01*
X55165000Y-45298061D01*
X55165000Y-45501939D01*
X55204774Y-45701898D01*
X55282795Y-45890256D01*
X55396063Y-46059774D01*
X55540226Y-46203937D01*
X55709744Y-46317205D01*
X55898102Y-46395226D01*
X56098061Y-46435000D01*
X56301939Y-46435000D01*
X56501898Y-46395226D01*
X56690256Y-46317205D01*
X56859774Y-46203937D01*
X57003937Y-46059774D01*
X57117205Y-45890256D01*
X57195226Y-45701898D01*
X57235000Y-45501939D01*
X57235000Y-45298061D01*
X57205164Y-45148061D01*
X58515000Y-45148061D01*
X58515000Y-45351939D01*
X58554774Y-45551898D01*
X58632795Y-45740256D01*
X58746063Y-45909774D01*
X58890226Y-46053937D01*
X59059744Y-46167205D01*
X59248102Y-46245226D01*
X59448061Y-46285000D01*
X59651939Y-46285000D01*
X59851898Y-46245226D01*
X60040256Y-46167205D01*
X60209774Y-46053937D01*
X60353937Y-45909774D01*
X60467205Y-45740256D01*
X60545226Y-45551898D01*
X60585000Y-45351939D01*
X60585000Y-45325157D01*
X62178136Y-43732022D01*
X62165000Y-43798061D01*
X62165000Y-44001939D01*
X62204774Y-44201898D01*
X62282795Y-44390256D01*
X62396063Y-44559774D01*
X62540226Y-44703937D01*
X62709744Y-44817205D01*
X62898102Y-44895226D01*
X63098061Y-44935000D01*
X63301939Y-44935000D01*
X63501898Y-44895226D01*
X63690256Y-44817205D01*
X63859774Y-44703937D01*
X64003937Y-44559774D01*
X64078581Y-44448061D01*
X69915000Y-44448061D01*
X69915000Y-44651939D01*
X69954774Y-44851898D01*
X70032795Y-45040256D01*
X70146063Y-45209774D01*
X70290226Y-45353937D01*
X70459744Y-45467205D01*
X70648102Y-45545226D01*
X70848061Y-45585000D01*
X71051939Y-45585000D01*
X71251898Y-45545226D01*
X71440256Y-45467205D01*
X71609774Y-45353937D01*
X71753937Y-45209774D01*
X71867205Y-45040256D01*
X71945226Y-44851898D01*
X71985000Y-44651939D01*
X71985000Y-44448061D01*
X71945226Y-44248102D01*
X71867205Y-44059744D01*
X71753937Y-43890226D01*
X71609774Y-43746063D01*
X71440256Y-43632795D01*
X71251898Y-43554774D01*
X71051939Y-43515000D01*
X70848061Y-43515000D01*
X70648102Y-43554774D01*
X70459744Y-43632795D01*
X70290226Y-43746063D01*
X70146063Y-43890226D01*
X70032795Y-44059744D01*
X69954774Y-44248102D01*
X69915000Y-44448061D01*
X64078581Y-44448061D01*
X64117205Y-44390256D01*
X64195226Y-44201898D01*
X64235000Y-44001939D01*
X64235000Y-43798061D01*
X64195226Y-43598102D01*
X64117205Y-43409744D01*
X64003937Y-43240226D01*
X63963711Y-43200000D01*
X75811928Y-43200000D01*
X75811928Y-45800000D01*
X75824188Y-45924482D01*
X75860498Y-46044180D01*
X75919463Y-46154494D01*
X75998815Y-46251185D01*
X76095506Y-46330537D01*
X76205820Y-46389502D01*
X76325518Y-46425812D01*
X76450000Y-46438072D01*
X79050000Y-46438072D01*
X79174482Y-46425812D01*
X79294180Y-46389502D01*
X79404494Y-46330537D01*
X79501185Y-46251185D01*
X79580537Y-46154494D01*
X79639502Y-46044180D01*
X79675812Y-45924482D01*
X79688072Y-45800000D01*
X79688072Y-43200000D01*
X79675812Y-43075518D01*
X79639502Y-42955820D01*
X79580537Y-42845506D01*
X79501185Y-42748815D01*
X79404494Y-42669463D01*
X79294180Y-42610498D01*
X79174482Y-42574188D01*
X79050000Y-42561928D01*
X76450000Y-42561928D01*
X76325518Y-42574188D01*
X76205820Y-42610498D01*
X76095506Y-42669463D01*
X75998815Y-42748815D01*
X75919463Y-42845506D01*
X75860498Y-42955820D01*
X75824188Y-43075518D01*
X75811928Y-43200000D01*
X63963711Y-43200000D01*
X63859774Y-43096063D01*
X63690256Y-42982795D01*
X63501898Y-42904774D01*
X63301939Y-42865000D01*
X63202565Y-42865000D01*
X63235000Y-42701939D01*
X63235000Y-42498061D01*
X63195226Y-42298102D01*
X63117205Y-42109744D01*
X63003937Y-41940226D01*
X62859774Y-41796063D01*
X62690256Y-41682795D01*
X62501898Y-41604774D01*
X62301939Y-41565000D01*
X62098061Y-41565000D01*
X61898102Y-41604774D01*
X61709744Y-41682795D01*
X61540226Y-41796063D01*
X61396063Y-41940226D01*
X61282795Y-42109744D01*
X61204774Y-42298102D01*
X61165000Y-42498061D01*
X61165000Y-42524842D01*
X59474843Y-44215000D01*
X59448061Y-44215000D01*
X59248102Y-44254774D01*
X59059744Y-44332795D01*
X58890226Y-44446063D01*
X58746063Y-44590226D01*
X58632795Y-44759744D01*
X58554774Y-44948102D01*
X58515000Y-45148061D01*
X57205164Y-45148061D01*
X57195226Y-45098102D01*
X57117205Y-44909744D01*
X57003937Y-44740226D01*
X56985000Y-44721289D01*
X56985000Y-41525157D01*
X57075157Y-41435000D01*
X57101939Y-41435000D01*
X57301898Y-41395226D01*
X57490256Y-41317205D01*
X57659774Y-41203937D01*
X57803937Y-41059774D01*
X57917205Y-40890256D01*
X57934201Y-40849224D01*
X76580381Y-40849224D01*
X76712317Y-41144312D01*
X77053045Y-41315159D01*
X77420557Y-41416250D01*
X77800729Y-41443701D01*
X78178951Y-41396457D01*
X78540690Y-41276333D01*
X78787683Y-41144312D01*
X78919619Y-40849224D01*
X77750000Y-39679605D01*
X76580381Y-40849224D01*
X57934201Y-40849224D01*
X57995226Y-40701898D01*
X58035000Y-40501939D01*
X58035000Y-40298061D01*
X57995226Y-40098102D01*
X57917205Y-39909744D01*
X57803937Y-39740226D01*
X57659774Y-39596063D01*
X57591927Y-39550729D01*
X75806299Y-39550729D01*
X75853543Y-39928951D01*
X75973667Y-40290690D01*
X76105688Y-40537683D01*
X76400776Y-40669619D01*
X77570395Y-39500000D01*
X77929605Y-39500000D01*
X79099224Y-40669619D01*
X79394312Y-40537683D01*
X79565159Y-40196955D01*
X79666250Y-39829443D01*
X79693701Y-39449271D01*
X79646457Y-39071049D01*
X79526333Y-38709310D01*
X79394312Y-38462317D01*
X79099224Y-38330381D01*
X77929605Y-39500000D01*
X77570395Y-39500000D01*
X76400776Y-38330381D01*
X76105688Y-38462317D01*
X75934841Y-38803045D01*
X75833750Y-39170557D01*
X75806299Y-39550729D01*
X57591927Y-39550729D01*
X57490256Y-39482795D01*
X57301898Y-39404774D01*
X57101939Y-39365000D01*
X56898061Y-39365000D01*
X56698102Y-39404774D01*
X56509744Y-39482795D01*
X56340226Y-39596063D01*
X56196063Y-39740226D01*
X56082795Y-39909744D01*
X56004774Y-40098102D01*
X55965000Y-40298061D01*
X55965000Y-40324843D01*
X55672185Y-40617658D01*
X55642237Y-40642236D01*
X55617659Y-40672184D01*
X55617655Y-40672188D01*
X55593304Y-40701860D01*
X55544139Y-40761767D01*
X55505177Y-40834660D01*
X55471246Y-40898141D01*
X55426359Y-41046114D01*
X55411203Y-41200000D01*
X55415001Y-41238563D01*
X55415000Y-44721289D01*
X55396063Y-44740226D01*
X55282795Y-44909744D01*
X55204774Y-45098102D01*
X55165000Y-45298061D01*
X37092582Y-45298061D01*
X37053937Y-45240226D01*
X36909774Y-45096063D01*
X36740256Y-44982795D01*
X36551898Y-44904774D01*
X36351939Y-44865000D01*
X36148061Y-44865000D01*
X35948102Y-44904774D01*
X35759744Y-44982795D01*
X35590226Y-45096063D01*
X35446063Y-45240226D01*
X35332795Y-45409744D01*
X35254774Y-45598102D01*
X35215000Y-45798061D01*
X33710000Y-45798061D01*
X33710000Y-43898061D01*
X49065000Y-43898061D01*
X49065000Y-44101939D01*
X49104774Y-44301898D01*
X49182795Y-44490256D01*
X49296063Y-44659774D01*
X49440226Y-44803937D01*
X49609744Y-44917205D01*
X49798102Y-44995226D01*
X49998061Y-45035000D01*
X50201939Y-45035000D01*
X50401898Y-44995226D01*
X50590256Y-44917205D01*
X50759774Y-44803937D01*
X50903937Y-44659774D01*
X51017205Y-44490256D01*
X51095226Y-44301898D01*
X51135000Y-44101939D01*
X51135000Y-43898061D01*
X51095226Y-43698102D01*
X51017205Y-43509744D01*
X50903937Y-43340226D01*
X50759774Y-43196063D01*
X50590256Y-43082795D01*
X50401898Y-43004774D01*
X50201939Y-42965000D01*
X49998061Y-42965000D01*
X49798102Y-43004774D01*
X49609744Y-43082795D01*
X49440226Y-43196063D01*
X49296063Y-43340226D01*
X49182795Y-43509744D01*
X49104774Y-43698102D01*
X49065000Y-43898061D01*
X33710000Y-43898061D01*
X33710000Y-41398061D01*
X50265000Y-41398061D01*
X50265000Y-41601939D01*
X50304774Y-41801898D01*
X50382795Y-41990256D01*
X50496063Y-42159774D01*
X50640226Y-42303937D01*
X50809744Y-42417205D01*
X50998102Y-42495226D01*
X51198061Y-42535000D01*
X51401939Y-42535000D01*
X51601898Y-42495226D01*
X51790256Y-42417205D01*
X51959774Y-42303937D01*
X52103937Y-42159774D01*
X52217205Y-41990256D01*
X52295226Y-41801898D01*
X52335000Y-41601939D01*
X52335000Y-41398061D01*
X52295226Y-41198102D01*
X52217205Y-41009744D01*
X52103937Y-40840226D01*
X51959774Y-40696063D01*
X51790256Y-40582795D01*
X51601898Y-40504774D01*
X51401939Y-40465000D01*
X51198061Y-40465000D01*
X50998102Y-40504774D01*
X50809744Y-40582795D01*
X50640226Y-40696063D01*
X50496063Y-40840226D01*
X50382795Y-41009744D01*
X50304774Y-41198102D01*
X50265000Y-41398061D01*
X33710000Y-41398061D01*
X33710000Y-38700890D01*
X34250048Y-38700890D01*
X34250048Y-38947110D01*
X34298083Y-39188598D01*
X34392307Y-39416074D01*
X34529099Y-39620798D01*
X34703202Y-39794901D01*
X34907926Y-39931693D01*
X35135402Y-40025917D01*
X35376890Y-40073952D01*
X35623110Y-40073952D01*
X35864598Y-40025917D01*
X36092074Y-39931693D01*
X36296798Y-39794901D01*
X36470901Y-39620798D01*
X36607693Y-39416074D01*
X36701917Y-39188598D01*
X36749952Y-38947110D01*
X36749952Y-38700890D01*
X36749390Y-38698061D01*
X50265000Y-38698061D01*
X50265000Y-38901939D01*
X50304774Y-39101898D01*
X50382795Y-39290256D01*
X50496063Y-39459774D01*
X50640226Y-39603937D01*
X50809744Y-39717205D01*
X50998102Y-39795226D01*
X51198061Y-39835000D01*
X51401939Y-39835000D01*
X51601898Y-39795226D01*
X51790256Y-39717205D01*
X51959774Y-39603937D01*
X52103937Y-39459774D01*
X52217205Y-39290256D01*
X52295226Y-39101898D01*
X52335000Y-38901939D01*
X52335000Y-38698061D01*
X52295226Y-38498102D01*
X52217205Y-38309744D01*
X52209399Y-38298061D01*
X70815000Y-38298061D01*
X70815000Y-38501939D01*
X70854774Y-38701898D01*
X70932795Y-38890256D01*
X71046063Y-39059774D01*
X71190226Y-39203937D01*
X71359744Y-39317205D01*
X71548102Y-39395226D01*
X71748061Y-39435000D01*
X71951939Y-39435000D01*
X72151898Y-39395226D01*
X72340256Y-39317205D01*
X72509774Y-39203937D01*
X72653937Y-39059774D01*
X72767205Y-38890256D01*
X72845226Y-38701898D01*
X72885000Y-38501939D01*
X72885000Y-38298061D01*
X72855704Y-38150776D01*
X76580381Y-38150776D01*
X77750000Y-39320395D01*
X78919619Y-38150776D01*
X78787683Y-37855688D01*
X78446955Y-37684841D01*
X78079443Y-37583750D01*
X77699271Y-37556299D01*
X77321049Y-37603543D01*
X76959310Y-37723667D01*
X76712317Y-37855688D01*
X76580381Y-38150776D01*
X72855704Y-38150776D01*
X72845226Y-38098102D01*
X72767205Y-37909744D01*
X72653937Y-37740226D01*
X72509774Y-37596063D01*
X72340256Y-37482795D01*
X72151898Y-37404774D01*
X71951939Y-37365000D01*
X71748061Y-37365000D01*
X71548102Y-37404774D01*
X71359744Y-37482795D01*
X71190226Y-37596063D01*
X71046063Y-37740226D01*
X70932795Y-37909744D01*
X70854774Y-38098102D01*
X70815000Y-38298061D01*
X52209399Y-38298061D01*
X52103937Y-38140226D01*
X51974042Y-38010331D01*
X52098061Y-38035000D01*
X52301939Y-38035000D01*
X52501898Y-37995226D01*
X52690256Y-37917205D01*
X52859774Y-37803937D01*
X53003937Y-37659774D01*
X53117205Y-37490256D01*
X53195226Y-37301898D01*
X53235000Y-37101939D01*
X53235000Y-36898061D01*
X56565000Y-36898061D01*
X56565000Y-37101939D01*
X56604774Y-37301898D01*
X56682795Y-37490256D01*
X56796063Y-37659774D01*
X56940226Y-37803937D01*
X57109744Y-37917205D01*
X57298102Y-37995226D01*
X57498061Y-38035000D01*
X57701939Y-38035000D01*
X57901898Y-37995226D01*
X58090256Y-37917205D01*
X58259774Y-37803937D01*
X58403937Y-37659774D01*
X58517205Y-37490256D01*
X58595226Y-37301898D01*
X58635000Y-37101939D01*
X58635000Y-36898061D01*
X58595226Y-36698102D01*
X58517205Y-36509744D01*
X58403937Y-36340226D01*
X58259774Y-36196063D01*
X58090256Y-36082795D01*
X57901898Y-36004774D01*
X57701939Y-35965000D01*
X57498061Y-35965000D01*
X57298102Y-36004774D01*
X57109744Y-36082795D01*
X56940226Y-36196063D01*
X56796063Y-36340226D01*
X56682795Y-36509744D01*
X56604774Y-36698102D01*
X56565000Y-36898061D01*
X53235000Y-36898061D01*
X53195226Y-36698102D01*
X53117205Y-36509744D01*
X53003937Y-36340226D01*
X52859774Y-36196063D01*
X52690256Y-36082795D01*
X52501898Y-36004774D01*
X52301939Y-35965000D01*
X52098061Y-35965000D01*
X51898102Y-36004774D01*
X51709744Y-36082795D01*
X51540226Y-36196063D01*
X51396063Y-36340226D01*
X51282795Y-36509744D01*
X51204774Y-36698102D01*
X51165000Y-36898061D01*
X51165000Y-37101939D01*
X51204774Y-37301898D01*
X51282795Y-37490256D01*
X51396063Y-37659774D01*
X51525958Y-37789669D01*
X51401939Y-37765000D01*
X51198061Y-37765000D01*
X50998102Y-37804774D01*
X50809744Y-37882795D01*
X50640226Y-37996063D01*
X50496063Y-38140226D01*
X50382795Y-38309744D01*
X50304774Y-38498102D01*
X50265000Y-38698061D01*
X36749390Y-38698061D01*
X36701917Y-38459402D01*
X36607693Y-38231926D01*
X36470901Y-38027202D01*
X36296798Y-37853099D01*
X36092074Y-37716307D01*
X35864598Y-37622083D01*
X35623110Y-37574048D01*
X35376890Y-37574048D01*
X35135402Y-37622083D01*
X34907926Y-37716307D01*
X34703202Y-37853099D01*
X34529099Y-38027202D01*
X34392307Y-38231926D01*
X34298083Y-38459402D01*
X34250048Y-38700890D01*
X33710000Y-38700890D01*
X33710000Y-34338967D01*
X40465000Y-34338967D01*
X40465000Y-34661033D01*
X40527832Y-34976912D01*
X40651082Y-35274463D01*
X40830013Y-35542252D01*
X41057748Y-35769987D01*
X41325537Y-35948918D01*
X41623088Y-36072168D01*
X41938967Y-36135000D01*
X42261033Y-36135000D01*
X42576912Y-36072168D01*
X42874463Y-35948918D01*
X43142252Y-35769987D01*
X43276826Y-35635413D01*
X45644192Y-35635413D01*
X45739956Y-35899814D01*
X46029571Y-36040704D01*
X46341108Y-36122384D01*
X46662595Y-36141718D01*
X46981675Y-36097961D01*
X47286088Y-35992795D01*
X47460044Y-35899814D01*
X47555808Y-35635413D01*
X46600000Y-34679605D01*
X45644192Y-35635413D01*
X43276826Y-35635413D01*
X43369987Y-35542252D01*
X43548918Y-35274463D01*
X43672168Y-34976912D01*
X43735000Y-34661033D01*
X43735000Y-34562595D01*
X44958282Y-34562595D01*
X45002039Y-34881675D01*
X45107205Y-35186088D01*
X45200186Y-35360044D01*
X45464587Y-35455808D01*
X46420395Y-34500000D01*
X46779605Y-34500000D01*
X47735413Y-35455808D01*
X47999814Y-35360044D01*
X48140704Y-35070429D01*
X48196690Y-34856891D01*
X49738519Y-34856891D01*
X49835843Y-35131252D01*
X49984822Y-35381355D01*
X50179731Y-35597588D01*
X50413080Y-35771641D01*
X50675901Y-35896825D01*
X50823110Y-35941476D01*
X51053000Y-35820155D01*
X51053000Y-34627000D01*
X49859186Y-34627000D01*
X49738519Y-34856891D01*
X48196690Y-34856891D01*
X48222384Y-34758892D01*
X48241718Y-34437405D01*
X48201360Y-34143109D01*
X49738519Y-34143109D01*
X49859186Y-34373000D01*
X51053000Y-34373000D01*
X51053000Y-33179845D01*
X51307000Y-33179845D01*
X51307000Y-34373000D01*
X51327000Y-34373000D01*
X51327000Y-34627000D01*
X51307000Y-34627000D01*
X51307000Y-35820155D01*
X51536890Y-35941476D01*
X51684099Y-35896825D01*
X51946920Y-35771641D01*
X52180269Y-35597588D01*
X52375178Y-35381355D01*
X52444805Y-35264466D01*
X52566525Y-35446632D01*
X52773368Y-35653475D01*
X53016589Y-35815990D01*
X53286842Y-35927932D01*
X53573740Y-35985000D01*
X53866260Y-35985000D01*
X54153158Y-35927932D01*
X54423411Y-35815990D01*
X54666632Y-35653475D01*
X54873475Y-35446632D01*
X54990000Y-35272240D01*
X55106525Y-35446632D01*
X55313368Y-35653475D01*
X55556589Y-35815990D01*
X55826842Y-35927932D01*
X56113740Y-35985000D01*
X56406260Y-35985000D01*
X56693158Y-35927932D01*
X56963411Y-35815990D01*
X57206632Y-35653475D01*
X57338487Y-35521620D01*
X57360498Y-35594180D01*
X57419463Y-35704494D01*
X57498815Y-35801185D01*
X57595506Y-35880537D01*
X57705820Y-35939502D01*
X57825518Y-35975812D01*
X57950000Y-35988072D01*
X59650000Y-35988072D01*
X59774482Y-35975812D01*
X59894180Y-35939502D01*
X60004494Y-35880537D01*
X60101185Y-35801185D01*
X60180537Y-35704494D01*
X60239502Y-35594180D01*
X60275812Y-35474482D01*
X60288072Y-35350000D01*
X60288072Y-34876890D01*
X79424048Y-34876890D01*
X79424048Y-35123110D01*
X79472083Y-35364598D01*
X79566307Y-35592074D01*
X79703099Y-35796798D01*
X79877202Y-35970901D01*
X80081926Y-36107693D01*
X80309402Y-36201917D01*
X80550890Y-36249952D01*
X80797110Y-36249952D01*
X81038598Y-36201917D01*
X81266074Y-36107693D01*
X81470798Y-35970901D01*
X81644901Y-35796798D01*
X81781693Y-35592074D01*
X81875917Y-35364598D01*
X81923952Y-35123110D01*
X81923952Y-34876890D01*
X81875917Y-34635402D01*
X81781693Y-34407926D01*
X81644901Y-34203202D01*
X81470798Y-34029099D01*
X81266074Y-33892307D01*
X81038598Y-33798083D01*
X80797110Y-33750048D01*
X80550890Y-33750048D01*
X80309402Y-33798083D01*
X80081926Y-33892307D01*
X79877202Y-34029099D01*
X79703099Y-34203202D01*
X79566307Y-34407926D01*
X79472083Y-34635402D01*
X79424048Y-34876890D01*
X60288072Y-34876890D01*
X60288072Y-33650000D01*
X60275812Y-33525518D01*
X60239502Y-33405820D01*
X60180537Y-33295506D01*
X60101185Y-33198815D01*
X60004494Y-33119463D01*
X59894180Y-33060498D01*
X59774482Y-33024188D01*
X59650000Y-33011928D01*
X57950000Y-33011928D01*
X57825518Y-33024188D01*
X57705820Y-33060498D01*
X57595506Y-33119463D01*
X57498815Y-33198815D01*
X57419463Y-33295506D01*
X57360498Y-33405820D01*
X57338487Y-33478380D01*
X57206632Y-33346525D01*
X56963411Y-33184010D01*
X56693158Y-33072068D01*
X56406260Y-33015000D01*
X56113740Y-33015000D01*
X55826842Y-33072068D01*
X55556589Y-33184010D01*
X55313368Y-33346525D01*
X55106525Y-33553368D01*
X54990000Y-33727760D01*
X54873475Y-33553368D01*
X54666632Y-33346525D01*
X54423411Y-33184010D01*
X54153158Y-33072068D01*
X53866260Y-33015000D01*
X53573740Y-33015000D01*
X53286842Y-33072068D01*
X53016589Y-33184010D01*
X52773368Y-33346525D01*
X52566525Y-33553368D01*
X52444805Y-33735534D01*
X52375178Y-33618645D01*
X52180269Y-33402412D01*
X51946920Y-33228359D01*
X51684099Y-33103175D01*
X51536890Y-33058524D01*
X51307000Y-33179845D01*
X51053000Y-33179845D01*
X50823110Y-33058524D01*
X50675901Y-33103175D01*
X50413080Y-33228359D01*
X50179731Y-33402412D01*
X49984822Y-33618645D01*
X49835843Y-33868748D01*
X49738519Y-34143109D01*
X48201360Y-34143109D01*
X48197961Y-34118325D01*
X48092795Y-33813912D01*
X47999814Y-33639956D01*
X47735413Y-33544192D01*
X46779605Y-34500000D01*
X46420395Y-34500000D01*
X45464587Y-33544192D01*
X45200186Y-33639956D01*
X45059296Y-33929571D01*
X44977616Y-34241108D01*
X44958282Y-34562595D01*
X43735000Y-34562595D01*
X43735000Y-34338967D01*
X43672168Y-34023088D01*
X43548918Y-33725537D01*
X43369987Y-33457748D01*
X43276826Y-33364587D01*
X45644192Y-33364587D01*
X46600000Y-34320395D01*
X47555808Y-33364587D01*
X47460044Y-33100186D01*
X47170429Y-32959296D01*
X46858892Y-32877616D01*
X46537405Y-32858282D01*
X46218325Y-32902039D01*
X45913912Y-33007205D01*
X45739956Y-33100186D01*
X45644192Y-33364587D01*
X43276826Y-33364587D01*
X43142252Y-33230013D01*
X42874463Y-33051082D01*
X42576912Y-32927832D01*
X42261033Y-32865000D01*
X41938967Y-32865000D01*
X41623088Y-32927832D01*
X41325537Y-33051082D01*
X41057748Y-33230013D01*
X40830013Y-33457748D01*
X40651082Y-33725537D01*
X40527832Y-34023088D01*
X40465000Y-34338967D01*
X33710000Y-34338967D01*
X33710000Y-32900881D01*
X34478724Y-32900881D01*
X34838912Y-33390548D01*
X35502882Y-33750849D01*
X36224385Y-33974694D01*
X36975695Y-34053480D01*
X37727938Y-33984178D01*
X38452208Y-33769452D01*
X39120670Y-33417555D01*
X39161088Y-33390548D01*
X39521276Y-32900881D01*
X37000000Y-30379605D01*
X34478724Y-32900881D01*
X33710000Y-32900881D01*
X33710000Y-32183054D01*
X33782445Y-32320670D01*
X33809452Y-32361088D01*
X34299119Y-32721276D01*
X36820395Y-30200000D01*
X37179605Y-30200000D01*
X39700881Y-32721276D01*
X39728607Y-32700881D01*
X76278724Y-32700881D01*
X76638912Y-33190548D01*
X77302882Y-33550849D01*
X78024385Y-33774694D01*
X78775695Y-33853480D01*
X79527938Y-33784178D01*
X80252208Y-33569452D01*
X80920670Y-33217555D01*
X80961088Y-33190548D01*
X81321276Y-32700881D01*
X78800000Y-30179605D01*
X76278724Y-32700881D01*
X39728607Y-32700881D01*
X40190548Y-32361088D01*
X40550849Y-31697118D01*
X40774694Y-30975615D01*
X40853480Y-30224305D01*
X40830577Y-29975695D01*
X74946520Y-29975695D01*
X75015822Y-30727938D01*
X75230548Y-31452208D01*
X75582445Y-32120670D01*
X75609452Y-32161088D01*
X76099119Y-32521276D01*
X78620395Y-30000000D01*
X76099119Y-27478724D01*
X75609452Y-27838912D01*
X75249151Y-28502882D01*
X75025306Y-29224385D01*
X74946520Y-29975695D01*
X40830577Y-29975695D01*
X40784178Y-29472062D01*
X40569452Y-28747792D01*
X40217555Y-28079330D01*
X40190548Y-28038912D01*
X39700881Y-27678724D01*
X37179605Y-30200000D01*
X36820395Y-30200000D01*
X36806253Y-30185858D01*
X36985858Y-30006253D01*
X37000000Y-30020395D01*
X39521276Y-27499119D01*
X39161088Y-27009452D01*
X38609252Y-26710000D01*
X41087700Y-26710000D01*
X41057748Y-26730013D01*
%TA.AperFunction,Conductor*%
D21*
G36*
X41057748Y-26730013D02*
G01*
X40830013Y-26957748D01*
X40651082Y-27225537D01*
X40527832Y-27523088D01*
X40465000Y-27838967D01*
X40465000Y-28161033D01*
X40527832Y-28476912D01*
X40651082Y-28774463D01*
X40830013Y-29042252D01*
X41057748Y-29269987D01*
X41325537Y-29448918D01*
X41623088Y-29572168D01*
X41938967Y-29635000D01*
X42261033Y-29635000D01*
X42576912Y-29572168D01*
X42874463Y-29448918D01*
X43142252Y-29269987D01*
X43276826Y-29135413D01*
X45644192Y-29135413D01*
X45739956Y-29399814D01*
X46029571Y-29540704D01*
X46341108Y-29622384D01*
X46662595Y-29641718D01*
X46981675Y-29597961D01*
X47286088Y-29492795D01*
X47460044Y-29399814D01*
X47555808Y-29135413D01*
X46600000Y-28179605D01*
X45644192Y-29135413D01*
X43276826Y-29135413D01*
X43369987Y-29042252D01*
X43548918Y-28774463D01*
X43672168Y-28476912D01*
X43735000Y-28161033D01*
X43735000Y-28062595D01*
X44958282Y-28062595D01*
X45002039Y-28381675D01*
X45107205Y-28686088D01*
X45200186Y-28860044D01*
X45464587Y-28955808D01*
X46420395Y-28000000D01*
X46779605Y-28000000D01*
X47735413Y-28955808D01*
X47999814Y-28860044D01*
X48140704Y-28570429D01*
X48222384Y-28258892D01*
X48241718Y-27937405D01*
X48197961Y-27618325D01*
X48092795Y-27313912D01*
X47999814Y-27139956D01*
X47735413Y-27044192D01*
X46779605Y-28000000D01*
X46420395Y-28000000D01*
X45464587Y-27044192D01*
X45200186Y-27139956D01*
X45059296Y-27429571D01*
X44977616Y-27741108D01*
X44958282Y-28062595D01*
X43735000Y-28062595D01*
X43735000Y-27838967D01*
X43672168Y-27523088D01*
X43548918Y-27225537D01*
X43369987Y-26957748D01*
X43142252Y-26730013D01*
X43112300Y-26710000D01*
X45700182Y-26710000D01*
X45644192Y-26864587D01*
X46600000Y-27820395D01*
X47555808Y-26864587D01*
X47499818Y-26710000D01*
X76816946Y-26710000D01*
X76679330Y-26782445D01*
X76638912Y-26809452D01*
X76278724Y-27299119D01*
X78800000Y-29820395D01*
X78814143Y-29806253D01*
X78993748Y-29985858D01*
X78979605Y-30000000D01*
X81500881Y-32521276D01*
X81990548Y-32161088D01*
X82290001Y-31609250D01*
X82290000Y-69716946D01*
X82217555Y-69579330D01*
X82190548Y-69538912D01*
X81700881Y-69178724D01*
X79179605Y-71700000D01*
X79193748Y-71714143D01*
X79014143Y-71893748D01*
X79000000Y-71879605D01*
X76478724Y-74400881D01*
X76838912Y-74890548D01*
X77502882Y-75250849D01*
X77629075Y-75290000D01*
X38803135Y-75290000D01*
X39320670Y-75017555D01*
X39361088Y-74990548D01*
X39721276Y-74500881D01*
X37200000Y-71979605D01*
X37185858Y-71993748D01*
X37006253Y-71814143D01*
X37020395Y-71800000D01*
X37379605Y-71800000D01*
X39900881Y-74321276D01*
X40390548Y-73961088D01*
X40750849Y-73297118D01*
X40974694Y-72575615D01*
X41053480Y-71824305D01*
X41039789Y-71675695D01*
X75146520Y-71675695D01*
X75215822Y-72427938D01*
X75430548Y-73152208D01*
X75782445Y-73820670D01*
X75809452Y-73861088D01*
X76299119Y-74221276D01*
X78820395Y-71700000D01*
X76299119Y-69178724D01*
X75809452Y-69538912D01*
X75449151Y-70202882D01*
X75225306Y-70924385D01*
X75146520Y-71675695D01*
X41039789Y-71675695D01*
X40984178Y-71072062D01*
X40769452Y-70347792D01*
X40417555Y-69679330D01*
X40390548Y-69638912D01*
X39927170Y-69298061D01*
X44365000Y-69298061D01*
X44365000Y-69501939D01*
X44404774Y-69701898D01*
X44482795Y-69890256D01*
X44596063Y-70059774D01*
X44740226Y-70203937D01*
X44909744Y-70317205D01*
X45098102Y-70395226D01*
X45298061Y-70435000D01*
X45501939Y-70435000D01*
X45701898Y-70395226D01*
X45890256Y-70317205D01*
X46059774Y-70203937D01*
X46203937Y-70059774D01*
X46317205Y-69890256D01*
X46395226Y-69701898D01*
X46435000Y-69501939D01*
X46435000Y-69298061D01*
X46395226Y-69098102D01*
X46354226Y-68999119D01*
X76478724Y-68999119D01*
X79000000Y-71520395D01*
X81521276Y-68999119D01*
X81161088Y-68509452D01*
X80497118Y-68149151D01*
X79775615Y-67925306D01*
X79024305Y-67846520D01*
X78272062Y-67915822D01*
X77547792Y-68130548D01*
X76879330Y-68482445D01*
X76838912Y-68509452D01*
X76478724Y-68999119D01*
X46354226Y-68999119D01*
X46317205Y-68909744D01*
X46203937Y-68740226D01*
X46059774Y-68596063D01*
X45890256Y-68482795D01*
X45701898Y-68404774D01*
X45501939Y-68365000D01*
X45298061Y-68365000D01*
X45098102Y-68404774D01*
X44909744Y-68482795D01*
X44740226Y-68596063D01*
X44596063Y-68740226D01*
X44482795Y-68909744D01*
X44404774Y-69098102D01*
X44365000Y-69298061D01*
X39927170Y-69298061D01*
X39900881Y-69278724D01*
X37379605Y-71800000D01*
X37020395Y-71800000D01*
X34499119Y-69278724D01*
X34009452Y-69638912D01*
X33710000Y-70190748D01*
X33710000Y-69099119D01*
X34678724Y-69099119D01*
X37200000Y-71620395D01*
X39721276Y-69099119D01*
X39361088Y-68609452D01*
X38697118Y-68249151D01*
X37975615Y-68025306D01*
X37224305Y-67946520D01*
X36472062Y-68015822D01*
X35747792Y-68230548D01*
X35079330Y-68582445D01*
X35038912Y-68609452D01*
X34678724Y-69099119D01*
X33710000Y-69099119D01*
X33710000Y-66398061D01*
X37965000Y-66398061D01*
X37965000Y-66601939D01*
X38004774Y-66801898D01*
X38082795Y-66990256D01*
X38196063Y-67159774D01*
X38340226Y-67303937D01*
X38509744Y-67417205D01*
X38698102Y-67495226D01*
X38898061Y-67535000D01*
X39101939Y-67535000D01*
X39301898Y-67495226D01*
X39490256Y-67417205D01*
X39659774Y-67303937D01*
X39803937Y-67159774D01*
X39917205Y-66990256D01*
X39995226Y-66801898D01*
X40035000Y-66601939D01*
X40035000Y-66398061D01*
X39995226Y-66198102D01*
X39917205Y-66009744D01*
X39803937Y-65840226D01*
X39659774Y-65696063D01*
X39490256Y-65582795D01*
X39301898Y-65504774D01*
X39101939Y-65465000D01*
X38898061Y-65465000D01*
X38698102Y-65504774D01*
X38509744Y-65582795D01*
X38340226Y-65696063D01*
X38196063Y-65840226D01*
X38082795Y-66009744D01*
X38004774Y-66198102D01*
X37965000Y-66398061D01*
X33710000Y-66398061D01*
X33710000Y-61998061D01*
X36765000Y-61998061D01*
X36765000Y-62201939D01*
X36804774Y-62401898D01*
X36882795Y-62590256D01*
X36996063Y-62759774D01*
X37140226Y-62903937D01*
X37309744Y-63017205D01*
X37498102Y-63095226D01*
X37698061Y-63135000D01*
X37901939Y-63135000D01*
X38101898Y-63095226D01*
X38290256Y-63017205D01*
X38459774Y-62903937D01*
X38603937Y-62759774D01*
X38645172Y-62698061D01*
X45865000Y-62698061D01*
X45865000Y-62901939D01*
X45904774Y-63101898D01*
X45982795Y-63290256D01*
X46096063Y-63459774D01*
X46240226Y-63603937D01*
X46409744Y-63717205D01*
X46598102Y-63795226D01*
X46622103Y-63800000D01*
X46598102Y-63804774D01*
X46409744Y-63882795D01*
X46240226Y-63996063D01*
X46096063Y-64140226D01*
X45982795Y-64309744D01*
X45904774Y-64498102D01*
X45865000Y-64698061D01*
X45865000Y-64901939D01*
X45904774Y-65101898D01*
X45982795Y-65290256D01*
X46096063Y-65459774D01*
X46240226Y-65603937D01*
X46409744Y-65717205D01*
X46598102Y-65795226D01*
X46798061Y-65835000D01*
X47001939Y-65835000D01*
X47201898Y-65795226D01*
X47390256Y-65717205D01*
X47559774Y-65603937D01*
X47703937Y-65459774D01*
X47817205Y-65290256D01*
X47895226Y-65101898D01*
X47935000Y-64901939D01*
X47935000Y-64698061D01*
X47895226Y-64498102D01*
X47817205Y-64309744D01*
X47703937Y-64140226D01*
X47559774Y-63996063D01*
X47416006Y-63900000D01*
X48511928Y-63900000D01*
X48511928Y-65600000D01*
X48524188Y-65724482D01*
X48560498Y-65844180D01*
X48619463Y-65954494D01*
X48698815Y-66051185D01*
X48795506Y-66130537D01*
X48905820Y-66189502D01*
X48978380Y-66211513D01*
X48846525Y-66343368D01*
X48684010Y-66586589D01*
X48572068Y-66856842D01*
X48515000Y-67143740D01*
X48515000Y-67436260D01*
X48572068Y-67723158D01*
X48684010Y-67993411D01*
X48846525Y-68236632D01*
X49053368Y-68443475D01*
X49296589Y-68605990D01*
X49566842Y-68717932D01*
X49853740Y-68775000D01*
X50146260Y-68775000D01*
X50433158Y-68717932D01*
X50703411Y-68605990D01*
X50946632Y-68443475D01*
X51153475Y-68236632D01*
X51270000Y-68062240D01*
X51386525Y-68236632D01*
X51593368Y-68443475D01*
X51836589Y-68605990D01*
X52106842Y-68717932D01*
X52393740Y-68775000D01*
X52686260Y-68775000D01*
X52973158Y-68717932D01*
X53243411Y-68605990D01*
X53486632Y-68443475D01*
X53693475Y-68236632D01*
X53810000Y-68062240D01*
X53926525Y-68236632D01*
X54133368Y-68443475D01*
X54376589Y-68605990D01*
X54646842Y-68717932D01*
X54933740Y-68775000D01*
X55226260Y-68775000D01*
X55513158Y-68717932D01*
X55783411Y-68605990D01*
X56026632Y-68443475D01*
X56233475Y-68236632D01*
X56350000Y-68062240D01*
X56466525Y-68236632D01*
X56673368Y-68443475D01*
X56916589Y-68605990D01*
X57186842Y-68717932D01*
X57473740Y-68775000D01*
X57766260Y-68775000D01*
X58053158Y-68717932D01*
X58323411Y-68605990D01*
X58566632Y-68443475D01*
X58773475Y-68236632D01*
X58890000Y-68062240D01*
X59006525Y-68236632D01*
X59213368Y-68443475D01*
X59456589Y-68605990D01*
X59726842Y-68717932D01*
X60013740Y-68775000D01*
X60306260Y-68775000D01*
X60593158Y-68717932D01*
X60863411Y-68605990D01*
X61106632Y-68443475D01*
X61313475Y-68236632D01*
X61430000Y-68062240D01*
X61546525Y-68236632D01*
X61753368Y-68443475D01*
X61996589Y-68605990D01*
X62266842Y-68717932D01*
X62553740Y-68775000D01*
X62846260Y-68775000D01*
X63133158Y-68717932D01*
X63403411Y-68605990D01*
X63646632Y-68443475D01*
X63853475Y-68236632D01*
X63970000Y-68062240D01*
X64086525Y-68236632D01*
X64293368Y-68443475D01*
X64536589Y-68605990D01*
X64806842Y-68717932D01*
X65093740Y-68775000D01*
X65386260Y-68775000D01*
X65673158Y-68717932D01*
X65943411Y-68605990D01*
X66186632Y-68443475D01*
X66393475Y-68236632D01*
X66510000Y-68062240D01*
X66626525Y-68236632D01*
X66833368Y-68443475D01*
X67076589Y-68605990D01*
X67346842Y-68717932D01*
X67633740Y-68775000D01*
X67926260Y-68775000D01*
X68213158Y-68717932D01*
X68483411Y-68605990D01*
X68726632Y-68443475D01*
X68933475Y-68236632D01*
X69095990Y-67993411D01*
X69207932Y-67723158D01*
X69265000Y-67436260D01*
X69265000Y-67143740D01*
X69207932Y-66856842D01*
X69095990Y-66586589D01*
X68939170Y-66351890D01*
X79274048Y-66351890D01*
X79274048Y-66598110D01*
X79322083Y-66839598D01*
X79416307Y-67067074D01*
X79553099Y-67271798D01*
X79727202Y-67445901D01*
X79931926Y-67582693D01*
X80159402Y-67676917D01*
X80400890Y-67724952D01*
X80647110Y-67724952D01*
X80888598Y-67676917D01*
X81116074Y-67582693D01*
X81320798Y-67445901D01*
X81494901Y-67271798D01*
X81631693Y-67067074D01*
X81725917Y-66839598D01*
X81773952Y-66598110D01*
X81773952Y-66351890D01*
X81725917Y-66110402D01*
X81631693Y-65882926D01*
X81494901Y-65678202D01*
X81320798Y-65504099D01*
X81116074Y-65367307D01*
X80888598Y-65273083D01*
X80647110Y-65225048D01*
X80400890Y-65225048D01*
X80159402Y-65273083D01*
X79931926Y-65367307D01*
X79727202Y-65504099D01*
X79553099Y-65678202D01*
X79416307Y-65882926D01*
X79322083Y-66110402D01*
X79274048Y-66351890D01*
X68939170Y-66351890D01*
X68933475Y-66343368D01*
X68726632Y-66136525D01*
X68550594Y-66018900D01*
X68780269Y-65847588D01*
X68975178Y-65631355D01*
X69124157Y-65381252D01*
X69221481Y-65106891D01*
X69100814Y-64877000D01*
X67907000Y-64877000D01*
X67907000Y-64897000D01*
X67653000Y-64897000D01*
X67653000Y-64877000D01*
X67633000Y-64877000D01*
X67633000Y-64623000D01*
X67653000Y-64623000D01*
X67653000Y-64603000D01*
X67907000Y-64603000D01*
X67907000Y-64623000D01*
X69100814Y-64623000D01*
X69221481Y-64393109D01*
X69124157Y-64118748D01*
X68975178Y-63868645D01*
X68780269Y-63652412D01*
X68546920Y-63478359D01*
X68350915Y-63385000D01*
X68995554Y-63385000D01*
X71054746Y-65444193D01*
X71077762Y-65472238D01*
X71189680Y-65564087D01*
X71317367Y-65632337D01*
X71455915Y-65674365D01*
X71563895Y-65685000D01*
X71563904Y-65685000D01*
X71599999Y-65688555D01*
X71636094Y-65685000D01*
X71771289Y-65685000D01*
X71840226Y-65753937D01*
X72009744Y-65867205D01*
X72198102Y-65945226D01*
X72398061Y-65985000D01*
X72601939Y-65985000D01*
X72801898Y-65945226D01*
X72990256Y-65867205D01*
X73159774Y-65753937D01*
X73303937Y-65609774D01*
X73417205Y-65440256D01*
X73495226Y-65251898D01*
X73535000Y-65051939D01*
X73535000Y-64848061D01*
X73522456Y-64785000D01*
X73601939Y-64785000D01*
X73801898Y-64745226D01*
X73990256Y-64667205D01*
X74159774Y-64553937D01*
X74303937Y-64409774D01*
X74417205Y-64240256D01*
X74495226Y-64051898D01*
X74535000Y-63851939D01*
X74535000Y-63648061D01*
X74502565Y-63485000D01*
X74551939Y-63485000D01*
X74751898Y-63445226D01*
X74940256Y-63367205D01*
X75109774Y-63253937D01*
X75253937Y-63109774D01*
X75367205Y-62940256D01*
X75445226Y-62751898D01*
X75485000Y-62551939D01*
X75485000Y-62348061D01*
X75445226Y-62148102D01*
X75367205Y-61959744D01*
X75253937Y-61790226D01*
X75109774Y-61646063D01*
X74940256Y-61532795D01*
X74751898Y-61454774D01*
X74551939Y-61415000D01*
X74348061Y-61415000D01*
X74148102Y-61454774D01*
X73959744Y-61532795D01*
X73790226Y-61646063D01*
X73721289Y-61715000D01*
X72354447Y-61715000D01*
X71245258Y-60605812D01*
X71222238Y-60577762D01*
X71110320Y-60485913D01*
X70982633Y-60417663D01*
X70844085Y-60375635D01*
X70736105Y-60365000D01*
X70700000Y-60361444D01*
X70663895Y-60365000D01*
X70467263Y-60365000D01*
X70517205Y-60290256D01*
X70595226Y-60101898D01*
X70626729Y-59943519D01*
X70690256Y-59917205D01*
X70859774Y-59803937D01*
X71003937Y-59659774D01*
X71117205Y-59490256D01*
X71195226Y-59301898D01*
X71235000Y-59101939D01*
X71235000Y-58898061D01*
X71195226Y-58698102D01*
X71117205Y-58509744D01*
X71003937Y-58340226D01*
X70859774Y-58196063D01*
X70690256Y-58082795D01*
X70501898Y-58004774D01*
X70301939Y-57965000D01*
X70098061Y-57965000D01*
X69898102Y-58004774D01*
X69709744Y-58082795D01*
X69540226Y-58196063D01*
X69396063Y-58340226D01*
X69282795Y-58509744D01*
X69204774Y-58698102D01*
X69173271Y-58856481D01*
X69109744Y-58882795D01*
X68940226Y-58996063D01*
X68796063Y-59140226D01*
X68682795Y-59309744D01*
X68604774Y-59498102D01*
X68565000Y-59698061D01*
X68565000Y-59901939D01*
X68604774Y-60101898D01*
X68614270Y-60124824D01*
X68485000Y-59995554D01*
X68485000Y-54648377D01*
X68598102Y-54695226D01*
X68798061Y-54735000D01*
X69001939Y-54735000D01*
X69201898Y-54695226D01*
X69390256Y-54617205D01*
X69559774Y-54503937D01*
X69703937Y-54359774D01*
X69817205Y-54190256D01*
X69895226Y-54001898D01*
X69935000Y-53801939D01*
X69935000Y-53598061D01*
X69895226Y-53398102D01*
X69817205Y-53209744D01*
X69703937Y-53040226D01*
X69559774Y-52896063D01*
X69390256Y-52782795D01*
X69277586Y-52736125D01*
X69403937Y-52609774D01*
X69517205Y-52440256D01*
X69595226Y-52251898D01*
X69635000Y-52051939D01*
X69635000Y-51948711D01*
X69690226Y-52003937D01*
X69859744Y-52117205D01*
X70048102Y-52195226D01*
X70248061Y-52235000D01*
X70451939Y-52235000D01*
X70651898Y-52195226D01*
X70840256Y-52117205D01*
X71009774Y-52003937D01*
X71153937Y-51859774D01*
X71267205Y-51690256D01*
X71345226Y-51501898D01*
X71385000Y-51301939D01*
X71385000Y-51098061D01*
X71345226Y-50898102D01*
X71267205Y-50709744D01*
X71153937Y-50540226D01*
X71009774Y-50396063D01*
X70840256Y-50282795D01*
X70651898Y-50204774D01*
X70451939Y-50165000D01*
X70248061Y-50165000D01*
X70048102Y-50204774D01*
X69859744Y-50282795D01*
X69690226Y-50396063D01*
X69546063Y-50540226D01*
X69432795Y-50709744D01*
X69354774Y-50898102D01*
X69315000Y-51098061D01*
X69315000Y-51201289D01*
X69259774Y-51146063D01*
X69090256Y-51032795D01*
X68901898Y-50954774D01*
X68701939Y-50915000D01*
X68498061Y-50915000D01*
X68298102Y-50954774D01*
X68125000Y-51026476D01*
X67951898Y-50954774D01*
X67751939Y-50915000D01*
X67548061Y-50915000D01*
X67348102Y-50954774D01*
X67175000Y-51026476D01*
X67001898Y-50954774D01*
X66801939Y-50915000D01*
X66598061Y-50915000D01*
X66398102Y-50954774D01*
X66209744Y-51032795D01*
X66040226Y-51146063D01*
X65896063Y-51290226D01*
X65782795Y-51459744D01*
X65704774Y-51648102D01*
X65665000Y-51848061D01*
X65665000Y-51945554D01*
X65655808Y-51954746D01*
X65627763Y-51977762D01*
X65535914Y-52089680D01*
X65479499Y-52195226D01*
X65467664Y-52217367D01*
X65425635Y-52355915D01*
X65411444Y-52500000D01*
X65415001Y-52536115D01*
X65415000Y-61263895D01*
X65411444Y-61300000D01*
X65424478Y-61432337D01*
X65425635Y-61444084D01*
X65467663Y-61582632D01*
X65535913Y-61710319D01*
X65627762Y-61822237D01*
X65655808Y-61845254D01*
X66954746Y-63144193D01*
X66977762Y-63172238D01*
X67089680Y-63264087D01*
X67217367Y-63332337D01*
X67280981Y-63351634D01*
X67275901Y-63353175D01*
X67013080Y-63478359D01*
X66779731Y-63652412D01*
X66584822Y-63868645D01*
X66515195Y-63985534D01*
X66393475Y-63803368D01*
X66186632Y-63596525D01*
X65943411Y-63434010D01*
X65673158Y-63322068D01*
X65386260Y-63265000D01*
X65093740Y-63265000D01*
X64806842Y-63322068D01*
X64536589Y-63434010D01*
X64293368Y-63596525D01*
X64086525Y-63803368D01*
X63970000Y-63977760D01*
X63853475Y-63803368D01*
X63646632Y-63596525D01*
X63403411Y-63434010D01*
X63133158Y-63322068D01*
X62846260Y-63265000D01*
X62553740Y-63265000D01*
X62266842Y-63322068D01*
X61996589Y-63434010D01*
X61753368Y-63596525D01*
X61546525Y-63803368D01*
X61430000Y-63977760D01*
X61313475Y-63803368D01*
X61106632Y-63596525D01*
X60863411Y-63434010D01*
X60593158Y-63322068D01*
X60306260Y-63265000D01*
X60013740Y-63265000D01*
X59726842Y-63322068D01*
X59456589Y-63434010D01*
X59213368Y-63596525D01*
X59006525Y-63803368D01*
X58890000Y-63977760D01*
X58773475Y-63803368D01*
X58566632Y-63596525D01*
X58323411Y-63434010D01*
X58053158Y-63322068D01*
X57766260Y-63265000D01*
X57473740Y-63265000D01*
X57186842Y-63322068D01*
X56916589Y-63434010D01*
X56673368Y-63596525D01*
X56466525Y-63803368D01*
X56350000Y-63977760D01*
X56233475Y-63803368D01*
X56026632Y-63596525D01*
X55783411Y-63434010D01*
X55513158Y-63322068D01*
X55226260Y-63265000D01*
X54933740Y-63265000D01*
X54646842Y-63322068D01*
X54376589Y-63434010D01*
X54133368Y-63596525D01*
X53926525Y-63803368D01*
X53810000Y-63977760D01*
X53693475Y-63803368D01*
X53486632Y-63596525D01*
X53243411Y-63434010D01*
X52973158Y-63322068D01*
X52686260Y-63265000D01*
X52393740Y-63265000D01*
X52106842Y-63322068D01*
X51836589Y-63434010D01*
X51593368Y-63596525D01*
X51461513Y-63728380D01*
X51439502Y-63655820D01*
X51380537Y-63545506D01*
X51301185Y-63448815D01*
X51204494Y-63369463D01*
X51129538Y-63329398D01*
X51135000Y-63301939D01*
X51135000Y-63098061D01*
X51095226Y-62898102D01*
X51017205Y-62709744D01*
X50903937Y-62540226D01*
X50759774Y-62396063D01*
X50590256Y-62282795D01*
X50401898Y-62204774D01*
X50201939Y-62165000D01*
X49998061Y-62165000D01*
X49798102Y-62204774D01*
X49609744Y-62282795D01*
X49440226Y-62396063D01*
X49296063Y-62540226D01*
X49182795Y-62709744D01*
X49104774Y-62898102D01*
X49065000Y-63098061D01*
X49065000Y-63270299D01*
X49025518Y-63274188D01*
X48905820Y-63310498D01*
X48795506Y-63369463D01*
X48698815Y-63448815D01*
X48619463Y-63545506D01*
X48560498Y-63655820D01*
X48524188Y-63775518D01*
X48511928Y-63900000D01*
X47416006Y-63900000D01*
X47390256Y-63882795D01*
X47201898Y-63804774D01*
X47177897Y-63800000D01*
X47201898Y-63795226D01*
X47390256Y-63717205D01*
X47559774Y-63603937D01*
X47703937Y-63459774D01*
X47817205Y-63290256D01*
X47895226Y-63101898D01*
X47935000Y-62901939D01*
X47935000Y-62698061D01*
X47895226Y-62498102D01*
X47817205Y-62309744D01*
X47703937Y-62140226D01*
X47559774Y-61996063D01*
X47390256Y-61882795D01*
X47201898Y-61804774D01*
X47001939Y-61765000D01*
X46798061Y-61765000D01*
X46598102Y-61804774D01*
X46409744Y-61882795D01*
X46240226Y-61996063D01*
X46096063Y-62140226D01*
X45982795Y-62309744D01*
X45904774Y-62498102D01*
X45865000Y-62698061D01*
X38645172Y-62698061D01*
X38717205Y-62590256D01*
X38795226Y-62401898D01*
X38835000Y-62201939D01*
X38835000Y-61998061D01*
X38795226Y-61798102D01*
X38717205Y-61609744D01*
X38603937Y-61440226D01*
X38459774Y-61296063D01*
X38290256Y-61182795D01*
X38101898Y-61104774D01*
X37901939Y-61065000D01*
X37698061Y-61065000D01*
X37498102Y-61104774D01*
X37309744Y-61182795D01*
X37140226Y-61296063D01*
X36996063Y-61440226D01*
X36882795Y-61609744D01*
X36804774Y-61798102D01*
X36765000Y-61998061D01*
X33710000Y-61998061D01*
X33710000Y-57098061D01*
X34265000Y-57098061D01*
X34265000Y-57301939D01*
X34304774Y-57501898D01*
X34382795Y-57690256D01*
X34496063Y-57859774D01*
X34640226Y-58003937D01*
X34809744Y-58117205D01*
X34998102Y-58195226D01*
X35198061Y-58235000D01*
X35401939Y-58235000D01*
X35601898Y-58195226D01*
X35790256Y-58117205D01*
X35959774Y-58003937D01*
X36103937Y-57859774D01*
X36217205Y-57690256D01*
X36295226Y-57501898D01*
X36335000Y-57301939D01*
X36335000Y-57198061D01*
X39065000Y-57198061D01*
X39065000Y-57401939D01*
X39104774Y-57601898D01*
X39182795Y-57790256D01*
X39296063Y-57959774D01*
X39440226Y-58103937D01*
X39609744Y-58217205D01*
X39798102Y-58295226D01*
X39998061Y-58335000D01*
X40201939Y-58335000D01*
X40401898Y-58295226D01*
X40590256Y-58217205D01*
X40759774Y-58103937D01*
X40903937Y-57959774D01*
X41017205Y-57790256D01*
X41055393Y-57698061D01*
X47765000Y-57698061D01*
X47765000Y-57901939D01*
X47804774Y-58101898D01*
X47882795Y-58290256D01*
X47996063Y-58459774D01*
X48140226Y-58603937D01*
X48309744Y-58717205D01*
X48498102Y-58795226D01*
X48698061Y-58835000D01*
X48765000Y-58835000D01*
X48765000Y-58901939D01*
X48804774Y-59101898D01*
X48882795Y-59290256D01*
X48996063Y-59459774D01*
X49140226Y-59603937D01*
X49309744Y-59717205D01*
X49498102Y-59795226D01*
X49698061Y-59835000D01*
X49901939Y-59835000D01*
X50101898Y-59795226D01*
X50290256Y-59717205D01*
X50459774Y-59603937D01*
X50603937Y-59459774D01*
X50717205Y-59290256D01*
X50795226Y-59101898D01*
X50835000Y-58901939D01*
X50835000Y-58698061D01*
X50795226Y-58498102D01*
X50717205Y-58309744D01*
X50603937Y-58140226D01*
X50459774Y-57996063D01*
X50290256Y-57882795D01*
X50101898Y-57804774D01*
X49901939Y-57765000D01*
X49835000Y-57765000D01*
X49835000Y-57698061D01*
X49795226Y-57498102D01*
X49717205Y-57309744D01*
X49642582Y-57198061D01*
X52365000Y-57198061D01*
X52365000Y-57401939D01*
X52404774Y-57601898D01*
X52482795Y-57790256D01*
X52596063Y-57959774D01*
X52740226Y-58103937D01*
X52909744Y-58217205D01*
X53098102Y-58295226D01*
X53298061Y-58335000D01*
X53501939Y-58335000D01*
X53701898Y-58295226D01*
X53890256Y-58217205D01*
X54059774Y-58103937D01*
X54203937Y-57959774D01*
X54317205Y-57790256D01*
X54395226Y-57601898D01*
X54435000Y-57401939D01*
X54435000Y-57198061D01*
X54395226Y-56998102D01*
X54317205Y-56809744D01*
X54203937Y-56640226D01*
X54059774Y-56496063D01*
X53913104Y-56398061D01*
X60365000Y-56398061D01*
X60365000Y-56601939D01*
X60404774Y-56801898D01*
X60482795Y-56990256D01*
X60596063Y-57159774D01*
X60740226Y-57303937D01*
X60909744Y-57417205D01*
X61098102Y-57495226D01*
X61298061Y-57535000D01*
X61501939Y-57535000D01*
X61701898Y-57495226D01*
X61712350Y-57490897D01*
X61732795Y-57540256D01*
X61846063Y-57709774D01*
X61990226Y-57853937D01*
X62159744Y-57967205D01*
X62348102Y-58045226D01*
X62532217Y-58081849D01*
X62504774Y-58148102D01*
X62465000Y-58348061D01*
X62465000Y-58551939D01*
X62504774Y-58751898D01*
X62582795Y-58940256D01*
X62696063Y-59109774D01*
X62840226Y-59253937D01*
X63009744Y-59367205D01*
X63198102Y-59445226D01*
X63398061Y-59485000D01*
X63601939Y-59485000D01*
X63801898Y-59445226D01*
X63990256Y-59367205D01*
X64159774Y-59253937D01*
X64303937Y-59109774D01*
X64417205Y-58940256D01*
X64495226Y-58751898D01*
X64535000Y-58551939D01*
X64535000Y-58348061D01*
X64495226Y-58148102D01*
X64417205Y-57959744D01*
X64303937Y-57790226D01*
X64159774Y-57646063D01*
X63990256Y-57532795D01*
X63801898Y-57454774D01*
X63617783Y-57418151D01*
X63645226Y-57351898D01*
X63685000Y-57151939D01*
X63685000Y-56948061D01*
X63645226Y-56748102D01*
X63567205Y-56559744D01*
X63453937Y-56390226D01*
X63385000Y-56321289D01*
X63385000Y-55436104D01*
X63388556Y-55399999D01*
X63374365Y-55255914D01*
X63332337Y-55117368D01*
X63332337Y-55117367D01*
X63264087Y-54989680D01*
X63172237Y-54877762D01*
X63144192Y-54854746D01*
X62910001Y-54620555D01*
X62910001Y-54303710D01*
X62953937Y-54259774D01*
X63067205Y-54090256D01*
X63145226Y-53901898D01*
X63185000Y-53701939D01*
X63185000Y-53498061D01*
X63145226Y-53298102D01*
X63067205Y-53109744D01*
X62953937Y-52940226D01*
X62809774Y-52796063D01*
X62640256Y-52682795D01*
X62451898Y-52604774D01*
X62251939Y-52565000D01*
X62048061Y-52565000D01*
X61848102Y-52604774D01*
X61659744Y-52682795D01*
X61490226Y-52796063D01*
X61346063Y-52940226D01*
X61232795Y-53109744D01*
X61154774Y-53298102D01*
X61115000Y-53498061D01*
X61115000Y-53701939D01*
X61154774Y-53901898D01*
X61232795Y-54090256D01*
X61346063Y-54259774D01*
X61440002Y-54353713D01*
X61440002Y-54888886D01*
X61436445Y-54925001D01*
X61450636Y-55069086D01*
X61465283Y-55117368D01*
X61492665Y-55207634D01*
X61560915Y-55335321D01*
X61652764Y-55447239D01*
X61680809Y-55470255D01*
X61724825Y-55514271D01*
X61701898Y-55504774D01*
X61501939Y-55465000D01*
X61298061Y-55465000D01*
X61098102Y-55504774D01*
X60909744Y-55582795D01*
X60740226Y-55696063D01*
X60596063Y-55840226D01*
X60482795Y-56009744D01*
X60404774Y-56198102D01*
X60365000Y-56398061D01*
X53913104Y-56398061D01*
X53890256Y-56382795D01*
X53701898Y-56304774D01*
X53501939Y-56265000D01*
X53298061Y-56265000D01*
X53098102Y-56304774D01*
X52909744Y-56382795D01*
X52740226Y-56496063D01*
X52596063Y-56640226D01*
X52482795Y-56809744D01*
X52404774Y-56998102D01*
X52365000Y-57198061D01*
X49642582Y-57198061D01*
X49603937Y-57140226D01*
X49459774Y-56996063D01*
X49290256Y-56882795D01*
X49101898Y-56804774D01*
X48901939Y-56765000D01*
X48698061Y-56765000D01*
X48498102Y-56804774D01*
X48309744Y-56882795D01*
X48140226Y-56996063D01*
X47996063Y-57140226D01*
X47882795Y-57309744D01*
X47804774Y-57498102D01*
X47765000Y-57698061D01*
X41055393Y-57698061D01*
X41095226Y-57601898D01*
X41135000Y-57401939D01*
X41135000Y-57198061D01*
X41095226Y-56998102D01*
X41017205Y-56809744D01*
X40903937Y-56640226D01*
X40759774Y-56496063D01*
X40590256Y-56382795D01*
X40401898Y-56304774D01*
X40201939Y-56265000D01*
X39998061Y-56265000D01*
X39798102Y-56304774D01*
X39609744Y-56382795D01*
X39440226Y-56496063D01*
X39296063Y-56640226D01*
X39182795Y-56809744D01*
X39104774Y-56998102D01*
X39065000Y-57198061D01*
X36335000Y-57198061D01*
X36335000Y-57098061D01*
X36295226Y-56898102D01*
X36217205Y-56709744D01*
X36103937Y-56540226D01*
X35959774Y-56396063D01*
X35790256Y-56282795D01*
X35601898Y-56204774D01*
X35401939Y-56165000D01*
X35198061Y-56165000D01*
X34998102Y-56204774D01*
X34809744Y-56282795D01*
X34640226Y-56396063D01*
X34496063Y-56540226D01*
X34382795Y-56709744D01*
X34304774Y-56898102D01*
X34265000Y-57098061D01*
X33710000Y-57098061D01*
X33710000Y-50748061D01*
X63115000Y-50748061D01*
X63115000Y-50951939D01*
X63154774Y-51151898D01*
X63232795Y-51340256D01*
X63346063Y-51509774D01*
X63490226Y-51653937D01*
X63659744Y-51767205D01*
X63848102Y-51845226D01*
X64048061Y-51885000D01*
X64251939Y-51885000D01*
X64451898Y-51845226D01*
X64640256Y-51767205D01*
X64809774Y-51653937D01*
X64953937Y-51509774D01*
X65067205Y-51340256D01*
X65145226Y-51151898D01*
X65185000Y-50951939D01*
X65185000Y-50748061D01*
X65145226Y-50548102D01*
X65067205Y-50359744D01*
X64953937Y-50190226D01*
X64809774Y-50046063D01*
X64640256Y-49932795D01*
X64451898Y-49854774D01*
X64251939Y-49815000D01*
X64048061Y-49815000D01*
X63848102Y-49854774D01*
X63659744Y-49932795D01*
X63490226Y-50046063D01*
X63346063Y-50190226D01*
X63232795Y-50359744D01*
X63154774Y-50548102D01*
X63115000Y-50748061D01*
X33710000Y-50748061D01*
X33710000Y-45798061D01*
X35215000Y-45798061D01*
X35215000Y-46001939D01*
X35254774Y-46201898D01*
X35332795Y-46390256D01*
X35446063Y-46559774D01*
X35590226Y-46703937D01*
X35759744Y-46817205D01*
X35948102Y-46895226D01*
X36148061Y-46935000D01*
X36351939Y-46935000D01*
X36551898Y-46895226D01*
X36740256Y-46817205D01*
X36909774Y-46703937D01*
X37053937Y-46559774D01*
X37167205Y-46390256D01*
X37245226Y-46201898D01*
X37285000Y-46001939D01*
X37285000Y-45798061D01*
X37245226Y-45598102D01*
X37167205Y-45409744D01*
X37092582Y-45298061D01*
X55165000Y-45298061D01*
X55165000Y-45501939D01*
X55204774Y-45701898D01*
X55282795Y-45890256D01*
X55396063Y-46059774D01*
X55540226Y-46203937D01*
X55709744Y-46317205D01*
X55898102Y-46395226D01*
X56098061Y-46435000D01*
X56301939Y-46435000D01*
X56501898Y-46395226D01*
X56690256Y-46317205D01*
X56859774Y-46203937D01*
X57003937Y-46059774D01*
X57117205Y-45890256D01*
X57195226Y-45701898D01*
X57235000Y-45501939D01*
X57235000Y-45298061D01*
X57205164Y-45148061D01*
X58515000Y-45148061D01*
X58515000Y-45351939D01*
X58554774Y-45551898D01*
X58632795Y-45740256D01*
X58746063Y-45909774D01*
X58890226Y-46053937D01*
X59059744Y-46167205D01*
X59248102Y-46245226D01*
X59448061Y-46285000D01*
X59651939Y-46285000D01*
X59851898Y-46245226D01*
X60040256Y-46167205D01*
X60209774Y-46053937D01*
X60353937Y-45909774D01*
X60467205Y-45740256D01*
X60545226Y-45551898D01*
X60585000Y-45351939D01*
X60585000Y-45325157D01*
X62178136Y-43732022D01*
X62165000Y-43798061D01*
X62165000Y-44001939D01*
X62204774Y-44201898D01*
X62282795Y-44390256D01*
X62396063Y-44559774D01*
X62540226Y-44703937D01*
X62709744Y-44817205D01*
X62898102Y-44895226D01*
X63098061Y-44935000D01*
X63301939Y-44935000D01*
X63501898Y-44895226D01*
X63690256Y-44817205D01*
X63859774Y-44703937D01*
X64003937Y-44559774D01*
X64078581Y-44448061D01*
X69915000Y-44448061D01*
X69915000Y-44651939D01*
X69954774Y-44851898D01*
X70032795Y-45040256D01*
X70146063Y-45209774D01*
X70290226Y-45353937D01*
X70459744Y-45467205D01*
X70648102Y-45545226D01*
X70848061Y-45585000D01*
X71051939Y-45585000D01*
X71251898Y-45545226D01*
X71440256Y-45467205D01*
X71609774Y-45353937D01*
X71753937Y-45209774D01*
X71867205Y-45040256D01*
X71945226Y-44851898D01*
X71985000Y-44651939D01*
X71985000Y-44448061D01*
X71945226Y-44248102D01*
X71867205Y-44059744D01*
X71753937Y-43890226D01*
X71609774Y-43746063D01*
X71440256Y-43632795D01*
X71251898Y-43554774D01*
X71051939Y-43515000D01*
X70848061Y-43515000D01*
X70648102Y-43554774D01*
X70459744Y-43632795D01*
X70290226Y-43746063D01*
X70146063Y-43890226D01*
X70032795Y-44059744D01*
X69954774Y-44248102D01*
X69915000Y-44448061D01*
X64078581Y-44448061D01*
X64117205Y-44390256D01*
X64195226Y-44201898D01*
X64235000Y-44001939D01*
X64235000Y-43798061D01*
X64195226Y-43598102D01*
X64117205Y-43409744D01*
X64003937Y-43240226D01*
X63963711Y-43200000D01*
X75811928Y-43200000D01*
X75811928Y-45800000D01*
X75824188Y-45924482D01*
X75860498Y-46044180D01*
X75919463Y-46154494D01*
X75998815Y-46251185D01*
X76095506Y-46330537D01*
X76205820Y-46389502D01*
X76325518Y-46425812D01*
X76450000Y-46438072D01*
X79050000Y-46438072D01*
X79174482Y-46425812D01*
X79294180Y-46389502D01*
X79404494Y-46330537D01*
X79501185Y-46251185D01*
X79580537Y-46154494D01*
X79639502Y-46044180D01*
X79675812Y-45924482D01*
X79688072Y-45800000D01*
X79688072Y-43200000D01*
X79675812Y-43075518D01*
X79639502Y-42955820D01*
X79580537Y-42845506D01*
X79501185Y-42748815D01*
X79404494Y-42669463D01*
X79294180Y-42610498D01*
X79174482Y-42574188D01*
X79050000Y-42561928D01*
X76450000Y-42561928D01*
X76325518Y-42574188D01*
X76205820Y-42610498D01*
X76095506Y-42669463D01*
X75998815Y-42748815D01*
X75919463Y-42845506D01*
X75860498Y-42955820D01*
X75824188Y-43075518D01*
X75811928Y-43200000D01*
X63963711Y-43200000D01*
X63859774Y-43096063D01*
X63690256Y-42982795D01*
X63501898Y-42904774D01*
X63301939Y-42865000D01*
X63202565Y-42865000D01*
X63235000Y-42701939D01*
X63235000Y-42498061D01*
X63195226Y-42298102D01*
X63117205Y-42109744D01*
X63003937Y-41940226D01*
X62859774Y-41796063D01*
X62690256Y-41682795D01*
X62501898Y-41604774D01*
X62301939Y-41565000D01*
X62098061Y-41565000D01*
X61898102Y-41604774D01*
X61709744Y-41682795D01*
X61540226Y-41796063D01*
X61396063Y-41940226D01*
X61282795Y-42109744D01*
X61204774Y-42298102D01*
X61165000Y-42498061D01*
X61165000Y-42524842D01*
X59474843Y-44215000D01*
X59448061Y-44215000D01*
X59248102Y-44254774D01*
X59059744Y-44332795D01*
X58890226Y-44446063D01*
X58746063Y-44590226D01*
X58632795Y-44759744D01*
X58554774Y-44948102D01*
X58515000Y-45148061D01*
X57205164Y-45148061D01*
X57195226Y-45098102D01*
X57117205Y-44909744D01*
X57003937Y-44740226D01*
X56985000Y-44721289D01*
X56985000Y-41525157D01*
X57075157Y-41435000D01*
X57101939Y-41435000D01*
X57301898Y-41395226D01*
X57490256Y-41317205D01*
X57659774Y-41203937D01*
X57803937Y-41059774D01*
X57917205Y-40890256D01*
X57934201Y-40849224D01*
X76580381Y-40849224D01*
X76712317Y-41144312D01*
X77053045Y-41315159D01*
X77420557Y-41416250D01*
X77800729Y-41443701D01*
X78178951Y-41396457D01*
X78540690Y-41276333D01*
X78787683Y-41144312D01*
X78919619Y-40849224D01*
X77750000Y-39679605D01*
X76580381Y-40849224D01*
X57934201Y-40849224D01*
X57995226Y-40701898D01*
X58035000Y-40501939D01*
X58035000Y-40298061D01*
X57995226Y-40098102D01*
X57917205Y-39909744D01*
X57803937Y-39740226D01*
X57659774Y-39596063D01*
X57591927Y-39550729D01*
X75806299Y-39550729D01*
X75853543Y-39928951D01*
X75973667Y-40290690D01*
X76105688Y-40537683D01*
X76400776Y-40669619D01*
X77570395Y-39500000D01*
X77929605Y-39500000D01*
X79099224Y-40669619D01*
X79394312Y-40537683D01*
X79565159Y-40196955D01*
X79666250Y-39829443D01*
X79693701Y-39449271D01*
X79646457Y-39071049D01*
X79526333Y-38709310D01*
X79394312Y-38462317D01*
X79099224Y-38330381D01*
X77929605Y-39500000D01*
X77570395Y-39500000D01*
X76400776Y-38330381D01*
X76105688Y-38462317D01*
X75934841Y-38803045D01*
X75833750Y-39170557D01*
X75806299Y-39550729D01*
X57591927Y-39550729D01*
X57490256Y-39482795D01*
X57301898Y-39404774D01*
X57101939Y-39365000D01*
X56898061Y-39365000D01*
X56698102Y-39404774D01*
X56509744Y-39482795D01*
X56340226Y-39596063D01*
X56196063Y-39740226D01*
X56082795Y-39909744D01*
X56004774Y-40098102D01*
X55965000Y-40298061D01*
X55965000Y-40324843D01*
X55672185Y-40617658D01*
X55642237Y-40642236D01*
X55617659Y-40672184D01*
X55617655Y-40672188D01*
X55593304Y-40701860D01*
X55544139Y-40761767D01*
X55505177Y-40834660D01*
X55471246Y-40898141D01*
X55426359Y-41046114D01*
X55411203Y-41200000D01*
X55415001Y-41238563D01*
X55415000Y-44721289D01*
X55396063Y-44740226D01*
X55282795Y-44909744D01*
X55204774Y-45098102D01*
X55165000Y-45298061D01*
X37092582Y-45298061D01*
X37053937Y-45240226D01*
X36909774Y-45096063D01*
X36740256Y-44982795D01*
X36551898Y-44904774D01*
X36351939Y-44865000D01*
X36148061Y-44865000D01*
X35948102Y-44904774D01*
X35759744Y-44982795D01*
X35590226Y-45096063D01*
X35446063Y-45240226D01*
X35332795Y-45409744D01*
X35254774Y-45598102D01*
X35215000Y-45798061D01*
X33710000Y-45798061D01*
X33710000Y-43898061D01*
X49065000Y-43898061D01*
X49065000Y-44101939D01*
X49104774Y-44301898D01*
X49182795Y-44490256D01*
X49296063Y-44659774D01*
X49440226Y-44803937D01*
X49609744Y-44917205D01*
X49798102Y-44995226D01*
X49998061Y-45035000D01*
X50201939Y-45035000D01*
X50401898Y-44995226D01*
X50590256Y-44917205D01*
X50759774Y-44803937D01*
X50903937Y-44659774D01*
X51017205Y-44490256D01*
X51095226Y-44301898D01*
X51135000Y-44101939D01*
X51135000Y-43898061D01*
X51095226Y-43698102D01*
X51017205Y-43509744D01*
X50903937Y-43340226D01*
X50759774Y-43196063D01*
X50590256Y-43082795D01*
X50401898Y-43004774D01*
X50201939Y-42965000D01*
X49998061Y-42965000D01*
X49798102Y-43004774D01*
X49609744Y-43082795D01*
X49440226Y-43196063D01*
X49296063Y-43340226D01*
X49182795Y-43509744D01*
X49104774Y-43698102D01*
X49065000Y-43898061D01*
X33710000Y-43898061D01*
X33710000Y-41398061D01*
X50265000Y-41398061D01*
X50265000Y-41601939D01*
X50304774Y-41801898D01*
X50382795Y-41990256D01*
X50496063Y-42159774D01*
X50640226Y-42303937D01*
X50809744Y-42417205D01*
X50998102Y-42495226D01*
X51198061Y-42535000D01*
X51401939Y-42535000D01*
X51601898Y-42495226D01*
X51790256Y-42417205D01*
X51959774Y-42303937D01*
X52103937Y-42159774D01*
X52217205Y-41990256D01*
X52295226Y-41801898D01*
X52335000Y-41601939D01*
X52335000Y-41398061D01*
X52295226Y-41198102D01*
X52217205Y-41009744D01*
X52103937Y-40840226D01*
X51959774Y-40696063D01*
X51790256Y-40582795D01*
X51601898Y-40504774D01*
X51401939Y-40465000D01*
X51198061Y-40465000D01*
X50998102Y-40504774D01*
X50809744Y-40582795D01*
X50640226Y-40696063D01*
X50496063Y-40840226D01*
X50382795Y-41009744D01*
X50304774Y-41198102D01*
X50265000Y-41398061D01*
X33710000Y-41398061D01*
X33710000Y-38700890D01*
X34250048Y-38700890D01*
X34250048Y-38947110D01*
X34298083Y-39188598D01*
X34392307Y-39416074D01*
X34529099Y-39620798D01*
X34703202Y-39794901D01*
X34907926Y-39931693D01*
X35135402Y-40025917D01*
X35376890Y-40073952D01*
X35623110Y-40073952D01*
X35864598Y-40025917D01*
X36092074Y-39931693D01*
X36296798Y-39794901D01*
X36470901Y-39620798D01*
X36607693Y-39416074D01*
X36701917Y-39188598D01*
X36749952Y-38947110D01*
X36749952Y-38700890D01*
X36749390Y-38698061D01*
X50265000Y-38698061D01*
X50265000Y-38901939D01*
X50304774Y-39101898D01*
X50382795Y-39290256D01*
X50496063Y-39459774D01*
X50640226Y-39603937D01*
X50809744Y-39717205D01*
X50998102Y-39795226D01*
X51198061Y-39835000D01*
X51401939Y-39835000D01*
X51601898Y-39795226D01*
X51790256Y-39717205D01*
X51959774Y-39603937D01*
X52103937Y-39459774D01*
X52217205Y-39290256D01*
X52295226Y-39101898D01*
X52335000Y-38901939D01*
X52335000Y-38698061D01*
X52295226Y-38498102D01*
X52217205Y-38309744D01*
X52209399Y-38298061D01*
X70815000Y-38298061D01*
X70815000Y-38501939D01*
X70854774Y-38701898D01*
X70932795Y-38890256D01*
X71046063Y-39059774D01*
X71190226Y-39203937D01*
X71359744Y-39317205D01*
X71548102Y-39395226D01*
X71748061Y-39435000D01*
X71951939Y-39435000D01*
X72151898Y-39395226D01*
X72340256Y-39317205D01*
X72509774Y-39203937D01*
X72653937Y-39059774D01*
X72767205Y-38890256D01*
X72845226Y-38701898D01*
X72885000Y-38501939D01*
X72885000Y-38298061D01*
X72855704Y-38150776D01*
X76580381Y-38150776D01*
X77750000Y-39320395D01*
X78919619Y-38150776D01*
X78787683Y-37855688D01*
X78446955Y-37684841D01*
X78079443Y-37583750D01*
X77699271Y-37556299D01*
X77321049Y-37603543D01*
X76959310Y-37723667D01*
X76712317Y-37855688D01*
X76580381Y-38150776D01*
X72855704Y-38150776D01*
X72845226Y-38098102D01*
X72767205Y-37909744D01*
X72653937Y-37740226D01*
X72509774Y-37596063D01*
X72340256Y-37482795D01*
X72151898Y-37404774D01*
X71951939Y-37365000D01*
X71748061Y-37365000D01*
X71548102Y-37404774D01*
X71359744Y-37482795D01*
X71190226Y-37596063D01*
X71046063Y-37740226D01*
X70932795Y-37909744D01*
X70854774Y-38098102D01*
X70815000Y-38298061D01*
X52209399Y-38298061D01*
X52103937Y-38140226D01*
X51974042Y-38010331D01*
X52098061Y-38035000D01*
X52301939Y-38035000D01*
X52501898Y-37995226D01*
X52690256Y-37917205D01*
X52859774Y-37803937D01*
X53003937Y-37659774D01*
X53117205Y-37490256D01*
X53195226Y-37301898D01*
X53235000Y-37101939D01*
X53235000Y-36898061D01*
X56565000Y-36898061D01*
X56565000Y-37101939D01*
X56604774Y-37301898D01*
X56682795Y-37490256D01*
X56796063Y-37659774D01*
X56940226Y-37803937D01*
X57109744Y-37917205D01*
X57298102Y-37995226D01*
X57498061Y-38035000D01*
X57701939Y-38035000D01*
X57901898Y-37995226D01*
X58090256Y-37917205D01*
X58259774Y-37803937D01*
X58403937Y-37659774D01*
X58517205Y-37490256D01*
X58595226Y-37301898D01*
X58635000Y-37101939D01*
X58635000Y-36898061D01*
X58595226Y-36698102D01*
X58517205Y-36509744D01*
X58403937Y-36340226D01*
X58259774Y-36196063D01*
X58090256Y-36082795D01*
X57901898Y-36004774D01*
X57701939Y-35965000D01*
X57498061Y-35965000D01*
X57298102Y-36004774D01*
X57109744Y-36082795D01*
X56940226Y-36196063D01*
X56796063Y-36340226D01*
X56682795Y-36509744D01*
X56604774Y-36698102D01*
X56565000Y-36898061D01*
X53235000Y-36898061D01*
X53195226Y-36698102D01*
X53117205Y-36509744D01*
X53003937Y-36340226D01*
X52859774Y-36196063D01*
X52690256Y-36082795D01*
X52501898Y-36004774D01*
X52301939Y-35965000D01*
X52098061Y-35965000D01*
X51898102Y-36004774D01*
X51709744Y-36082795D01*
X51540226Y-36196063D01*
X51396063Y-36340226D01*
X51282795Y-36509744D01*
X51204774Y-36698102D01*
X51165000Y-36898061D01*
X51165000Y-37101939D01*
X51204774Y-37301898D01*
X51282795Y-37490256D01*
X51396063Y-37659774D01*
X51525958Y-37789669D01*
X51401939Y-37765000D01*
X51198061Y-37765000D01*
X50998102Y-37804774D01*
X50809744Y-37882795D01*
X50640226Y-37996063D01*
X50496063Y-38140226D01*
X50382795Y-38309744D01*
X50304774Y-38498102D01*
X50265000Y-38698061D01*
X36749390Y-38698061D01*
X36701917Y-38459402D01*
X36607693Y-38231926D01*
X36470901Y-38027202D01*
X36296798Y-37853099D01*
X36092074Y-37716307D01*
X35864598Y-37622083D01*
X35623110Y-37574048D01*
X35376890Y-37574048D01*
X35135402Y-37622083D01*
X34907926Y-37716307D01*
X34703202Y-37853099D01*
X34529099Y-38027202D01*
X34392307Y-38231926D01*
X34298083Y-38459402D01*
X34250048Y-38700890D01*
X33710000Y-38700890D01*
X33710000Y-34338967D01*
X40465000Y-34338967D01*
X40465000Y-34661033D01*
X40527832Y-34976912D01*
X40651082Y-35274463D01*
X40830013Y-35542252D01*
X41057748Y-35769987D01*
X41325537Y-35948918D01*
X41623088Y-36072168D01*
X41938967Y-36135000D01*
X42261033Y-36135000D01*
X42576912Y-36072168D01*
X42874463Y-35948918D01*
X43142252Y-35769987D01*
X43276826Y-35635413D01*
X45644192Y-35635413D01*
X45739956Y-35899814D01*
X46029571Y-36040704D01*
X46341108Y-36122384D01*
X46662595Y-36141718D01*
X46981675Y-36097961D01*
X47286088Y-35992795D01*
X47460044Y-35899814D01*
X47555808Y-35635413D01*
X46600000Y-34679605D01*
X45644192Y-35635413D01*
X43276826Y-35635413D01*
X43369987Y-35542252D01*
X43548918Y-35274463D01*
X43672168Y-34976912D01*
X43735000Y-34661033D01*
X43735000Y-34562595D01*
X44958282Y-34562595D01*
X45002039Y-34881675D01*
X45107205Y-35186088D01*
X45200186Y-35360044D01*
X45464587Y-35455808D01*
X46420395Y-34500000D01*
X46779605Y-34500000D01*
X47735413Y-35455808D01*
X47999814Y-35360044D01*
X48140704Y-35070429D01*
X48196690Y-34856891D01*
X49738519Y-34856891D01*
X49835843Y-35131252D01*
X49984822Y-35381355D01*
X50179731Y-35597588D01*
X50413080Y-35771641D01*
X50675901Y-35896825D01*
X50823110Y-35941476D01*
X51053000Y-35820155D01*
X51053000Y-34627000D01*
X49859186Y-34627000D01*
X49738519Y-34856891D01*
X48196690Y-34856891D01*
X48222384Y-34758892D01*
X48241718Y-34437405D01*
X48201360Y-34143109D01*
X49738519Y-34143109D01*
X49859186Y-34373000D01*
X51053000Y-34373000D01*
X51053000Y-33179845D01*
X51307000Y-33179845D01*
X51307000Y-34373000D01*
X51327000Y-34373000D01*
X51327000Y-34627000D01*
X51307000Y-34627000D01*
X51307000Y-35820155D01*
X51536890Y-35941476D01*
X51684099Y-35896825D01*
X51946920Y-35771641D01*
X52180269Y-35597588D01*
X52375178Y-35381355D01*
X52444805Y-35264466D01*
X52566525Y-35446632D01*
X52773368Y-35653475D01*
X53016589Y-35815990D01*
X53286842Y-35927932D01*
X53573740Y-35985000D01*
X53866260Y-35985000D01*
X54153158Y-35927932D01*
X54423411Y-35815990D01*
X54666632Y-35653475D01*
X54873475Y-35446632D01*
X54990000Y-35272240D01*
X55106525Y-35446632D01*
X55313368Y-35653475D01*
X55556589Y-35815990D01*
X55826842Y-35927932D01*
X56113740Y-35985000D01*
X56406260Y-35985000D01*
X56693158Y-35927932D01*
X56963411Y-35815990D01*
X57206632Y-35653475D01*
X57338487Y-35521620D01*
X57360498Y-35594180D01*
X57419463Y-35704494D01*
X57498815Y-35801185D01*
X57595506Y-35880537D01*
X57705820Y-35939502D01*
X57825518Y-35975812D01*
X57950000Y-35988072D01*
X59650000Y-35988072D01*
X59774482Y-35975812D01*
X59894180Y-35939502D01*
X60004494Y-35880537D01*
X60101185Y-35801185D01*
X60180537Y-35704494D01*
X60239502Y-35594180D01*
X60275812Y-35474482D01*
X60288072Y-35350000D01*
X60288072Y-34876890D01*
X79424048Y-34876890D01*
X79424048Y-35123110D01*
X79472083Y-35364598D01*
X79566307Y-35592074D01*
X79703099Y-35796798D01*
X79877202Y-35970901D01*
X80081926Y-36107693D01*
X80309402Y-36201917D01*
X80550890Y-36249952D01*
X80797110Y-36249952D01*
X81038598Y-36201917D01*
X81266074Y-36107693D01*
X81470798Y-35970901D01*
X81644901Y-35796798D01*
X81781693Y-35592074D01*
X81875917Y-35364598D01*
X81923952Y-35123110D01*
X81923952Y-34876890D01*
X81875917Y-34635402D01*
X81781693Y-34407926D01*
X81644901Y-34203202D01*
X81470798Y-34029099D01*
X81266074Y-33892307D01*
X81038598Y-33798083D01*
X80797110Y-33750048D01*
X80550890Y-33750048D01*
X80309402Y-33798083D01*
X80081926Y-33892307D01*
X79877202Y-34029099D01*
X79703099Y-34203202D01*
X79566307Y-34407926D01*
X79472083Y-34635402D01*
X79424048Y-34876890D01*
X60288072Y-34876890D01*
X60288072Y-33650000D01*
X60275812Y-33525518D01*
X60239502Y-33405820D01*
X60180537Y-33295506D01*
X60101185Y-33198815D01*
X60004494Y-33119463D01*
X59894180Y-33060498D01*
X59774482Y-33024188D01*
X59650000Y-33011928D01*
X57950000Y-33011928D01*
X57825518Y-33024188D01*
X57705820Y-33060498D01*
X57595506Y-33119463D01*
X57498815Y-33198815D01*
X57419463Y-33295506D01*
X57360498Y-33405820D01*
X57338487Y-33478380D01*
X57206632Y-33346525D01*
X56963411Y-33184010D01*
X56693158Y-33072068D01*
X56406260Y-33015000D01*
X56113740Y-33015000D01*
X55826842Y-33072068D01*
X55556589Y-33184010D01*
X55313368Y-33346525D01*
X55106525Y-33553368D01*
X54990000Y-33727760D01*
X54873475Y-33553368D01*
X54666632Y-33346525D01*
X54423411Y-33184010D01*
X54153158Y-33072068D01*
X53866260Y-33015000D01*
X53573740Y-33015000D01*
X53286842Y-33072068D01*
X53016589Y-33184010D01*
X52773368Y-33346525D01*
X52566525Y-33553368D01*
X52444805Y-33735534D01*
X52375178Y-33618645D01*
X52180269Y-33402412D01*
X51946920Y-33228359D01*
X51684099Y-33103175D01*
X51536890Y-33058524D01*
X51307000Y-33179845D01*
X51053000Y-33179845D01*
X50823110Y-33058524D01*
X50675901Y-33103175D01*
X50413080Y-33228359D01*
X50179731Y-33402412D01*
X49984822Y-33618645D01*
X49835843Y-33868748D01*
X49738519Y-34143109D01*
X48201360Y-34143109D01*
X48197961Y-34118325D01*
X48092795Y-33813912D01*
X47999814Y-33639956D01*
X47735413Y-33544192D01*
X46779605Y-34500000D01*
X46420395Y-34500000D01*
X45464587Y-33544192D01*
X45200186Y-33639956D01*
X45059296Y-33929571D01*
X44977616Y-34241108D01*
X44958282Y-34562595D01*
X43735000Y-34562595D01*
X43735000Y-34338967D01*
X43672168Y-34023088D01*
X43548918Y-33725537D01*
X43369987Y-33457748D01*
X43276826Y-33364587D01*
X45644192Y-33364587D01*
X46600000Y-34320395D01*
X47555808Y-33364587D01*
X47460044Y-33100186D01*
X47170429Y-32959296D01*
X46858892Y-32877616D01*
X46537405Y-32858282D01*
X46218325Y-32902039D01*
X45913912Y-33007205D01*
X45739956Y-33100186D01*
X45644192Y-33364587D01*
X43276826Y-33364587D01*
X43142252Y-33230013D01*
X42874463Y-33051082D01*
X42576912Y-32927832D01*
X42261033Y-32865000D01*
X41938967Y-32865000D01*
X41623088Y-32927832D01*
X41325537Y-33051082D01*
X41057748Y-33230013D01*
X40830013Y-33457748D01*
X40651082Y-33725537D01*
X40527832Y-34023088D01*
X40465000Y-34338967D01*
X33710000Y-34338967D01*
X33710000Y-32900881D01*
X34478724Y-32900881D01*
X34838912Y-33390548D01*
X35502882Y-33750849D01*
X36224385Y-33974694D01*
X36975695Y-34053480D01*
X37727938Y-33984178D01*
X38452208Y-33769452D01*
X39120670Y-33417555D01*
X39161088Y-33390548D01*
X39521276Y-32900881D01*
X37000000Y-30379605D01*
X34478724Y-32900881D01*
X33710000Y-32900881D01*
X33710000Y-32183054D01*
X33782445Y-32320670D01*
X33809452Y-32361088D01*
X34299119Y-32721276D01*
X36820395Y-30200000D01*
X37179605Y-30200000D01*
X39700881Y-32721276D01*
X39728607Y-32700881D01*
X76278724Y-32700881D01*
X76638912Y-33190548D01*
X77302882Y-33550849D01*
X78024385Y-33774694D01*
X78775695Y-33853480D01*
X79527938Y-33784178D01*
X80252208Y-33569452D01*
X80920670Y-33217555D01*
X80961088Y-33190548D01*
X81321276Y-32700881D01*
X78800000Y-30179605D01*
X76278724Y-32700881D01*
X39728607Y-32700881D01*
X40190548Y-32361088D01*
X40550849Y-31697118D01*
X40774694Y-30975615D01*
X40853480Y-30224305D01*
X40830577Y-29975695D01*
X74946520Y-29975695D01*
X75015822Y-30727938D01*
X75230548Y-31452208D01*
X75582445Y-32120670D01*
X75609452Y-32161088D01*
X76099119Y-32521276D01*
X78620395Y-30000000D01*
X76099119Y-27478724D01*
X75609452Y-27838912D01*
X75249151Y-28502882D01*
X75025306Y-29224385D01*
X74946520Y-29975695D01*
X40830577Y-29975695D01*
X40784178Y-29472062D01*
X40569452Y-28747792D01*
X40217555Y-28079330D01*
X40190548Y-28038912D01*
X39700881Y-27678724D01*
X37179605Y-30200000D01*
X36820395Y-30200000D01*
X36806253Y-30185858D01*
X36985858Y-30006253D01*
X37000000Y-30020395D01*
X39521276Y-27499119D01*
X39161088Y-27009452D01*
X38609252Y-26710000D01*
X41087700Y-26710000D01*
X41057748Y-26730013D01*
G37*
%TD.AperFunction*%
%TD*%
M02*
