M48
; DRILL file {KiCad (5.1.9)-1} date 11/15/21 23:12:38
; FORMAT={3:3/ absolute / metric / suppress leading zeros}
; #@! TF.CreationDate,2021-11-15T23:12:38-03:00
; #@! TF.GenerationSoftware,Kicad,Pcbnew,(5.1.9)-1
FMAT,2
METRIC,TZ
T1C0.400
T2C0.500
T3C1.000
T4C1.100
T5C1.300
T6C3.200
%
G90
G05
T1
X34550Y-45900
X35000Y-67700
X35300Y-57200
X36250Y-45900
X37800Y-62100
X39000Y-66500
X39500Y-45700
X39550Y-49050
X40100Y-57300
X42500Y-70300
X42700Y-59800
X43400Y-69400
X43900Y-60700
X45400Y-69400
X46900Y-54400
X46900Y-62800
X46900Y-64800
X47800Y-55600
X48000Y-39800
X48000Y-44750
X48500Y-33750
X48600Y-49800
X48800Y-57800
X49500Y-38800
X49800Y-58800
X50100Y-44000
X50100Y-63200
X51300Y-38800
X51300Y-41500
X51800Y-56500
X52200Y-37000
X53400Y-57300
X53800Y-41200
X56200Y-45400
X57000Y-40400
X57600Y-37000
X58800Y-56500
X59550Y-45250
X61400Y-56500
X61500Y-59100
X62150Y-53600
X62200Y-42600
X62650Y-57050
X63200Y-43900
X63200Y-46300
X63500Y-58450
X63900Y-55200
X64150Y-50850
X64600Y-43300
X66700Y-51950
X67650Y-51950
X68600Y-51950
X68850Y-58100
X68900Y-53700
X69600Y-59800
X69650Y-55350
X70200Y-46300
X70200Y-56500
X70200Y-59000
X70250Y-48800
X70350Y-51200
X70950Y-44550
X71800Y-28200
X71800Y-33300
X71800Y-35800
X71850Y-38400
X72500Y-64950
X73500Y-63750
X74450Y-62450
X81300Y-50400
X81300Y-52900
X81300Y-58500
X81400Y-56000
T2
X34600Y-30200
X34800Y-71800
X35303Y-28503
X35303Y-31897
X35503Y-70103
X35503Y-73497
X37000Y-27800
X37000Y-32600
X37200Y-69400
X37200Y-74200
X38697Y-28503
X38697Y-31897
X38897Y-70103
X38897Y-73497
X39400Y-30200
X39600Y-71800
X76400Y-30000
X76600Y-71700
X77103Y-28303
X77103Y-31697
X77303Y-70003
X77303Y-73397
X78800Y-27600
X78800Y-32400
X79000Y-69300
X79000Y-74100
X80497Y-28303
X80497Y-31697
X80697Y-70003
X80697Y-73397
X81200Y-30000
X81400Y-71700
T3
X50000Y-64750
X50000Y-67290
X51180Y-34500
X52540Y-64750
X52540Y-67290
X53720Y-34500
X55080Y-64750
X55080Y-67290
X56260Y-34500
X57620Y-64750
X57620Y-67290
X58800Y-34500
X60160Y-64750
X60160Y-67290
X62700Y-64750
X62700Y-67290
X65240Y-64750
X65240Y-67290
X67780Y-64750
X67780Y-67290
T4
X42100Y-28000
X42100Y-34500
X46600Y-28000
X46600Y-34500
T5
X77750Y-39500
X77750Y-44500
T6
X37000Y-30200
X37200Y-71800
X78800Y-30000
X79000Y-71700
T0
M30
