%TF.GenerationSoftware,KiCad,Pcbnew,(5.1.9)-1*%
%TF.CreationDate,2021-11-15T23:12:41-03:00*%
%TF.ProjectId,RepeaterBoard,52657065-6174-4657-9242-6f6172642e6b,rev?*%
%TF.SameCoordinates,Original*%
%TF.FileFunction,Copper,L3,Inr*%
%TF.FilePolarity,Positive*%
%FSLAX46Y46*%
G04 Gerber Fmt 4.6, Leading zero omitted, Abs format (unit mm)*
G04 Created by KiCad (PCBNEW (5.1.9)-1) date 2021-11-15 23:12:41*
%MOMM*%
%LPD*%
G01*
G04 APERTURE LIST*
%TA.AperFunction,ComponentPad*%
%ADD10C,2.600000*%
%TD*%
%TA.AperFunction,ComponentPad*%
%ADD11R,2.600000X2.600000*%
%TD*%
%TA.AperFunction,ComponentPad*%
%ADD12R,1.700000X1.700000*%
%TD*%
%TA.AperFunction,ComponentPad*%
%ADD13O,1.700000X1.700000*%
%TD*%
%TA.AperFunction,ComponentPad*%
%ADD14C,2.000000*%
%TD*%
%TA.AperFunction,ComponentPad*%
%ADD15C,0.800000*%
%TD*%
%TA.AperFunction,ComponentPad*%
%ADD16C,6.400000*%
%TD*%
%TA.AperFunction,ViaPad*%
%ADD17C,0.800000*%
%TD*%
%TA.AperFunction,Conductor*%
%ADD18C,0.254000*%
%TD*%
%TA.AperFunction,Conductor*%
%ADD19C,0.100000*%
%TD*%
G04 APERTURE END LIST*
D10*
%TO.N,GND*%
%TO.C,J1*%
X77750000Y-39500000D03*
D11*
%TO.N,RX_RS232*%
X77750000Y-44500000D03*
%TD*%
D12*
%TO.N,+3V3*%
%TO.C,J2*%
X58800000Y-34500000D03*
D13*
%TO.N,I2C1_SCL*%
X56260000Y-34500000D03*
%TO.N,I2C1_SDA*%
X53720000Y-34500000D03*
%TO.N,GND*%
X51180000Y-34500000D03*
%TD*%
D12*
%TO.N,+5V*%
%TO.C,J3*%
X50000000Y-64750000D03*
D13*
%TO.N,ANODE_C_5V*%
X50000000Y-67290000D03*
%TO.N,DIGIT_1*%
X52540000Y-64750000D03*
%TO.N,ANODE_B_5V*%
X52540000Y-67290000D03*
%TO.N,DIGIT_2*%
X55080000Y-64750000D03*
%TO.N,ANODE_A_5V*%
X55080000Y-67290000D03*
%TO.N,DIGIT_3*%
X57620000Y-64750000D03*
%TO.N,ANODE_D_5V*%
X57620000Y-67290000D03*
%TO.N,DIGIT_4*%
X60160000Y-64750000D03*
%TO.N,ANODE_E_5V*%
X60160000Y-67290000D03*
%TO.N,DIGIT_5*%
X62700000Y-64750000D03*
%TO.N,ANODE_F_5V*%
X62700000Y-67290000D03*
%TO.N,DIGIT_6*%
X65240000Y-64750000D03*
%TO.N,ANODE_G_5V*%
X65240000Y-67290000D03*
%TO.N,GND*%
X67780000Y-64750000D03*
%TO.N,ANODE_DP*%
X67780000Y-67290000D03*
%TD*%
D14*
%TO.N,GND*%
%TO.C,SW1*%
X46600000Y-34500000D03*
%TO.N,NRST*%
X42100000Y-34500000D03*
%TO.N,GND*%
X46600000Y-28000000D03*
%TO.N,NRST*%
X42100000Y-28000000D03*
%TD*%
D15*
%TO.N,GND*%
%TO.C,H1*%
X38697056Y-28502944D03*
X37000000Y-27800000D03*
X35302944Y-28502944D03*
X34600000Y-30200000D03*
X35302944Y-31897056D03*
X37000000Y-32600000D03*
X38697056Y-31897056D03*
X39400000Y-30200000D03*
D16*
X37000000Y-30200000D03*
%TD*%
%TO.N,GND*%
%TO.C,H2*%
X78800000Y-30000000D03*
D15*
X81200000Y-30000000D03*
X80497056Y-31697056D03*
X78800000Y-32400000D03*
X77102944Y-31697056D03*
X76400000Y-30000000D03*
X77102944Y-28302944D03*
X78800000Y-27600000D03*
X80497056Y-28302944D03*
%TD*%
%TO.N,GND*%
%TO.C,H3*%
X38897056Y-70102944D03*
X37200000Y-69400000D03*
X35502944Y-70102944D03*
X34800000Y-71800000D03*
X35502944Y-73497056D03*
X37200000Y-74200000D03*
X38897056Y-73497056D03*
X39600000Y-71800000D03*
D16*
X37200000Y-71800000D03*
%TD*%
%TO.N,GND*%
%TO.C,H4*%
X79000000Y-71700000D03*
D15*
X81400000Y-71700000D03*
X80697056Y-73397056D03*
X79000000Y-74100000D03*
X77302944Y-73397056D03*
X76600000Y-71700000D03*
X77302944Y-70002944D03*
X79000000Y-69300000D03*
X80697056Y-70002944D03*
%TD*%
D17*
%TO.N,+5V*%
X46900000Y-62800000D03*
X46900000Y-64800000D03*
X50100000Y-63200000D03*
X70200000Y-59000000D03*
X45400000Y-69400000D03*
X70350000Y-51200000D03*
X69600000Y-59800000D03*
%TO.N,GND*%
X71800000Y-33300000D03*
X48000000Y-44750000D03*
X71800000Y-28200000D03*
X71800000Y-35800000D03*
X58800000Y-56500000D03*
X48000000Y-39800000D03*
X49500000Y-38800000D03*
X53800000Y-41200000D03*
X39550000Y-49050000D03*
X39500000Y-45700000D03*
X47800000Y-55600000D03*
X46900000Y-54400000D03*
X48600000Y-49800000D03*
X51800000Y-56500000D03*
X70200000Y-56500000D03*
X81300000Y-58500000D03*
X81300000Y-50400000D03*
X81300000Y-52900000D03*
X81400000Y-56000000D03*
X42700000Y-59800000D03*
X43900000Y-60700000D03*
X35000000Y-67700000D03*
X61500000Y-59100000D03*
X48500000Y-33750000D03*
X34550000Y-45900000D03*
X43400000Y-69400000D03*
X42500000Y-70300000D03*
X63200000Y-46300000D03*
X63900000Y-55200000D03*
X70200000Y-46300000D03*
X70250000Y-48800000D03*
X64600000Y-43300000D03*
X68850000Y-58100000D03*
X69650000Y-55350000D03*
%TO.N,+3V3*%
X63500000Y-58450000D03*
X64150000Y-50850000D03*
X70950000Y-44550000D03*
X50100000Y-44000000D03*
X61400000Y-56500000D03*
X48800000Y-57800000D03*
X49800000Y-58800000D03*
X39000000Y-66500000D03*
X36250000Y-45900000D03*
X35300000Y-57200000D03*
X37800000Y-62100000D03*
X40100000Y-57300000D03*
X57600000Y-37000000D03*
X52200000Y-37000000D03*
X51300000Y-38800000D03*
X51300000Y-41500000D03*
X53400000Y-57300000D03*
X71850000Y-38400000D03*
X63200000Y-43900000D03*
X68900000Y-53700000D03*
%TO.N,NRST*%
X56200000Y-45400000D03*
X57000000Y-40400000D03*
%TO.N,STATUS*%
X59550000Y-45250000D03*
X62200000Y-42600000D03*
%TO.N,ANODE_DP*%
X62150000Y-53600000D03*
X62650000Y-57050000D03*
%TO.N,ANODE_A_5V*%
X66700000Y-51950000D03*
X72500000Y-64950000D03*
%TO.N,ANODE_B_5V*%
X67650000Y-51950000D03*
X73500000Y-63750000D03*
%TO.N,ANODE_C_5V*%
X68600000Y-51950000D03*
X74450000Y-62450000D03*
%TD*%
D18*
%TO.N,+3V3*%
X41062848Y-26736227D02*
X40836227Y-26962848D01*
X40658172Y-27229327D01*
X40535525Y-27525422D01*
X40473000Y-27839755D01*
X40473000Y-28160245D01*
X40535525Y-28474578D01*
X40658172Y-28770673D01*
X40836227Y-29037152D01*
X41062848Y-29263773D01*
X41329327Y-29441828D01*
X41625422Y-29564475D01*
X41939755Y-29627000D01*
X42260245Y-29627000D01*
X42574578Y-29564475D01*
X42870673Y-29441828D01*
X43137152Y-29263773D01*
X43363773Y-29037152D01*
X43541828Y-28770673D01*
X43664475Y-28474578D01*
X43727000Y-28160245D01*
X43727000Y-27839755D01*
X43664475Y-27525422D01*
X43541828Y-27229327D01*
X43363773Y-26962848D01*
X43137152Y-26736227D01*
X43085928Y-26702000D01*
X45614072Y-26702000D01*
X45562848Y-26736227D01*
X45336227Y-26962848D01*
X45158172Y-27229327D01*
X45035525Y-27525422D01*
X44973000Y-27839755D01*
X44973000Y-28160245D01*
X45035525Y-28474578D01*
X45158172Y-28770673D01*
X45336227Y-29037152D01*
X45562848Y-29263773D01*
X45829327Y-29441828D01*
X46125422Y-29564475D01*
X46439755Y-29627000D01*
X46760245Y-29627000D01*
X47074578Y-29564475D01*
X47370673Y-29441828D01*
X47637152Y-29263773D01*
X47863773Y-29037152D01*
X48041828Y-28770673D01*
X48164475Y-28474578D01*
X48227000Y-28160245D01*
X48227000Y-28098849D01*
X70773000Y-28098849D01*
X70773000Y-28301151D01*
X70812467Y-28499565D01*
X70889885Y-28686467D01*
X71002277Y-28854674D01*
X71145326Y-28997723D01*
X71313533Y-29110115D01*
X71500435Y-29187533D01*
X71698849Y-29227000D01*
X71901151Y-29227000D01*
X72099565Y-29187533D01*
X72286467Y-29110115D01*
X72454674Y-28997723D01*
X72597723Y-28854674D01*
X72710115Y-28686467D01*
X72787533Y-28499565D01*
X72827000Y-28301151D01*
X72827000Y-28098849D01*
X72787533Y-27900435D01*
X72710115Y-27713533D01*
X72597723Y-27545326D01*
X72454674Y-27402277D01*
X72286467Y-27289885D01*
X72099565Y-27212467D01*
X71901151Y-27173000D01*
X71698849Y-27173000D01*
X71500435Y-27212467D01*
X71313533Y-27289885D01*
X71145326Y-27402277D01*
X71002277Y-27545326D01*
X70889885Y-27713533D01*
X70812467Y-27900435D01*
X70773000Y-28098849D01*
X48227000Y-28098849D01*
X48227000Y-27839755D01*
X48164475Y-27525422D01*
X48041828Y-27229327D01*
X47863773Y-26962848D01*
X47637152Y-26736227D01*
X47585928Y-26702000D01*
X76847389Y-26702000D01*
X76360430Y-27027375D01*
X75827375Y-27560430D01*
X75408557Y-28187236D01*
X75120070Y-28883705D01*
X74973000Y-29623073D01*
X74973000Y-30376927D01*
X75120070Y-31116295D01*
X75408557Y-31812764D01*
X75827375Y-32439570D01*
X76360430Y-32972625D01*
X76987236Y-33391443D01*
X77683705Y-33679930D01*
X78423073Y-33827000D01*
X79176927Y-33827000D01*
X79916295Y-33679930D01*
X80612764Y-33391443D01*
X81239570Y-32972625D01*
X81772625Y-32439570D01*
X82191443Y-31812764D01*
X82298001Y-31555510D01*
X82298001Y-47873000D01*
X70750000Y-47873000D01*
X70725224Y-47875440D01*
X70711583Y-47879578D01*
X70549565Y-47812467D01*
X70351151Y-47773000D01*
X70148849Y-47773000D01*
X69950435Y-47812467D01*
X69763533Y-47889885D01*
X69595326Y-48002277D01*
X69452277Y-48145326D01*
X69339885Y-48313533D01*
X69262467Y-48500435D01*
X69223000Y-48698849D01*
X69223000Y-48901151D01*
X69262467Y-49099565D01*
X69339885Y-49286467D01*
X69373000Y-49336027D01*
X69373000Y-50875006D01*
X69362467Y-50900435D01*
X69323000Y-51098849D01*
X69323000Y-51220603D01*
X69254674Y-51152277D01*
X69086467Y-51039885D01*
X68899565Y-50962467D01*
X68701151Y-50923000D01*
X68498849Y-50923000D01*
X68300435Y-50962467D01*
X68125000Y-51035135D01*
X67949565Y-50962467D01*
X67751151Y-50923000D01*
X67548849Y-50923000D01*
X67350435Y-50962467D01*
X67175000Y-51035135D01*
X66999565Y-50962467D01*
X66801151Y-50923000D01*
X66598849Y-50923000D01*
X66400435Y-50962467D01*
X66213533Y-51039885D01*
X66045326Y-51152277D01*
X65902277Y-51295326D01*
X65789885Y-51463533D01*
X65712467Y-51650435D01*
X65673000Y-51848849D01*
X65673000Y-52051151D01*
X65712467Y-52249565D01*
X65789885Y-52436467D01*
X65902277Y-52604674D01*
X66045326Y-52747723D01*
X66213533Y-52860115D01*
X66400435Y-52937533D01*
X66598849Y-52977000D01*
X66801151Y-52977000D01*
X66999565Y-52937533D01*
X67175000Y-52864865D01*
X67350435Y-52937533D01*
X67548849Y-52977000D01*
X67751151Y-52977000D01*
X67949565Y-52937533D01*
X68125000Y-52864865D01*
X68300435Y-52937533D01*
X68498849Y-52977000D01*
X68701151Y-52977000D01*
X68899565Y-52937533D01*
X69086467Y-52860115D01*
X69254674Y-52747723D01*
X69373000Y-52629397D01*
X69373000Y-54357979D01*
X69350435Y-54362467D01*
X69325006Y-54373000D01*
X65000000Y-54373000D01*
X64975224Y-54375440D01*
X64951399Y-54382667D01*
X64929443Y-54394403D01*
X64910197Y-54410197D01*
X64894403Y-54429443D01*
X64882667Y-54451399D01*
X64875440Y-54475224D01*
X64873000Y-54500000D01*
X64873000Y-54865350D01*
X64810115Y-54713533D01*
X64697723Y-54545326D01*
X64554674Y-54402277D01*
X64386467Y-54289885D01*
X64199565Y-54212467D01*
X64001151Y-54173000D01*
X63798849Y-54173000D01*
X63600435Y-54212467D01*
X63413533Y-54289885D01*
X63245326Y-54402277D01*
X63102277Y-54545326D01*
X62989885Y-54713533D01*
X62912467Y-54900435D01*
X62873000Y-55098849D01*
X62873000Y-55301151D01*
X62912467Y-55499565D01*
X62989885Y-55686467D01*
X63102277Y-55854674D01*
X63245326Y-55997723D01*
X63413533Y-56110115D01*
X63600435Y-56187533D01*
X63798849Y-56227000D01*
X64001151Y-56227000D01*
X64199565Y-56187533D01*
X64386467Y-56110115D01*
X64554674Y-55997723D01*
X64697723Y-55854674D01*
X64810115Y-55686467D01*
X64873000Y-55534650D01*
X64873000Y-58688274D01*
X61456076Y-61373000D01*
X44700000Y-61373000D01*
X44677146Y-61375251D01*
X44697723Y-61354674D01*
X44810115Y-61186467D01*
X44887533Y-60999565D01*
X44927000Y-60801151D01*
X44927000Y-60598849D01*
X44887533Y-60400435D01*
X44810115Y-60213533D01*
X44697723Y-60045326D01*
X44554674Y-59902277D01*
X44386467Y-59789885D01*
X44199565Y-59712467D01*
X44001151Y-59673000D01*
X43798849Y-59673000D01*
X43724789Y-59687732D01*
X43687533Y-59500435D01*
X43610115Y-59313533D01*
X43497723Y-59145326D01*
X43354674Y-59002277D01*
X43349544Y-58998849D01*
X60473000Y-58998849D01*
X60473000Y-59201151D01*
X60512467Y-59399565D01*
X60589885Y-59586467D01*
X60702277Y-59754674D01*
X60845326Y-59897723D01*
X61013533Y-60010115D01*
X61200435Y-60087533D01*
X61398849Y-60127000D01*
X61601151Y-60127000D01*
X61799565Y-60087533D01*
X61986467Y-60010115D01*
X62154674Y-59897723D01*
X62297723Y-59754674D01*
X62410115Y-59586467D01*
X62487533Y-59399565D01*
X62527000Y-59201151D01*
X62527000Y-58998849D01*
X62487533Y-58800435D01*
X62410115Y-58613533D01*
X62297723Y-58445326D01*
X62154674Y-58302277D01*
X61986467Y-58189885D01*
X61799565Y-58112467D01*
X61601151Y-58073000D01*
X61398849Y-58073000D01*
X61200435Y-58112467D01*
X61013533Y-58189885D01*
X60845326Y-58302277D01*
X60702277Y-58445326D01*
X60589885Y-58613533D01*
X60512467Y-58800435D01*
X60473000Y-58998849D01*
X43349544Y-58998849D01*
X43186467Y-58889885D01*
X42999565Y-58812467D01*
X42801151Y-58773000D01*
X42598849Y-58773000D01*
X42400435Y-58812467D01*
X42213533Y-58889885D01*
X42045326Y-59002277D01*
X41902277Y-59145326D01*
X41789885Y-59313533D01*
X41712467Y-59500435D01*
X41673000Y-59698849D01*
X41673000Y-59901151D01*
X41712467Y-60099565D01*
X41789885Y-60286467D01*
X41902277Y-60454674D01*
X42045326Y-60597723D01*
X42213533Y-60710115D01*
X42400435Y-60787533D01*
X42598849Y-60827000D01*
X42801151Y-60827000D01*
X42875211Y-60812268D01*
X42912467Y-60999565D01*
X42989885Y-61186467D01*
X43102277Y-61354674D01*
X43245326Y-61497723D01*
X43413533Y-61610115D01*
X43600435Y-61687533D01*
X43798849Y-61727000D01*
X44001151Y-61727000D01*
X44199565Y-61687533D01*
X44386467Y-61610115D01*
X44533105Y-61512135D01*
X42897870Y-63724512D01*
X42885105Y-63745887D01*
X42876756Y-63769342D01*
X42873000Y-63800000D01*
X42873000Y-68516968D01*
X42745326Y-68602277D01*
X42602277Y-68745326D01*
X42489885Y-68913533D01*
X42412467Y-69100435D01*
X42377289Y-69277289D01*
X42200435Y-69312467D01*
X42013533Y-69389885D01*
X41845326Y-69502277D01*
X41702277Y-69645326D01*
X41589885Y-69813533D01*
X41512467Y-70000435D01*
X41473000Y-70198849D01*
X41473000Y-70401151D01*
X41512467Y-70599565D01*
X41589885Y-70786467D01*
X41702277Y-70954674D01*
X41845326Y-71097723D01*
X42013533Y-71210115D01*
X42200435Y-71287533D01*
X42398849Y-71327000D01*
X42601151Y-71327000D01*
X42799565Y-71287533D01*
X42873000Y-71257115D01*
X42873000Y-75298000D01*
X38755513Y-75298000D01*
X39012764Y-75191443D01*
X39639570Y-74772625D01*
X40172625Y-74239570D01*
X40591443Y-73612764D01*
X40879930Y-72916295D01*
X41027000Y-72176927D01*
X41027000Y-71423073D01*
X40879930Y-70683705D01*
X40591443Y-69987236D01*
X40172625Y-69360430D01*
X39639570Y-68827375D01*
X39012764Y-68408557D01*
X38316295Y-68120070D01*
X37576927Y-67973000D01*
X36823073Y-67973000D01*
X36083705Y-68120070D01*
X35905028Y-68194081D01*
X35910115Y-68186467D01*
X35987533Y-67999565D01*
X36027000Y-67801151D01*
X36027000Y-67598849D01*
X35987533Y-67400435D01*
X35910115Y-67213533D01*
X35797723Y-67045326D01*
X35654674Y-66902277D01*
X35486467Y-66789885D01*
X35299565Y-66712467D01*
X35101151Y-66673000D01*
X34898849Y-66673000D01*
X34700435Y-66712467D01*
X34513533Y-66789885D01*
X34345326Y-66902277D01*
X34202277Y-67045326D01*
X34089885Y-67213533D01*
X34012467Y-67400435D01*
X33973000Y-67598849D01*
X33973000Y-67801151D01*
X34012467Y-67999565D01*
X34089885Y-68186467D01*
X34202277Y-68354674D01*
X34345326Y-68497723D01*
X34513533Y-68610115D01*
X34700435Y-68687533D01*
X34898849Y-68727000D01*
X34910652Y-68727000D01*
X34760430Y-68827375D01*
X34227375Y-69360430D01*
X33808557Y-69987236D01*
X33702000Y-70244487D01*
X33702000Y-54298849D01*
X45873000Y-54298849D01*
X45873000Y-54501151D01*
X45912467Y-54699565D01*
X45989885Y-54886467D01*
X46102277Y-55054674D01*
X46245326Y-55197723D01*
X46413533Y-55310115D01*
X46600435Y-55387533D01*
X46787732Y-55424789D01*
X46773000Y-55498849D01*
X46773000Y-55701151D01*
X46812467Y-55899565D01*
X46889885Y-56086467D01*
X47002277Y-56254674D01*
X47145326Y-56397723D01*
X47313533Y-56510115D01*
X47500435Y-56587533D01*
X47698849Y-56627000D01*
X47901151Y-56627000D01*
X48099565Y-56587533D01*
X48286467Y-56510115D01*
X48452988Y-56398849D01*
X50773000Y-56398849D01*
X50773000Y-56601151D01*
X50812467Y-56799565D01*
X50889885Y-56986467D01*
X51002277Y-57154674D01*
X51145326Y-57297723D01*
X51313533Y-57410115D01*
X51500435Y-57487533D01*
X51698849Y-57527000D01*
X51901151Y-57527000D01*
X52099565Y-57487533D01*
X52286467Y-57410115D01*
X52454674Y-57297723D01*
X52597723Y-57154674D01*
X52710115Y-56986467D01*
X52787533Y-56799565D01*
X52827000Y-56601151D01*
X52827000Y-56398849D01*
X57773000Y-56398849D01*
X57773000Y-56601151D01*
X57812467Y-56799565D01*
X57889885Y-56986467D01*
X58002277Y-57154674D01*
X58145326Y-57297723D01*
X58313533Y-57410115D01*
X58500435Y-57487533D01*
X58698849Y-57527000D01*
X58901151Y-57527000D01*
X59099565Y-57487533D01*
X59286467Y-57410115D01*
X59454674Y-57297723D01*
X59597723Y-57154674D01*
X59710115Y-56986467D01*
X59725697Y-56948849D01*
X61623000Y-56948849D01*
X61623000Y-57151151D01*
X61662467Y-57349565D01*
X61739885Y-57536467D01*
X61852277Y-57704674D01*
X61995326Y-57847723D01*
X62163533Y-57960115D01*
X62350435Y-58037533D01*
X62548849Y-58077000D01*
X62751151Y-58077000D01*
X62949565Y-58037533D01*
X63136467Y-57960115D01*
X63304674Y-57847723D01*
X63447723Y-57704674D01*
X63560115Y-57536467D01*
X63637533Y-57349565D01*
X63677000Y-57151151D01*
X63677000Y-56948849D01*
X63637533Y-56750435D01*
X63560115Y-56563533D01*
X63447723Y-56395326D01*
X63304674Y-56252277D01*
X63136467Y-56139885D01*
X62949565Y-56062467D01*
X62751151Y-56023000D01*
X62548849Y-56023000D01*
X62350435Y-56062467D01*
X62163533Y-56139885D01*
X61995326Y-56252277D01*
X61852277Y-56395326D01*
X61739885Y-56563533D01*
X61662467Y-56750435D01*
X61623000Y-56948849D01*
X59725697Y-56948849D01*
X59787533Y-56799565D01*
X59827000Y-56601151D01*
X59827000Y-56398849D01*
X59787533Y-56200435D01*
X59710115Y-56013533D01*
X59597723Y-55845326D01*
X59454674Y-55702277D01*
X59286467Y-55589885D01*
X59099565Y-55512467D01*
X58901151Y-55473000D01*
X58698849Y-55473000D01*
X58500435Y-55512467D01*
X58313533Y-55589885D01*
X58145326Y-55702277D01*
X58002277Y-55845326D01*
X57889885Y-56013533D01*
X57812467Y-56200435D01*
X57773000Y-56398849D01*
X52827000Y-56398849D01*
X52787533Y-56200435D01*
X52710115Y-56013533D01*
X52597723Y-55845326D01*
X52454674Y-55702277D01*
X52286467Y-55589885D01*
X52099565Y-55512467D01*
X51901151Y-55473000D01*
X51698849Y-55473000D01*
X51500435Y-55512467D01*
X51313533Y-55589885D01*
X51145326Y-55702277D01*
X51002277Y-55845326D01*
X50889885Y-56013533D01*
X50812467Y-56200435D01*
X50773000Y-56398849D01*
X48452988Y-56398849D01*
X48454674Y-56397723D01*
X48597723Y-56254674D01*
X48710115Y-56086467D01*
X48787533Y-55899565D01*
X48827000Y-55701151D01*
X48827000Y-55498849D01*
X48787533Y-55300435D01*
X48710115Y-55113533D01*
X48597723Y-54945326D01*
X48454674Y-54802277D01*
X48286467Y-54689885D01*
X48099565Y-54612467D01*
X47912268Y-54575211D01*
X47927000Y-54501151D01*
X47927000Y-54298849D01*
X47887533Y-54100435D01*
X47810115Y-53913533D01*
X47697723Y-53745326D01*
X47554674Y-53602277D01*
X47399883Y-53498849D01*
X61123000Y-53498849D01*
X61123000Y-53701151D01*
X61162467Y-53899565D01*
X61239885Y-54086467D01*
X61352277Y-54254674D01*
X61495326Y-54397723D01*
X61663533Y-54510115D01*
X61850435Y-54587533D01*
X62048849Y-54627000D01*
X62251151Y-54627000D01*
X62449565Y-54587533D01*
X62636467Y-54510115D01*
X62804674Y-54397723D01*
X62947723Y-54254674D01*
X63060115Y-54086467D01*
X63137533Y-53899565D01*
X63177000Y-53701151D01*
X63177000Y-53498849D01*
X63137533Y-53300435D01*
X63060115Y-53113533D01*
X62947723Y-52945326D01*
X62804674Y-52802277D01*
X62636467Y-52689885D01*
X62449565Y-52612467D01*
X62251151Y-52573000D01*
X62048849Y-52573000D01*
X61850435Y-52612467D01*
X61663533Y-52689885D01*
X61495326Y-52802277D01*
X61352277Y-52945326D01*
X61239885Y-53113533D01*
X61162467Y-53300435D01*
X61123000Y-53498849D01*
X47399883Y-53498849D01*
X47386467Y-53489885D01*
X47199565Y-53412467D01*
X47001151Y-53373000D01*
X46798849Y-53373000D01*
X46600435Y-53412467D01*
X46413533Y-53489885D01*
X46245326Y-53602277D01*
X46102277Y-53745326D01*
X45989885Y-53913533D01*
X45912467Y-54100435D01*
X45873000Y-54298849D01*
X33702000Y-54298849D01*
X33702000Y-48948849D01*
X38523000Y-48948849D01*
X38523000Y-49151151D01*
X38562467Y-49349565D01*
X38639885Y-49536467D01*
X38752277Y-49704674D01*
X38895326Y-49847723D01*
X39063533Y-49960115D01*
X39250435Y-50037533D01*
X39448849Y-50077000D01*
X39651151Y-50077000D01*
X39849565Y-50037533D01*
X40036467Y-49960115D01*
X40204674Y-49847723D01*
X40347723Y-49704674D01*
X40351615Y-49698849D01*
X47573000Y-49698849D01*
X47573000Y-49901151D01*
X47612467Y-50099565D01*
X47689885Y-50286467D01*
X47802277Y-50454674D01*
X47945326Y-50597723D01*
X48113533Y-50710115D01*
X48300435Y-50787533D01*
X48498849Y-50827000D01*
X48701151Y-50827000D01*
X48899565Y-50787533D01*
X49086467Y-50710115D01*
X49254674Y-50597723D01*
X49397723Y-50454674D01*
X49510115Y-50286467D01*
X49587533Y-50099565D01*
X49627000Y-49901151D01*
X49627000Y-49698849D01*
X49587533Y-49500435D01*
X49510115Y-49313533D01*
X49397723Y-49145326D01*
X49254674Y-49002277D01*
X49086467Y-48889885D01*
X48899565Y-48812467D01*
X48701151Y-48773000D01*
X48498849Y-48773000D01*
X48300435Y-48812467D01*
X48113533Y-48889885D01*
X47945326Y-49002277D01*
X47802277Y-49145326D01*
X47689885Y-49313533D01*
X47612467Y-49500435D01*
X47573000Y-49698849D01*
X40351615Y-49698849D01*
X40460115Y-49536467D01*
X40537533Y-49349565D01*
X40577000Y-49151151D01*
X40577000Y-48948849D01*
X40537533Y-48750435D01*
X40460115Y-48563533D01*
X40347723Y-48395326D01*
X40204674Y-48252277D01*
X40036467Y-48139885D01*
X39849565Y-48062467D01*
X39651151Y-48023000D01*
X39448849Y-48023000D01*
X39250435Y-48062467D01*
X39063533Y-48139885D01*
X38895326Y-48252277D01*
X38752277Y-48395326D01*
X38639885Y-48563533D01*
X38562467Y-48750435D01*
X38523000Y-48948849D01*
X33702000Y-48948849D01*
X33702000Y-46479429D01*
X33752277Y-46554674D01*
X33895326Y-46697723D01*
X34063533Y-46810115D01*
X34250435Y-46887533D01*
X34448849Y-46927000D01*
X34651151Y-46927000D01*
X34849565Y-46887533D01*
X35036467Y-46810115D01*
X35204674Y-46697723D01*
X35347723Y-46554674D01*
X35460115Y-46386467D01*
X35537533Y-46199565D01*
X35577000Y-46001151D01*
X35577000Y-45798849D01*
X35537533Y-45600435D01*
X35536877Y-45598849D01*
X38473000Y-45598849D01*
X38473000Y-45801151D01*
X38512467Y-45999565D01*
X38589885Y-46186467D01*
X38702277Y-46354674D01*
X38845326Y-46497723D01*
X39013533Y-46610115D01*
X39200435Y-46687533D01*
X39398849Y-46727000D01*
X39601151Y-46727000D01*
X39799565Y-46687533D01*
X39986467Y-46610115D01*
X40154674Y-46497723D01*
X40297723Y-46354674D01*
X40410115Y-46186467D01*
X40487533Y-45999565D01*
X40527000Y-45801151D01*
X40527000Y-45598849D01*
X40487533Y-45400435D01*
X40410115Y-45213533D01*
X40297723Y-45045326D01*
X40154674Y-44902277D01*
X39986467Y-44789885D01*
X39799565Y-44712467D01*
X39601151Y-44673000D01*
X39398849Y-44673000D01*
X39200435Y-44712467D01*
X39013533Y-44789885D01*
X38845326Y-44902277D01*
X38702277Y-45045326D01*
X38589885Y-45213533D01*
X38512467Y-45400435D01*
X38473000Y-45598849D01*
X35536877Y-45598849D01*
X35460115Y-45413533D01*
X35347723Y-45245326D01*
X35204674Y-45102277D01*
X35036467Y-44989885D01*
X34849565Y-44912467D01*
X34651151Y-44873000D01*
X34448849Y-44873000D01*
X34250435Y-44912467D01*
X34063533Y-44989885D01*
X33895326Y-45102277D01*
X33752277Y-45245326D01*
X33702000Y-45320571D01*
X33702000Y-44648849D01*
X46973000Y-44648849D01*
X46973000Y-44851151D01*
X47012467Y-45049565D01*
X47089885Y-45236467D01*
X47202277Y-45404674D01*
X47345326Y-45547723D01*
X47513533Y-45660115D01*
X47700435Y-45737533D01*
X47898849Y-45777000D01*
X48101151Y-45777000D01*
X48299565Y-45737533D01*
X48486467Y-45660115D01*
X48654674Y-45547723D01*
X48797723Y-45404674D01*
X48868432Y-45298849D01*
X55173000Y-45298849D01*
X55173000Y-45501151D01*
X55212467Y-45699565D01*
X55289885Y-45886467D01*
X55402277Y-46054674D01*
X55545326Y-46197723D01*
X55713533Y-46310115D01*
X55900435Y-46387533D01*
X56098849Y-46427000D01*
X56301151Y-46427000D01*
X56499565Y-46387533D01*
X56686467Y-46310115D01*
X56854674Y-46197723D01*
X56997723Y-46054674D01*
X57110115Y-45886467D01*
X57187533Y-45699565D01*
X57227000Y-45501151D01*
X57227000Y-45298849D01*
X57197164Y-45148849D01*
X58523000Y-45148849D01*
X58523000Y-45351151D01*
X58562467Y-45549565D01*
X58639885Y-45736467D01*
X58752277Y-45904674D01*
X58895326Y-46047723D01*
X59063533Y-46160115D01*
X59250435Y-46237533D01*
X59448849Y-46277000D01*
X59651151Y-46277000D01*
X59849565Y-46237533D01*
X59942955Y-46198849D01*
X62173000Y-46198849D01*
X62173000Y-46401151D01*
X62212467Y-46599565D01*
X62289885Y-46786467D01*
X62402277Y-46954674D01*
X62545326Y-47097723D01*
X62713533Y-47210115D01*
X62900435Y-47287533D01*
X63098849Y-47327000D01*
X63301151Y-47327000D01*
X63499565Y-47287533D01*
X63686467Y-47210115D01*
X63854674Y-47097723D01*
X63997723Y-46954674D01*
X64110115Y-46786467D01*
X64187533Y-46599565D01*
X64227000Y-46401151D01*
X64227000Y-46198849D01*
X69173000Y-46198849D01*
X69173000Y-46401151D01*
X69212467Y-46599565D01*
X69289885Y-46786467D01*
X69402277Y-46954674D01*
X69545326Y-47097723D01*
X69713533Y-47210115D01*
X69900435Y-47287533D01*
X70098849Y-47327000D01*
X70301151Y-47327000D01*
X70499565Y-47287533D01*
X70686467Y-47210115D01*
X70854674Y-47097723D01*
X70997723Y-46954674D01*
X71110115Y-46786467D01*
X71187533Y-46599565D01*
X71227000Y-46401151D01*
X71227000Y-46198849D01*
X71187533Y-46000435D01*
X71110115Y-45813533D01*
X70997723Y-45645326D01*
X70854674Y-45502277D01*
X70686467Y-45389885D01*
X70499565Y-45312467D01*
X70301151Y-45273000D01*
X70098849Y-45273000D01*
X69900435Y-45312467D01*
X69713533Y-45389885D01*
X69545326Y-45502277D01*
X69402277Y-45645326D01*
X69289885Y-45813533D01*
X69212467Y-46000435D01*
X69173000Y-46198849D01*
X64227000Y-46198849D01*
X64187533Y-46000435D01*
X64110115Y-45813533D01*
X63997723Y-45645326D01*
X63854674Y-45502277D01*
X63686467Y-45389885D01*
X63499565Y-45312467D01*
X63301151Y-45273000D01*
X63098849Y-45273000D01*
X62900435Y-45312467D01*
X62713533Y-45389885D01*
X62545326Y-45502277D01*
X62402277Y-45645326D01*
X62289885Y-45813533D01*
X62212467Y-46000435D01*
X62173000Y-46198849D01*
X59942955Y-46198849D01*
X60036467Y-46160115D01*
X60204674Y-46047723D01*
X60347723Y-45904674D01*
X60460115Y-45736467D01*
X60537533Y-45549565D01*
X60577000Y-45351151D01*
X60577000Y-45148849D01*
X60537533Y-44950435D01*
X60460115Y-44763533D01*
X60347723Y-44595326D01*
X60204674Y-44452277D01*
X60036467Y-44339885D01*
X59849565Y-44262467D01*
X59651151Y-44223000D01*
X59448849Y-44223000D01*
X59250435Y-44262467D01*
X59063533Y-44339885D01*
X58895326Y-44452277D01*
X58752277Y-44595326D01*
X58639885Y-44763533D01*
X58562467Y-44950435D01*
X58523000Y-45148849D01*
X57197164Y-45148849D01*
X57187533Y-45100435D01*
X57110115Y-44913533D01*
X56997723Y-44745326D01*
X56854674Y-44602277D01*
X56686467Y-44489885D01*
X56499565Y-44412467D01*
X56301151Y-44373000D01*
X56098849Y-44373000D01*
X55900435Y-44412467D01*
X55713533Y-44489885D01*
X55545326Y-44602277D01*
X55402277Y-44745326D01*
X55289885Y-44913533D01*
X55212467Y-45100435D01*
X55173000Y-45298849D01*
X48868432Y-45298849D01*
X48910115Y-45236467D01*
X48987533Y-45049565D01*
X49027000Y-44851151D01*
X49027000Y-44648849D01*
X48987533Y-44450435D01*
X48910115Y-44263533D01*
X48797723Y-44095326D01*
X48654674Y-43952277D01*
X48486467Y-43839885D01*
X48299565Y-43762467D01*
X48101151Y-43723000D01*
X47898849Y-43723000D01*
X47700435Y-43762467D01*
X47513533Y-43839885D01*
X47345326Y-43952277D01*
X47202277Y-44095326D01*
X47089885Y-44263533D01*
X47012467Y-44450435D01*
X46973000Y-44648849D01*
X33702000Y-44648849D01*
X33702000Y-42498849D01*
X61173000Y-42498849D01*
X61173000Y-42701151D01*
X61212467Y-42899565D01*
X61289885Y-43086467D01*
X61402277Y-43254674D01*
X61545326Y-43397723D01*
X61713533Y-43510115D01*
X61900435Y-43587533D01*
X62098849Y-43627000D01*
X62301151Y-43627000D01*
X62499565Y-43587533D01*
X62686467Y-43510115D01*
X62854674Y-43397723D01*
X62997723Y-43254674D01*
X63035023Y-43198849D01*
X63573000Y-43198849D01*
X63573000Y-43401151D01*
X63612467Y-43599565D01*
X63689885Y-43786467D01*
X63802277Y-43954674D01*
X63945326Y-44097723D01*
X64113533Y-44210115D01*
X64300435Y-44287533D01*
X64498849Y-44327000D01*
X64701151Y-44327000D01*
X64899565Y-44287533D01*
X65086467Y-44210115D01*
X65254674Y-44097723D01*
X65397723Y-43954674D01*
X65510115Y-43786467D01*
X65587533Y-43599565D01*
X65627000Y-43401151D01*
X65627000Y-43200000D01*
X75819967Y-43200000D01*
X75819967Y-45800000D01*
X75832073Y-45922913D01*
X75867925Y-46041103D01*
X75926147Y-46150028D01*
X76004499Y-46245501D01*
X76099972Y-46323853D01*
X76208897Y-46382075D01*
X76327087Y-46417927D01*
X76450000Y-46430033D01*
X79050000Y-46430033D01*
X79172913Y-46417927D01*
X79291103Y-46382075D01*
X79400028Y-46323853D01*
X79495501Y-46245501D01*
X79573853Y-46150028D01*
X79632075Y-46041103D01*
X79667927Y-45922913D01*
X79680033Y-45800000D01*
X79680033Y-43200000D01*
X79667927Y-43077087D01*
X79632075Y-42958897D01*
X79573853Y-42849972D01*
X79495501Y-42754499D01*
X79400028Y-42676147D01*
X79291103Y-42617925D01*
X79172913Y-42582073D01*
X79050000Y-42569967D01*
X76450000Y-42569967D01*
X76327087Y-42582073D01*
X76208897Y-42617925D01*
X76099972Y-42676147D01*
X76004499Y-42754499D01*
X75926147Y-42849972D01*
X75867925Y-42958897D01*
X75832073Y-43077087D01*
X75819967Y-43200000D01*
X65627000Y-43200000D01*
X65627000Y-43198849D01*
X65587533Y-43000435D01*
X65510115Y-42813533D01*
X65397723Y-42645326D01*
X65254674Y-42502277D01*
X65086467Y-42389885D01*
X64899565Y-42312467D01*
X64701151Y-42273000D01*
X64498849Y-42273000D01*
X64300435Y-42312467D01*
X64113533Y-42389885D01*
X63945326Y-42502277D01*
X63802277Y-42645326D01*
X63689885Y-42813533D01*
X63612467Y-43000435D01*
X63573000Y-43198849D01*
X63035023Y-43198849D01*
X63110115Y-43086467D01*
X63187533Y-42899565D01*
X63227000Y-42701151D01*
X63227000Y-42498849D01*
X63187533Y-42300435D01*
X63110115Y-42113533D01*
X62997723Y-41945326D01*
X62854674Y-41802277D01*
X62686467Y-41689885D01*
X62499565Y-41612467D01*
X62301151Y-41573000D01*
X62098849Y-41573000D01*
X61900435Y-41612467D01*
X61713533Y-41689885D01*
X61545326Y-41802277D01*
X61402277Y-41945326D01*
X61289885Y-42113533D01*
X61212467Y-42300435D01*
X61173000Y-42498849D01*
X33702000Y-42498849D01*
X33702000Y-41098849D01*
X52773000Y-41098849D01*
X52773000Y-41301151D01*
X52812467Y-41499565D01*
X52889885Y-41686467D01*
X53002277Y-41854674D01*
X53145326Y-41997723D01*
X53313533Y-42110115D01*
X53500435Y-42187533D01*
X53698849Y-42227000D01*
X53901151Y-42227000D01*
X54099565Y-42187533D01*
X54286467Y-42110115D01*
X54454674Y-41997723D01*
X54597723Y-41854674D01*
X54710115Y-41686467D01*
X54787533Y-41499565D01*
X54827000Y-41301151D01*
X54827000Y-41098849D01*
X54787533Y-40900435D01*
X54710115Y-40713533D01*
X54597723Y-40545326D01*
X54454674Y-40402277D01*
X54299883Y-40298849D01*
X55973000Y-40298849D01*
X55973000Y-40501151D01*
X56012467Y-40699565D01*
X56089885Y-40886467D01*
X56202277Y-41054674D01*
X56345326Y-41197723D01*
X56513533Y-41310115D01*
X56700435Y-41387533D01*
X56898849Y-41427000D01*
X57101151Y-41427000D01*
X57299565Y-41387533D01*
X57486467Y-41310115D01*
X57654674Y-41197723D01*
X57797723Y-41054674D01*
X57910115Y-40886467D01*
X57987533Y-40699565D01*
X58027000Y-40501151D01*
X58027000Y-40298849D01*
X57987533Y-40100435D01*
X57910115Y-39913533D01*
X57797723Y-39745326D01*
X57654674Y-39602277D01*
X57486467Y-39489885D01*
X57299565Y-39412467D01*
X57101151Y-39373000D01*
X56898849Y-39373000D01*
X56700435Y-39412467D01*
X56513533Y-39489885D01*
X56345326Y-39602277D01*
X56202277Y-39745326D01*
X56089885Y-39913533D01*
X56012467Y-40100435D01*
X55973000Y-40298849D01*
X54299883Y-40298849D01*
X54286467Y-40289885D01*
X54099565Y-40212467D01*
X53901151Y-40173000D01*
X53698849Y-40173000D01*
X53500435Y-40212467D01*
X53313533Y-40289885D01*
X53145326Y-40402277D01*
X53002277Y-40545326D01*
X52889885Y-40713533D01*
X52812467Y-40900435D01*
X52773000Y-41098849D01*
X33702000Y-41098849D01*
X33702000Y-38701675D01*
X34258009Y-38701675D01*
X34258009Y-38946325D01*
X34305738Y-39186275D01*
X34399362Y-39412303D01*
X34535283Y-39615723D01*
X34708277Y-39788717D01*
X34911697Y-39924638D01*
X35137725Y-40018262D01*
X35377675Y-40065991D01*
X35622325Y-40065991D01*
X35862275Y-40018262D01*
X36088303Y-39924638D01*
X36291723Y-39788717D01*
X36381591Y-39698849D01*
X46973000Y-39698849D01*
X46973000Y-39901151D01*
X47012467Y-40099565D01*
X47089885Y-40286467D01*
X47202277Y-40454674D01*
X47345326Y-40597723D01*
X47513533Y-40710115D01*
X47700435Y-40787533D01*
X47898849Y-40827000D01*
X48101151Y-40827000D01*
X48299565Y-40787533D01*
X48486467Y-40710115D01*
X48654674Y-40597723D01*
X48797723Y-40454674D01*
X48910115Y-40286467D01*
X48987533Y-40099565D01*
X49027000Y-39901151D01*
X49027000Y-39715693D01*
X49200435Y-39787533D01*
X49398849Y-39827000D01*
X49601151Y-39827000D01*
X49799565Y-39787533D01*
X49986467Y-39710115D01*
X50154674Y-39597723D01*
X50297723Y-39454674D01*
X50394252Y-39310207D01*
X75823000Y-39310207D01*
X75823000Y-39689793D01*
X75897053Y-40062085D01*
X76042315Y-40412777D01*
X76253201Y-40728391D01*
X76521609Y-40996799D01*
X76837223Y-41207685D01*
X77187915Y-41352947D01*
X77560207Y-41427000D01*
X77939793Y-41427000D01*
X78312085Y-41352947D01*
X78662777Y-41207685D01*
X78978391Y-40996799D01*
X79246799Y-40728391D01*
X79457685Y-40412777D01*
X79602947Y-40062085D01*
X79677000Y-39689793D01*
X79677000Y-39310207D01*
X79602947Y-38937915D01*
X79457685Y-38587223D01*
X79246799Y-38271609D01*
X78978391Y-38003201D01*
X78662777Y-37792315D01*
X78312085Y-37647053D01*
X77939793Y-37573000D01*
X77560207Y-37573000D01*
X77187915Y-37647053D01*
X76837223Y-37792315D01*
X76521609Y-38003201D01*
X76253201Y-38271609D01*
X76042315Y-38587223D01*
X75897053Y-38937915D01*
X75823000Y-39310207D01*
X50394252Y-39310207D01*
X50410115Y-39286467D01*
X50487533Y-39099565D01*
X50527000Y-38901151D01*
X50527000Y-38698849D01*
X50487533Y-38500435D01*
X50410115Y-38313533D01*
X50297723Y-38145326D01*
X50154674Y-38002277D01*
X49986467Y-37889885D01*
X49799565Y-37812467D01*
X49601151Y-37773000D01*
X49398849Y-37773000D01*
X49200435Y-37812467D01*
X49013533Y-37889885D01*
X48845326Y-38002277D01*
X48702277Y-38145326D01*
X48589885Y-38313533D01*
X48512467Y-38500435D01*
X48473000Y-38698849D01*
X48473000Y-38884307D01*
X48299565Y-38812467D01*
X48101151Y-38773000D01*
X47898849Y-38773000D01*
X47700435Y-38812467D01*
X47513533Y-38889885D01*
X47345326Y-39002277D01*
X47202277Y-39145326D01*
X47089885Y-39313533D01*
X47012467Y-39500435D01*
X46973000Y-39698849D01*
X36381591Y-39698849D01*
X36464717Y-39615723D01*
X36600638Y-39412303D01*
X36694262Y-39186275D01*
X36741991Y-38946325D01*
X36741991Y-38701675D01*
X36694262Y-38461725D01*
X36600638Y-38235697D01*
X36464717Y-38032277D01*
X36291723Y-37859283D01*
X36088303Y-37723362D01*
X35862275Y-37629738D01*
X35622325Y-37582009D01*
X35377675Y-37582009D01*
X35137725Y-37629738D01*
X34911697Y-37723362D01*
X34708277Y-37859283D01*
X34535283Y-38032277D01*
X34399362Y-38235697D01*
X34305738Y-38461725D01*
X34258009Y-38701675D01*
X33702000Y-38701675D01*
X33702000Y-34339755D01*
X40473000Y-34339755D01*
X40473000Y-34660245D01*
X40535525Y-34974578D01*
X40658172Y-35270673D01*
X40836227Y-35537152D01*
X41062848Y-35763773D01*
X41329327Y-35941828D01*
X41625422Y-36064475D01*
X41939755Y-36127000D01*
X42260245Y-36127000D01*
X42574578Y-36064475D01*
X42870673Y-35941828D01*
X43137152Y-35763773D01*
X43363773Y-35537152D01*
X43541828Y-35270673D01*
X43664475Y-34974578D01*
X43727000Y-34660245D01*
X43727000Y-34339755D01*
X44973000Y-34339755D01*
X44973000Y-34660245D01*
X45035525Y-34974578D01*
X45158172Y-35270673D01*
X45336227Y-35537152D01*
X45562848Y-35763773D01*
X45829327Y-35941828D01*
X46125422Y-36064475D01*
X46439755Y-36127000D01*
X46760245Y-36127000D01*
X47074578Y-36064475D01*
X47370673Y-35941828D01*
X47637152Y-35763773D01*
X47863773Y-35537152D01*
X48041828Y-35270673D01*
X48164475Y-34974578D01*
X48211200Y-34739674D01*
X48398849Y-34777000D01*
X48601151Y-34777000D01*
X48799565Y-34737533D01*
X48986467Y-34660115D01*
X49154674Y-34547723D01*
X49297723Y-34404674D01*
X49331229Y-34354528D01*
X49703000Y-34354528D01*
X49703000Y-34645472D01*
X49759760Y-34930825D01*
X49871099Y-35199622D01*
X50032739Y-35441533D01*
X50238467Y-35647261D01*
X50480378Y-35808901D01*
X50749175Y-35920240D01*
X51034528Y-35977000D01*
X51325472Y-35977000D01*
X51610825Y-35920240D01*
X51879622Y-35808901D01*
X52121533Y-35647261D01*
X52327261Y-35441533D01*
X52450000Y-35257841D01*
X52572739Y-35441533D01*
X52778467Y-35647261D01*
X53020378Y-35808901D01*
X53289175Y-35920240D01*
X53574528Y-35977000D01*
X53865472Y-35977000D01*
X54150825Y-35920240D01*
X54419622Y-35808901D01*
X54661533Y-35647261D01*
X54867261Y-35441533D01*
X54990000Y-35257841D01*
X55112739Y-35441533D01*
X55318467Y-35647261D01*
X55560378Y-35808901D01*
X55829175Y-35920240D01*
X56114528Y-35977000D01*
X56405472Y-35977000D01*
X56690825Y-35920240D01*
X56959622Y-35808901D01*
X57201533Y-35647261D01*
X57335854Y-35512940D01*
X57360498Y-35594180D01*
X57419463Y-35704494D01*
X57498815Y-35801185D01*
X57595506Y-35880537D01*
X57705820Y-35939502D01*
X57825518Y-35975812D01*
X57950000Y-35988072D01*
X58514250Y-35985000D01*
X58673000Y-35826250D01*
X58673000Y-34627000D01*
X58927000Y-34627000D01*
X58927000Y-35826250D01*
X59085750Y-35985000D01*
X59650000Y-35988072D01*
X59774482Y-35975812D01*
X59894180Y-35939502D01*
X60004494Y-35880537D01*
X60101185Y-35801185D01*
X60180537Y-35704494D01*
X60183554Y-35698849D01*
X70773000Y-35698849D01*
X70773000Y-35901151D01*
X70812467Y-36099565D01*
X70889885Y-36286467D01*
X71002277Y-36454674D01*
X71145326Y-36597723D01*
X71313533Y-36710115D01*
X71500435Y-36787533D01*
X71698849Y-36827000D01*
X71901151Y-36827000D01*
X72099565Y-36787533D01*
X72286467Y-36710115D01*
X72454674Y-36597723D01*
X72597723Y-36454674D01*
X72710115Y-36286467D01*
X72787533Y-36099565D01*
X72827000Y-35901151D01*
X72827000Y-35698849D01*
X72787533Y-35500435D01*
X72710115Y-35313533D01*
X72597723Y-35145326D01*
X72454674Y-35002277D01*
X72286467Y-34889885D01*
X72256990Y-34877675D01*
X79432009Y-34877675D01*
X79432009Y-35122325D01*
X79479738Y-35362275D01*
X79573362Y-35588303D01*
X79709283Y-35791723D01*
X79882277Y-35964717D01*
X80085697Y-36100638D01*
X80311725Y-36194262D01*
X80551675Y-36241991D01*
X80796325Y-36241991D01*
X81036275Y-36194262D01*
X81262303Y-36100638D01*
X81465723Y-35964717D01*
X81638717Y-35791723D01*
X81774638Y-35588303D01*
X81868262Y-35362275D01*
X81915991Y-35122325D01*
X81915991Y-34877675D01*
X81868262Y-34637725D01*
X81774638Y-34411697D01*
X81638717Y-34208277D01*
X81465723Y-34035283D01*
X81262303Y-33899362D01*
X81036275Y-33805738D01*
X80796325Y-33758009D01*
X80551675Y-33758009D01*
X80311725Y-33805738D01*
X80085697Y-33899362D01*
X79882277Y-34035283D01*
X79709283Y-34208277D01*
X79573362Y-34411697D01*
X79479738Y-34637725D01*
X79432009Y-34877675D01*
X72256990Y-34877675D01*
X72099565Y-34812467D01*
X71901151Y-34773000D01*
X71698849Y-34773000D01*
X71500435Y-34812467D01*
X71313533Y-34889885D01*
X71145326Y-35002277D01*
X71002277Y-35145326D01*
X70889885Y-35313533D01*
X70812467Y-35500435D01*
X70773000Y-35698849D01*
X60183554Y-35698849D01*
X60239502Y-35594180D01*
X60275812Y-35474482D01*
X60288072Y-35350000D01*
X60285000Y-34785750D01*
X60126250Y-34627000D01*
X58927000Y-34627000D01*
X58673000Y-34627000D01*
X58653000Y-34627000D01*
X58653000Y-34373000D01*
X58673000Y-34373000D01*
X58673000Y-33173750D01*
X58927000Y-33173750D01*
X58927000Y-34373000D01*
X60126250Y-34373000D01*
X60285000Y-34214250D01*
X60288072Y-33650000D01*
X60275812Y-33525518D01*
X60239502Y-33405820D01*
X60180537Y-33295506D01*
X60101213Y-33198849D01*
X70773000Y-33198849D01*
X70773000Y-33401151D01*
X70812467Y-33599565D01*
X70889885Y-33786467D01*
X71002277Y-33954674D01*
X71145326Y-34097723D01*
X71313533Y-34210115D01*
X71500435Y-34287533D01*
X71698849Y-34327000D01*
X71901151Y-34327000D01*
X72099565Y-34287533D01*
X72286467Y-34210115D01*
X72454674Y-34097723D01*
X72597723Y-33954674D01*
X72710115Y-33786467D01*
X72787533Y-33599565D01*
X72827000Y-33401151D01*
X72827000Y-33198849D01*
X72787533Y-33000435D01*
X72710115Y-32813533D01*
X72597723Y-32645326D01*
X72454674Y-32502277D01*
X72286467Y-32389885D01*
X72099565Y-32312467D01*
X71901151Y-32273000D01*
X71698849Y-32273000D01*
X71500435Y-32312467D01*
X71313533Y-32389885D01*
X71145326Y-32502277D01*
X71002277Y-32645326D01*
X70889885Y-32813533D01*
X70812467Y-33000435D01*
X70773000Y-33198849D01*
X60101213Y-33198849D01*
X60101185Y-33198815D01*
X60004494Y-33119463D01*
X59894180Y-33060498D01*
X59774482Y-33024188D01*
X59650000Y-33011928D01*
X59085750Y-33015000D01*
X58927000Y-33173750D01*
X58673000Y-33173750D01*
X58514250Y-33015000D01*
X57950000Y-33011928D01*
X57825518Y-33024188D01*
X57705820Y-33060498D01*
X57595506Y-33119463D01*
X57498815Y-33198815D01*
X57419463Y-33295506D01*
X57360498Y-33405820D01*
X57335854Y-33487060D01*
X57201533Y-33352739D01*
X56959622Y-33191099D01*
X56690825Y-33079760D01*
X56405472Y-33023000D01*
X56114528Y-33023000D01*
X55829175Y-33079760D01*
X55560378Y-33191099D01*
X55318467Y-33352739D01*
X55112739Y-33558467D01*
X54990000Y-33742159D01*
X54867261Y-33558467D01*
X54661533Y-33352739D01*
X54419622Y-33191099D01*
X54150825Y-33079760D01*
X53865472Y-33023000D01*
X53574528Y-33023000D01*
X53289175Y-33079760D01*
X53020378Y-33191099D01*
X52778467Y-33352739D01*
X52572739Y-33558467D01*
X52450000Y-33742159D01*
X52327261Y-33558467D01*
X52121533Y-33352739D01*
X51879622Y-33191099D01*
X51610825Y-33079760D01*
X51325472Y-33023000D01*
X51034528Y-33023000D01*
X50749175Y-33079760D01*
X50480378Y-33191099D01*
X50238467Y-33352739D01*
X50032739Y-33558467D01*
X49871099Y-33800378D01*
X49759760Y-34069175D01*
X49703000Y-34354528D01*
X49331229Y-34354528D01*
X49410115Y-34236467D01*
X49487533Y-34049565D01*
X49527000Y-33851151D01*
X49527000Y-33648849D01*
X49487533Y-33450435D01*
X49410115Y-33263533D01*
X49297723Y-33095326D01*
X49154674Y-32952277D01*
X48986467Y-32839885D01*
X48799565Y-32762467D01*
X48601151Y-32723000D01*
X48398849Y-32723000D01*
X48200435Y-32762467D01*
X48013533Y-32839885D01*
X47845326Y-32952277D01*
X47702277Y-33095326D01*
X47617088Y-33222821D01*
X47370673Y-33058172D01*
X47074578Y-32935525D01*
X46760245Y-32873000D01*
X46439755Y-32873000D01*
X46125422Y-32935525D01*
X45829327Y-33058172D01*
X45562848Y-33236227D01*
X45336227Y-33462848D01*
X45158172Y-33729327D01*
X45035525Y-34025422D01*
X44973000Y-34339755D01*
X43727000Y-34339755D01*
X43664475Y-34025422D01*
X43541828Y-33729327D01*
X43363773Y-33462848D01*
X43137152Y-33236227D01*
X42870673Y-33058172D01*
X42574578Y-32935525D01*
X42260245Y-32873000D01*
X41939755Y-32873000D01*
X41625422Y-32935525D01*
X41329327Y-33058172D01*
X41062848Y-33236227D01*
X40836227Y-33462848D01*
X40658172Y-33729327D01*
X40535525Y-34025422D01*
X40473000Y-34339755D01*
X33702000Y-34339755D01*
X33702000Y-32152611D01*
X34027375Y-32639570D01*
X34560430Y-33172625D01*
X35187236Y-33591443D01*
X35883705Y-33879930D01*
X36623073Y-34027000D01*
X37376927Y-34027000D01*
X38116295Y-33879930D01*
X38812764Y-33591443D01*
X39439570Y-33172625D01*
X39972625Y-32639570D01*
X40391443Y-32012764D01*
X40679930Y-31316295D01*
X40827000Y-30576927D01*
X40827000Y-29823073D01*
X40679930Y-29083705D01*
X40391443Y-28387236D01*
X39972625Y-27760430D01*
X39439570Y-27227375D01*
X38812764Y-26808557D01*
X38555513Y-26702000D01*
X41114072Y-26702000D01*
X41062848Y-26736227D01*
%TA.AperFunction,Conductor*%
D19*
G36*
X41062848Y-26736227D02*
G01*
X40836227Y-26962848D01*
X40658172Y-27229327D01*
X40535525Y-27525422D01*
X40473000Y-27839755D01*
X40473000Y-28160245D01*
X40535525Y-28474578D01*
X40658172Y-28770673D01*
X40836227Y-29037152D01*
X41062848Y-29263773D01*
X41329327Y-29441828D01*
X41625422Y-29564475D01*
X41939755Y-29627000D01*
X42260245Y-29627000D01*
X42574578Y-29564475D01*
X42870673Y-29441828D01*
X43137152Y-29263773D01*
X43363773Y-29037152D01*
X43541828Y-28770673D01*
X43664475Y-28474578D01*
X43727000Y-28160245D01*
X43727000Y-27839755D01*
X43664475Y-27525422D01*
X43541828Y-27229327D01*
X43363773Y-26962848D01*
X43137152Y-26736227D01*
X43085928Y-26702000D01*
X45614072Y-26702000D01*
X45562848Y-26736227D01*
X45336227Y-26962848D01*
X45158172Y-27229327D01*
X45035525Y-27525422D01*
X44973000Y-27839755D01*
X44973000Y-28160245D01*
X45035525Y-28474578D01*
X45158172Y-28770673D01*
X45336227Y-29037152D01*
X45562848Y-29263773D01*
X45829327Y-29441828D01*
X46125422Y-29564475D01*
X46439755Y-29627000D01*
X46760245Y-29627000D01*
X47074578Y-29564475D01*
X47370673Y-29441828D01*
X47637152Y-29263773D01*
X47863773Y-29037152D01*
X48041828Y-28770673D01*
X48164475Y-28474578D01*
X48227000Y-28160245D01*
X48227000Y-28098849D01*
X70773000Y-28098849D01*
X70773000Y-28301151D01*
X70812467Y-28499565D01*
X70889885Y-28686467D01*
X71002277Y-28854674D01*
X71145326Y-28997723D01*
X71313533Y-29110115D01*
X71500435Y-29187533D01*
X71698849Y-29227000D01*
X71901151Y-29227000D01*
X72099565Y-29187533D01*
X72286467Y-29110115D01*
X72454674Y-28997723D01*
X72597723Y-28854674D01*
X72710115Y-28686467D01*
X72787533Y-28499565D01*
X72827000Y-28301151D01*
X72827000Y-28098849D01*
X72787533Y-27900435D01*
X72710115Y-27713533D01*
X72597723Y-27545326D01*
X72454674Y-27402277D01*
X72286467Y-27289885D01*
X72099565Y-27212467D01*
X71901151Y-27173000D01*
X71698849Y-27173000D01*
X71500435Y-27212467D01*
X71313533Y-27289885D01*
X71145326Y-27402277D01*
X71002277Y-27545326D01*
X70889885Y-27713533D01*
X70812467Y-27900435D01*
X70773000Y-28098849D01*
X48227000Y-28098849D01*
X48227000Y-27839755D01*
X48164475Y-27525422D01*
X48041828Y-27229327D01*
X47863773Y-26962848D01*
X47637152Y-26736227D01*
X47585928Y-26702000D01*
X76847389Y-26702000D01*
X76360430Y-27027375D01*
X75827375Y-27560430D01*
X75408557Y-28187236D01*
X75120070Y-28883705D01*
X74973000Y-29623073D01*
X74973000Y-30376927D01*
X75120070Y-31116295D01*
X75408557Y-31812764D01*
X75827375Y-32439570D01*
X76360430Y-32972625D01*
X76987236Y-33391443D01*
X77683705Y-33679930D01*
X78423073Y-33827000D01*
X79176927Y-33827000D01*
X79916295Y-33679930D01*
X80612764Y-33391443D01*
X81239570Y-32972625D01*
X81772625Y-32439570D01*
X82191443Y-31812764D01*
X82298001Y-31555510D01*
X82298001Y-47873000D01*
X70750000Y-47873000D01*
X70725224Y-47875440D01*
X70711583Y-47879578D01*
X70549565Y-47812467D01*
X70351151Y-47773000D01*
X70148849Y-47773000D01*
X69950435Y-47812467D01*
X69763533Y-47889885D01*
X69595326Y-48002277D01*
X69452277Y-48145326D01*
X69339885Y-48313533D01*
X69262467Y-48500435D01*
X69223000Y-48698849D01*
X69223000Y-48901151D01*
X69262467Y-49099565D01*
X69339885Y-49286467D01*
X69373000Y-49336027D01*
X69373000Y-50875006D01*
X69362467Y-50900435D01*
X69323000Y-51098849D01*
X69323000Y-51220603D01*
X69254674Y-51152277D01*
X69086467Y-51039885D01*
X68899565Y-50962467D01*
X68701151Y-50923000D01*
X68498849Y-50923000D01*
X68300435Y-50962467D01*
X68125000Y-51035135D01*
X67949565Y-50962467D01*
X67751151Y-50923000D01*
X67548849Y-50923000D01*
X67350435Y-50962467D01*
X67175000Y-51035135D01*
X66999565Y-50962467D01*
X66801151Y-50923000D01*
X66598849Y-50923000D01*
X66400435Y-50962467D01*
X66213533Y-51039885D01*
X66045326Y-51152277D01*
X65902277Y-51295326D01*
X65789885Y-51463533D01*
X65712467Y-51650435D01*
X65673000Y-51848849D01*
X65673000Y-52051151D01*
X65712467Y-52249565D01*
X65789885Y-52436467D01*
X65902277Y-52604674D01*
X66045326Y-52747723D01*
X66213533Y-52860115D01*
X66400435Y-52937533D01*
X66598849Y-52977000D01*
X66801151Y-52977000D01*
X66999565Y-52937533D01*
X67175000Y-52864865D01*
X67350435Y-52937533D01*
X67548849Y-52977000D01*
X67751151Y-52977000D01*
X67949565Y-52937533D01*
X68125000Y-52864865D01*
X68300435Y-52937533D01*
X68498849Y-52977000D01*
X68701151Y-52977000D01*
X68899565Y-52937533D01*
X69086467Y-52860115D01*
X69254674Y-52747723D01*
X69373000Y-52629397D01*
X69373000Y-54357979D01*
X69350435Y-54362467D01*
X69325006Y-54373000D01*
X65000000Y-54373000D01*
X64975224Y-54375440D01*
X64951399Y-54382667D01*
X64929443Y-54394403D01*
X64910197Y-54410197D01*
X64894403Y-54429443D01*
X64882667Y-54451399D01*
X64875440Y-54475224D01*
X64873000Y-54500000D01*
X64873000Y-54865350D01*
X64810115Y-54713533D01*
X64697723Y-54545326D01*
X64554674Y-54402277D01*
X64386467Y-54289885D01*
X64199565Y-54212467D01*
X64001151Y-54173000D01*
X63798849Y-54173000D01*
X63600435Y-54212467D01*
X63413533Y-54289885D01*
X63245326Y-54402277D01*
X63102277Y-54545326D01*
X62989885Y-54713533D01*
X62912467Y-54900435D01*
X62873000Y-55098849D01*
X62873000Y-55301151D01*
X62912467Y-55499565D01*
X62989885Y-55686467D01*
X63102277Y-55854674D01*
X63245326Y-55997723D01*
X63413533Y-56110115D01*
X63600435Y-56187533D01*
X63798849Y-56227000D01*
X64001151Y-56227000D01*
X64199565Y-56187533D01*
X64386467Y-56110115D01*
X64554674Y-55997723D01*
X64697723Y-55854674D01*
X64810115Y-55686467D01*
X64873000Y-55534650D01*
X64873000Y-58688274D01*
X61456076Y-61373000D01*
X44700000Y-61373000D01*
X44677146Y-61375251D01*
X44697723Y-61354674D01*
X44810115Y-61186467D01*
X44887533Y-60999565D01*
X44927000Y-60801151D01*
X44927000Y-60598849D01*
X44887533Y-60400435D01*
X44810115Y-60213533D01*
X44697723Y-60045326D01*
X44554674Y-59902277D01*
X44386467Y-59789885D01*
X44199565Y-59712467D01*
X44001151Y-59673000D01*
X43798849Y-59673000D01*
X43724789Y-59687732D01*
X43687533Y-59500435D01*
X43610115Y-59313533D01*
X43497723Y-59145326D01*
X43354674Y-59002277D01*
X43349544Y-58998849D01*
X60473000Y-58998849D01*
X60473000Y-59201151D01*
X60512467Y-59399565D01*
X60589885Y-59586467D01*
X60702277Y-59754674D01*
X60845326Y-59897723D01*
X61013533Y-60010115D01*
X61200435Y-60087533D01*
X61398849Y-60127000D01*
X61601151Y-60127000D01*
X61799565Y-60087533D01*
X61986467Y-60010115D01*
X62154674Y-59897723D01*
X62297723Y-59754674D01*
X62410115Y-59586467D01*
X62487533Y-59399565D01*
X62527000Y-59201151D01*
X62527000Y-58998849D01*
X62487533Y-58800435D01*
X62410115Y-58613533D01*
X62297723Y-58445326D01*
X62154674Y-58302277D01*
X61986467Y-58189885D01*
X61799565Y-58112467D01*
X61601151Y-58073000D01*
X61398849Y-58073000D01*
X61200435Y-58112467D01*
X61013533Y-58189885D01*
X60845326Y-58302277D01*
X60702277Y-58445326D01*
X60589885Y-58613533D01*
X60512467Y-58800435D01*
X60473000Y-58998849D01*
X43349544Y-58998849D01*
X43186467Y-58889885D01*
X42999565Y-58812467D01*
X42801151Y-58773000D01*
X42598849Y-58773000D01*
X42400435Y-58812467D01*
X42213533Y-58889885D01*
X42045326Y-59002277D01*
X41902277Y-59145326D01*
X41789885Y-59313533D01*
X41712467Y-59500435D01*
X41673000Y-59698849D01*
X41673000Y-59901151D01*
X41712467Y-60099565D01*
X41789885Y-60286467D01*
X41902277Y-60454674D01*
X42045326Y-60597723D01*
X42213533Y-60710115D01*
X42400435Y-60787533D01*
X42598849Y-60827000D01*
X42801151Y-60827000D01*
X42875211Y-60812268D01*
X42912467Y-60999565D01*
X42989885Y-61186467D01*
X43102277Y-61354674D01*
X43245326Y-61497723D01*
X43413533Y-61610115D01*
X43600435Y-61687533D01*
X43798849Y-61727000D01*
X44001151Y-61727000D01*
X44199565Y-61687533D01*
X44386467Y-61610115D01*
X44533105Y-61512135D01*
X42897870Y-63724512D01*
X42885105Y-63745887D01*
X42876756Y-63769342D01*
X42873000Y-63800000D01*
X42873000Y-68516968D01*
X42745326Y-68602277D01*
X42602277Y-68745326D01*
X42489885Y-68913533D01*
X42412467Y-69100435D01*
X42377289Y-69277289D01*
X42200435Y-69312467D01*
X42013533Y-69389885D01*
X41845326Y-69502277D01*
X41702277Y-69645326D01*
X41589885Y-69813533D01*
X41512467Y-70000435D01*
X41473000Y-70198849D01*
X41473000Y-70401151D01*
X41512467Y-70599565D01*
X41589885Y-70786467D01*
X41702277Y-70954674D01*
X41845326Y-71097723D01*
X42013533Y-71210115D01*
X42200435Y-71287533D01*
X42398849Y-71327000D01*
X42601151Y-71327000D01*
X42799565Y-71287533D01*
X42873000Y-71257115D01*
X42873000Y-75298000D01*
X38755513Y-75298000D01*
X39012764Y-75191443D01*
X39639570Y-74772625D01*
X40172625Y-74239570D01*
X40591443Y-73612764D01*
X40879930Y-72916295D01*
X41027000Y-72176927D01*
X41027000Y-71423073D01*
X40879930Y-70683705D01*
X40591443Y-69987236D01*
X40172625Y-69360430D01*
X39639570Y-68827375D01*
X39012764Y-68408557D01*
X38316295Y-68120070D01*
X37576927Y-67973000D01*
X36823073Y-67973000D01*
X36083705Y-68120070D01*
X35905028Y-68194081D01*
X35910115Y-68186467D01*
X35987533Y-67999565D01*
X36027000Y-67801151D01*
X36027000Y-67598849D01*
X35987533Y-67400435D01*
X35910115Y-67213533D01*
X35797723Y-67045326D01*
X35654674Y-66902277D01*
X35486467Y-66789885D01*
X35299565Y-66712467D01*
X35101151Y-66673000D01*
X34898849Y-66673000D01*
X34700435Y-66712467D01*
X34513533Y-66789885D01*
X34345326Y-66902277D01*
X34202277Y-67045326D01*
X34089885Y-67213533D01*
X34012467Y-67400435D01*
X33973000Y-67598849D01*
X33973000Y-67801151D01*
X34012467Y-67999565D01*
X34089885Y-68186467D01*
X34202277Y-68354674D01*
X34345326Y-68497723D01*
X34513533Y-68610115D01*
X34700435Y-68687533D01*
X34898849Y-68727000D01*
X34910652Y-68727000D01*
X34760430Y-68827375D01*
X34227375Y-69360430D01*
X33808557Y-69987236D01*
X33702000Y-70244487D01*
X33702000Y-54298849D01*
X45873000Y-54298849D01*
X45873000Y-54501151D01*
X45912467Y-54699565D01*
X45989885Y-54886467D01*
X46102277Y-55054674D01*
X46245326Y-55197723D01*
X46413533Y-55310115D01*
X46600435Y-55387533D01*
X46787732Y-55424789D01*
X46773000Y-55498849D01*
X46773000Y-55701151D01*
X46812467Y-55899565D01*
X46889885Y-56086467D01*
X47002277Y-56254674D01*
X47145326Y-56397723D01*
X47313533Y-56510115D01*
X47500435Y-56587533D01*
X47698849Y-56627000D01*
X47901151Y-56627000D01*
X48099565Y-56587533D01*
X48286467Y-56510115D01*
X48452988Y-56398849D01*
X50773000Y-56398849D01*
X50773000Y-56601151D01*
X50812467Y-56799565D01*
X50889885Y-56986467D01*
X51002277Y-57154674D01*
X51145326Y-57297723D01*
X51313533Y-57410115D01*
X51500435Y-57487533D01*
X51698849Y-57527000D01*
X51901151Y-57527000D01*
X52099565Y-57487533D01*
X52286467Y-57410115D01*
X52454674Y-57297723D01*
X52597723Y-57154674D01*
X52710115Y-56986467D01*
X52787533Y-56799565D01*
X52827000Y-56601151D01*
X52827000Y-56398849D01*
X57773000Y-56398849D01*
X57773000Y-56601151D01*
X57812467Y-56799565D01*
X57889885Y-56986467D01*
X58002277Y-57154674D01*
X58145326Y-57297723D01*
X58313533Y-57410115D01*
X58500435Y-57487533D01*
X58698849Y-57527000D01*
X58901151Y-57527000D01*
X59099565Y-57487533D01*
X59286467Y-57410115D01*
X59454674Y-57297723D01*
X59597723Y-57154674D01*
X59710115Y-56986467D01*
X59725697Y-56948849D01*
X61623000Y-56948849D01*
X61623000Y-57151151D01*
X61662467Y-57349565D01*
X61739885Y-57536467D01*
X61852277Y-57704674D01*
X61995326Y-57847723D01*
X62163533Y-57960115D01*
X62350435Y-58037533D01*
X62548849Y-58077000D01*
X62751151Y-58077000D01*
X62949565Y-58037533D01*
X63136467Y-57960115D01*
X63304674Y-57847723D01*
X63447723Y-57704674D01*
X63560115Y-57536467D01*
X63637533Y-57349565D01*
X63677000Y-57151151D01*
X63677000Y-56948849D01*
X63637533Y-56750435D01*
X63560115Y-56563533D01*
X63447723Y-56395326D01*
X63304674Y-56252277D01*
X63136467Y-56139885D01*
X62949565Y-56062467D01*
X62751151Y-56023000D01*
X62548849Y-56023000D01*
X62350435Y-56062467D01*
X62163533Y-56139885D01*
X61995326Y-56252277D01*
X61852277Y-56395326D01*
X61739885Y-56563533D01*
X61662467Y-56750435D01*
X61623000Y-56948849D01*
X59725697Y-56948849D01*
X59787533Y-56799565D01*
X59827000Y-56601151D01*
X59827000Y-56398849D01*
X59787533Y-56200435D01*
X59710115Y-56013533D01*
X59597723Y-55845326D01*
X59454674Y-55702277D01*
X59286467Y-55589885D01*
X59099565Y-55512467D01*
X58901151Y-55473000D01*
X58698849Y-55473000D01*
X58500435Y-55512467D01*
X58313533Y-55589885D01*
X58145326Y-55702277D01*
X58002277Y-55845326D01*
X57889885Y-56013533D01*
X57812467Y-56200435D01*
X57773000Y-56398849D01*
X52827000Y-56398849D01*
X52787533Y-56200435D01*
X52710115Y-56013533D01*
X52597723Y-55845326D01*
X52454674Y-55702277D01*
X52286467Y-55589885D01*
X52099565Y-55512467D01*
X51901151Y-55473000D01*
X51698849Y-55473000D01*
X51500435Y-55512467D01*
X51313533Y-55589885D01*
X51145326Y-55702277D01*
X51002277Y-55845326D01*
X50889885Y-56013533D01*
X50812467Y-56200435D01*
X50773000Y-56398849D01*
X48452988Y-56398849D01*
X48454674Y-56397723D01*
X48597723Y-56254674D01*
X48710115Y-56086467D01*
X48787533Y-55899565D01*
X48827000Y-55701151D01*
X48827000Y-55498849D01*
X48787533Y-55300435D01*
X48710115Y-55113533D01*
X48597723Y-54945326D01*
X48454674Y-54802277D01*
X48286467Y-54689885D01*
X48099565Y-54612467D01*
X47912268Y-54575211D01*
X47927000Y-54501151D01*
X47927000Y-54298849D01*
X47887533Y-54100435D01*
X47810115Y-53913533D01*
X47697723Y-53745326D01*
X47554674Y-53602277D01*
X47399883Y-53498849D01*
X61123000Y-53498849D01*
X61123000Y-53701151D01*
X61162467Y-53899565D01*
X61239885Y-54086467D01*
X61352277Y-54254674D01*
X61495326Y-54397723D01*
X61663533Y-54510115D01*
X61850435Y-54587533D01*
X62048849Y-54627000D01*
X62251151Y-54627000D01*
X62449565Y-54587533D01*
X62636467Y-54510115D01*
X62804674Y-54397723D01*
X62947723Y-54254674D01*
X63060115Y-54086467D01*
X63137533Y-53899565D01*
X63177000Y-53701151D01*
X63177000Y-53498849D01*
X63137533Y-53300435D01*
X63060115Y-53113533D01*
X62947723Y-52945326D01*
X62804674Y-52802277D01*
X62636467Y-52689885D01*
X62449565Y-52612467D01*
X62251151Y-52573000D01*
X62048849Y-52573000D01*
X61850435Y-52612467D01*
X61663533Y-52689885D01*
X61495326Y-52802277D01*
X61352277Y-52945326D01*
X61239885Y-53113533D01*
X61162467Y-53300435D01*
X61123000Y-53498849D01*
X47399883Y-53498849D01*
X47386467Y-53489885D01*
X47199565Y-53412467D01*
X47001151Y-53373000D01*
X46798849Y-53373000D01*
X46600435Y-53412467D01*
X46413533Y-53489885D01*
X46245326Y-53602277D01*
X46102277Y-53745326D01*
X45989885Y-53913533D01*
X45912467Y-54100435D01*
X45873000Y-54298849D01*
X33702000Y-54298849D01*
X33702000Y-48948849D01*
X38523000Y-48948849D01*
X38523000Y-49151151D01*
X38562467Y-49349565D01*
X38639885Y-49536467D01*
X38752277Y-49704674D01*
X38895326Y-49847723D01*
X39063533Y-49960115D01*
X39250435Y-50037533D01*
X39448849Y-50077000D01*
X39651151Y-50077000D01*
X39849565Y-50037533D01*
X40036467Y-49960115D01*
X40204674Y-49847723D01*
X40347723Y-49704674D01*
X40351615Y-49698849D01*
X47573000Y-49698849D01*
X47573000Y-49901151D01*
X47612467Y-50099565D01*
X47689885Y-50286467D01*
X47802277Y-50454674D01*
X47945326Y-50597723D01*
X48113533Y-50710115D01*
X48300435Y-50787533D01*
X48498849Y-50827000D01*
X48701151Y-50827000D01*
X48899565Y-50787533D01*
X49086467Y-50710115D01*
X49254674Y-50597723D01*
X49397723Y-50454674D01*
X49510115Y-50286467D01*
X49587533Y-50099565D01*
X49627000Y-49901151D01*
X49627000Y-49698849D01*
X49587533Y-49500435D01*
X49510115Y-49313533D01*
X49397723Y-49145326D01*
X49254674Y-49002277D01*
X49086467Y-48889885D01*
X48899565Y-48812467D01*
X48701151Y-48773000D01*
X48498849Y-48773000D01*
X48300435Y-48812467D01*
X48113533Y-48889885D01*
X47945326Y-49002277D01*
X47802277Y-49145326D01*
X47689885Y-49313533D01*
X47612467Y-49500435D01*
X47573000Y-49698849D01*
X40351615Y-49698849D01*
X40460115Y-49536467D01*
X40537533Y-49349565D01*
X40577000Y-49151151D01*
X40577000Y-48948849D01*
X40537533Y-48750435D01*
X40460115Y-48563533D01*
X40347723Y-48395326D01*
X40204674Y-48252277D01*
X40036467Y-48139885D01*
X39849565Y-48062467D01*
X39651151Y-48023000D01*
X39448849Y-48023000D01*
X39250435Y-48062467D01*
X39063533Y-48139885D01*
X38895326Y-48252277D01*
X38752277Y-48395326D01*
X38639885Y-48563533D01*
X38562467Y-48750435D01*
X38523000Y-48948849D01*
X33702000Y-48948849D01*
X33702000Y-46479429D01*
X33752277Y-46554674D01*
X33895326Y-46697723D01*
X34063533Y-46810115D01*
X34250435Y-46887533D01*
X34448849Y-46927000D01*
X34651151Y-46927000D01*
X34849565Y-46887533D01*
X35036467Y-46810115D01*
X35204674Y-46697723D01*
X35347723Y-46554674D01*
X35460115Y-46386467D01*
X35537533Y-46199565D01*
X35577000Y-46001151D01*
X35577000Y-45798849D01*
X35537533Y-45600435D01*
X35536877Y-45598849D01*
X38473000Y-45598849D01*
X38473000Y-45801151D01*
X38512467Y-45999565D01*
X38589885Y-46186467D01*
X38702277Y-46354674D01*
X38845326Y-46497723D01*
X39013533Y-46610115D01*
X39200435Y-46687533D01*
X39398849Y-46727000D01*
X39601151Y-46727000D01*
X39799565Y-46687533D01*
X39986467Y-46610115D01*
X40154674Y-46497723D01*
X40297723Y-46354674D01*
X40410115Y-46186467D01*
X40487533Y-45999565D01*
X40527000Y-45801151D01*
X40527000Y-45598849D01*
X40487533Y-45400435D01*
X40410115Y-45213533D01*
X40297723Y-45045326D01*
X40154674Y-44902277D01*
X39986467Y-44789885D01*
X39799565Y-44712467D01*
X39601151Y-44673000D01*
X39398849Y-44673000D01*
X39200435Y-44712467D01*
X39013533Y-44789885D01*
X38845326Y-44902277D01*
X38702277Y-45045326D01*
X38589885Y-45213533D01*
X38512467Y-45400435D01*
X38473000Y-45598849D01*
X35536877Y-45598849D01*
X35460115Y-45413533D01*
X35347723Y-45245326D01*
X35204674Y-45102277D01*
X35036467Y-44989885D01*
X34849565Y-44912467D01*
X34651151Y-44873000D01*
X34448849Y-44873000D01*
X34250435Y-44912467D01*
X34063533Y-44989885D01*
X33895326Y-45102277D01*
X33752277Y-45245326D01*
X33702000Y-45320571D01*
X33702000Y-44648849D01*
X46973000Y-44648849D01*
X46973000Y-44851151D01*
X47012467Y-45049565D01*
X47089885Y-45236467D01*
X47202277Y-45404674D01*
X47345326Y-45547723D01*
X47513533Y-45660115D01*
X47700435Y-45737533D01*
X47898849Y-45777000D01*
X48101151Y-45777000D01*
X48299565Y-45737533D01*
X48486467Y-45660115D01*
X48654674Y-45547723D01*
X48797723Y-45404674D01*
X48868432Y-45298849D01*
X55173000Y-45298849D01*
X55173000Y-45501151D01*
X55212467Y-45699565D01*
X55289885Y-45886467D01*
X55402277Y-46054674D01*
X55545326Y-46197723D01*
X55713533Y-46310115D01*
X55900435Y-46387533D01*
X56098849Y-46427000D01*
X56301151Y-46427000D01*
X56499565Y-46387533D01*
X56686467Y-46310115D01*
X56854674Y-46197723D01*
X56997723Y-46054674D01*
X57110115Y-45886467D01*
X57187533Y-45699565D01*
X57227000Y-45501151D01*
X57227000Y-45298849D01*
X57197164Y-45148849D01*
X58523000Y-45148849D01*
X58523000Y-45351151D01*
X58562467Y-45549565D01*
X58639885Y-45736467D01*
X58752277Y-45904674D01*
X58895326Y-46047723D01*
X59063533Y-46160115D01*
X59250435Y-46237533D01*
X59448849Y-46277000D01*
X59651151Y-46277000D01*
X59849565Y-46237533D01*
X59942955Y-46198849D01*
X62173000Y-46198849D01*
X62173000Y-46401151D01*
X62212467Y-46599565D01*
X62289885Y-46786467D01*
X62402277Y-46954674D01*
X62545326Y-47097723D01*
X62713533Y-47210115D01*
X62900435Y-47287533D01*
X63098849Y-47327000D01*
X63301151Y-47327000D01*
X63499565Y-47287533D01*
X63686467Y-47210115D01*
X63854674Y-47097723D01*
X63997723Y-46954674D01*
X64110115Y-46786467D01*
X64187533Y-46599565D01*
X64227000Y-46401151D01*
X64227000Y-46198849D01*
X69173000Y-46198849D01*
X69173000Y-46401151D01*
X69212467Y-46599565D01*
X69289885Y-46786467D01*
X69402277Y-46954674D01*
X69545326Y-47097723D01*
X69713533Y-47210115D01*
X69900435Y-47287533D01*
X70098849Y-47327000D01*
X70301151Y-47327000D01*
X70499565Y-47287533D01*
X70686467Y-47210115D01*
X70854674Y-47097723D01*
X70997723Y-46954674D01*
X71110115Y-46786467D01*
X71187533Y-46599565D01*
X71227000Y-46401151D01*
X71227000Y-46198849D01*
X71187533Y-46000435D01*
X71110115Y-45813533D01*
X70997723Y-45645326D01*
X70854674Y-45502277D01*
X70686467Y-45389885D01*
X70499565Y-45312467D01*
X70301151Y-45273000D01*
X70098849Y-45273000D01*
X69900435Y-45312467D01*
X69713533Y-45389885D01*
X69545326Y-45502277D01*
X69402277Y-45645326D01*
X69289885Y-45813533D01*
X69212467Y-46000435D01*
X69173000Y-46198849D01*
X64227000Y-46198849D01*
X64187533Y-46000435D01*
X64110115Y-45813533D01*
X63997723Y-45645326D01*
X63854674Y-45502277D01*
X63686467Y-45389885D01*
X63499565Y-45312467D01*
X63301151Y-45273000D01*
X63098849Y-45273000D01*
X62900435Y-45312467D01*
X62713533Y-45389885D01*
X62545326Y-45502277D01*
X62402277Y-45645326D01*
X62289885Y-45813533D01*
X62212467Y-46000435D01*
X62173000Y-46198849D01*
X59942955Y-46198849D01*
X60036467Y-46160115D01*
X60204674Y-46047723D01*
X60347723Y-45904674D01*
X60460115Y-45736467D01*
X60537533Y-45549565D01*
X60577000Y-45351151D01*
X60577000Y-45148849D01*
X60537533Y-44950435D01*
X60460115Y-44763533D01*
X60347723Y-44595326D01*
X60204674Y-44452277D01*
X60036467Y-44339885D01*
X59849565Y-44262467D01*
X59651151Y-44223000D01*
X59448849Y-44223000D01*
X59250435Y-44262467D01*
X59063533Y-44339885D01*
X58895326Y-44452277D01*
X58752277Y-44595326D01*
X58639885Y-44763533D01*
X58562467Y-44950435D01*
X58523000Y-45148849D01*
X57197164Y-45148849D01*
X57187533Y-45100435D01*
X57110115Y-44913533D01*
X56997723Y-44745326D01*
X56854674Y-44602277D01*
X56686467Y-44489885D01*
X56499565Y-44412467D01*
X56301151Y-44373000D01*
X56098849Y-44373000D01*
X55900435Y-44412467D01*
X55713533Y-44489885D01*
X55545326Y-44602277D01*
X55402277Y-44745326D01*
X55289885Y-44913533D01*
X55212467Y-45100435D01*
X55173000Y-45298849D01*
X48868432Y-45298849D01*
X48910115Y-45236467D01*
X48987533Y-45049565D01*
X49027000Y-44851151D01*
X49027000Y-44648849D01*
X48987533Y-44450435D01*
X48910115Y-44263533D01*
X48797723Y-44095326D01*
X48654674Y-43952277D01*
X48486467Y-43839885D01*
X48299565Y-43762467D01*
X48101151Y-43723000D01*
X47898849Y-43723000D01*
X47700435Y-43762467D01*
X47513533Y-43839885D01*
X47345326Y-43952277D01*
X47202277Y-44095326D01*
X47089885Y-44263533D01*
X47012467Y-44450435D01*
X46973000Y-44648849D01*
X33702000Y-44648849D01*
X33702000Y-42498849D01*
X61173000Y-42498849D01*
X61173000Y-42701151D01*
X61212467Y-42899565D01*
X61289885Y-43086467D01*
X61402277Y-43254674D01*
X61545326Y-43397723D01*
X61713533Y-43510115D01*
X61900435Y-43587533D01*
X62098849Y-43627000D01*
X62301151Y-43627000D01*
X62499565Y-43587533D01*
X62686467Y-43510115D01*
X62854674Y-43397723D01*
X62997723Y-43254674D01*
X63035023Y-43198849D01*
X63573000Y-43198849D01*
X63573000Y-43401151D01*
X63612467Y-43599565D01*
X63689885Y-43786467D01*
X63802277Y-43954674D01*
X63945326Y-44097723D01*
X64113533Y-44210115D01*
X64300435Y-44287533D01*
X64498849Y-44327000D01*
X64701151Y-44327000D01*
X64899565Y-44287533D01*
X65086467Y-44210115D01*
X65254674Y-44097723D01*
X65397723Y-43954674D01*
X65510115Y-43786467D01*
X65587533Y-43599565D01*
X65627000Y-43401151D01*
X65627000Y-43200000D01*
X75819967Y-43200000D01*
X75819967Y-45800000D01*
X75832073Y-45922913D01*
X75867925Y-46041103D01*
X75926147Y-46150028D01*
X76004499Y-46245501D01*
X76099972Y-46323853D01*
X76208897Y-46382075D01*
X76327087Y-46417927D01*
X76450000Y-46430033D01*
X79050000Y-46430033D01*
X79172913Y-46417927D01*
X79291103Y-46382075D01*
X79400028Y-46323853D01*
X79495501Y-46245501D01*
X79573853Y-46150028D01*
X79632075Y-46041103D01*
X79667927Y-45922913D01*
X79680033Y-45800000D01*
X79680033Y-43200000D01*
X79667927Y-43077087D01*
X79632075Y-42958897D01*
X79573853Y-42849972D01*
X79495501Y-42754499D01*
X79400028Y-42676147D01*
X79291103Y-42617925D01*
X79172913Y-42582073D01*
X79050000Y-42569967D01*
X76450000Y-42569967D01*
X76327087Y-42582073D01*
X76208897Y-42617925D01*
X76099972Y-42676147D01*
X76004499Y-42754499D01*
X75926147Y-42849972D01*
X75867925Y-42958897D01*
X75832073Y-43077087D01*
X75819967Y-43200000D01*
X65627000Y-43200000D01*
X65627000Y-43198849D01*
X65587533Y-43000435D01*
X65510115Y-42813533D01*
X65397723Y-42645326D01*
X65254674Y-42502277D01*
X65086467Y-42389885D01*
X64899565Y-42312467D01*
X64701151Y-42273000D01*
X64498849Y-42273000D01*
X64300435Y-42312467D01*
X64113533Y-42389885D01*
X63945326Y-42502277D01*
X63802277Y-42645326D01*
X63689885Y-42813533D01*
X63612467Y-43000435D01*
X63573000Y-43198849D01*
X63035023Y-43198849D01*
X63110115Y-43086467D01*
X63187533Y-42899565D01*
X63227000Y-42701151D01*
X63227000Y-42498849D01*
X63187533Y-42300435D01*
X63110115Y-42113533D01*
X62997723Y-41945326D01*
X62854674Y-41802277D01*
X62686467Y-41689885D01*
X62499565Y-41612467D01*
X62301151Y-41573000D01*
X62098849Y-41573000D01*
X61900435Y-41612467D01*
X61713533Y-41689885D01*
X61545326Y-41802277D01*
X61402277Y-41945326D01*
X61289885Y-42113533D01*
X61212467Y-42300435D01*
X61173000Y-42498849D01*
X33702000Y-42498849D01*
X33702000Y-41098849D01*
X52773000Y-41098849D01*
X52773000Y-41301151D01*
X52812467Y-41499565D01*
X52889885Y-41686467D01*
X53002277Y-41854674D01*
X53145326Y-41997723D01*
X53313533Y-42110115D01*
X53500435Y-42187533D01*
X53698849Y-42227000D01*
X53901151Y-42227000D01*
X54099565Y-42187533D01*
X54286467Y-42110115D01*
X54454674Y-41997723D01*
X54597723Y-41854674D01*
X54710115Y-41686467D01*
X54787533Y-41499565D01*
X54827000Y-41301151D01*
X54827000Y-41098849D01*
X54787533Y-40900435D01*
X54710115Y-40713533D01*
X54597723Y-40545326D01*
X54454674Y-40402277D01*
X54299883Y-40298849D01*
X55973000Y-40298849D01*
X55973000Y-40501151D01*
X56012467Y-40699565D01*
X56089885Y-40886467D01*
X56202277Y-41054674D01*
X56345326Y-41197723D01*
X56513533Y-41310115D01*
X56700435Y-41387533D01*
X56898849Y-41427000D01*
X57101151Y-41427000D01*
X57299565Y-41387533D01*
X57486467Y-41310115D01*
X57654674Y-41197723D01*
X57797723Y-41054674D01*
X57910115Y-40886467D01*
X57987533Y-40699565D01*
X58027000Y-40501151D01*
X58027000Y-40298849D01*
X57987533Y-40100435D01*
X57910115Y-39913533D01*
X57797723Y-39745326D01*
X57654674Y-39602277D01*
X57486467Y-39489885D01*
X57299565Y-39412467D01*
X57101151Y-39373000D01*
X56898849Y-39373000D01*
X56700435Y-39412467D01*
X56513533Y-39489885D01*
X56345326Y-39602277D01*
X56202277Y-39745326D01*
X56089885Y-39913533D01*
X56012467Y-40100435D01*
X55973000Y-40298849D01*
X54299883Y-40298849D01*
X54286467Y-40289885D01*
X54099565Y-40212467D01*
X53901151Y-40173000D01*
X53698849Y-40173000D01*
X53500435Y-40212467D01*
X53313533Y-40289885D01*
X53145326Y-40402277D01*
X53002277Y-40545326D01*
X52889885Y-40713533D01*
X52812467Y-40900435D01*
X52773000Y-41098849D01*
X33702000Y-41098849D01*
X33702000Y-38701675D01*
X34258009Y-38701675D01*
X34258009Y-38946325D01*
X34305738Y-39186275D01*
X34399362Y-39412303D01*
X34535283Y-39615723D01*
X34708277Y-39788717D01*
X34911697Y-39924638D01*
X35137725Y-40018262D01*
X35377675Y-40065991D01*
X35622325Y-40065991D01*
X35862275Y-40018262D01*
X36088303Y-39924638D01*
X36291723Y-39788717D01*
X36381591Y-39698849D01*
X46973000Y-39698849D01*
X46973000Y-39901151D01*
X47012467Y-40099565D01*
X47089885Y-40286467D01*
X47202277Y-40454674D01*
X47345326Y-40597723D01*
X47513533Y-40710115D01*
X47700435Y-40787533D01*
X47898849Y-40827000D01*
X48101151Y-40827000D01*
X48299565Y-40787533D01*
X48486467Y-40710115D01*
X48654674Y-40597723D01*
X48797723Y-40454674D01*
X48910115Y-40286467D01*
X48987533Y-40099565D01*
X49027000Y-39901151D01*
X49027000Y-39715693D01*
X49200435Y-39787533D01*
X49398849Y-39827000D01*
X49601151Y-39827000D01*
X49799565Y-39787533D01*
X49986467Y-39710115D01*
X50154674Y-39597723D01*
X50297723Y-39454674D01*
X50394252Y-39310207D01*
X75823000Y-39310207D01*
X75823000Y-39689793D01*
X75897053Y-40062085D01*
X76042315Y-40412777D01*
X76253201Y-40728391D01*
X76521609Y-40996799D01*
X76837223Y-41207685D01*
X77187915Y-41352947D01*
X77560207Y-41427000D01*
X77939793Y-41427000D01*
X78312085Y-41352947D01*
X78662777Y-41207685D01*
X78978391Y-40996799D01*
X79246799Y-40728391D01*
X79457685Y-40412777D01*
X79602947Y-40062085D01*
X79677000Y-39689793D01*
X79677000Y-39310207D01*
X79602947Y-38937915D01*
X79457685Y-38587223D01*
X79246799Y-38271609D01*
X78978391Y-38003201D01*
X78662777Y-37792315D01*
X78312085Y-37647053D01*
X77939793Y-37573000D01*
X77560207Y-37573000D01*
X77187915Y-37647053D01*
X76837223Y-37792315D01*
X76521609Y-38003201D01*
X76253201Y-38271609D01*
X76042315Y-38587223D01*
X75897053Y-38937915D01*
X75823000Y-39310207D01*
X50394252Y-39310207D01*
X50410115Y-39286467D01*
X50487533Y-39099565D01*
X50527000Y-38901151D01*
X50527000Y-38698849D01*
X50487533Y-38500435D01*
X50410115Y-38313533D01*
X50297723Y-38145326D01*
X50154674Y-38002277D01*
X49986467Y-37889885D01*
X49799565Y-37812467D01*
X49601151Y-37773000D01*
X49398849Y-37773000D01*
X49200435Y-37812467D01*
X49013533Y-37889885D01*
X48845326Y-38002277D01*
X48702277Y-38145326D01*
X48589885Y-38313533D01*
X48512467Y-38500435D01*
X48473000Y-38698849D01*
X48473000Y-38884307D01*
X48299565Y-38812467D01*
X48101151Y-38773000D01*
X47898849Y-38773000D01*
X47700435Y-38812467D01*
X47513533Y-38889885D01*
X47345326Y-39002277D01*
X47202277Y-39145326D01*
X47089885Y-39313533D01*
X47012467Y-39500435D01*
X46973000Y-39698849D01*
X36381591Y-39698849D01*
X36464717Y-39615723D01*
X36600638Y-39412303D01*
X36694262Y-39186275D01*
X36741991Y-38946325D01*
X36741991Y-38701675D01*
X36694262Y-38461725D01*
X36600638Y-38235697D01*
X36464717Y-38032277D01*
X36291723Y-37859283D01*
X36088303Y-37723362D01*
X35862275Y-37629738D01*
X35622325Y-37582009D01*
X35377675Y-37582009D01*
X35137725Y-37629738D01*
X34911697Y-37723362D01*
X34708277Y-37859283D01*
X34535283Y-38032277D01*
X34399362Y-38235697D01*
X34305738Y-38461725D01*
X34258009Y-38701675D01*
X33702000Y-38701675D01*
X33702000Y-34339755D01*
X40473000Y-34339755D01*
X40473000Y-34660245D01*
X40535525Y-34974578D01*
X40658172Y-35270673D01*
X40836227Y-35537152D01*
X41062848Y-35763773D01*
X41329327Y-35941828D01*
X41625422Y-36064475D01*
X41939755Y-36127000D01*
X42260245Y-36127000D01*
X42574578Y-36064475D01*
X42870673Y-35941828D01*
X43137152Y-35763773D01*
X43363773Y-35537152D01*
X43541828Y-35270673D01*
X43664475Y-34974578D01*
X43727000Y-34660245D01*
X43727000Y-34339755D01*
X44973000Y-34339755D01*
X44973000Y-34660245D01*
X45035525Y-34974578D01*
X45158172Y-35270673D01*
X45336227Y-35537152D01*
X45562848Y-35763773D01*
X45829327Y-35941828D01*
X46125422Y-36064475D01*
X46439755Y-36127000D01*
X46760245Y-36127000D01*
X47074578Y-36064475D01*
X47370673Y-35941828D01*
X47637152Y-35763773D01*
X47863773Y-35537152D01*
X48041828Y-35270673D01*
X48164475Y-34974578D01*
X48211200Y-34739674D01*
X48398849Y-34777000D01*
X48601151Y-34777000D01*
X48799565Y-34737533D01*
X48986467Y-34660115D01*
X49154674Y-34547723D01*
X49297723Y-34404674D01*
X49331229Y-34354528D01*
X49703000Y-34354528D01*
X49703000Y-34645472D01*
X49759760Y-34930825D01*
X49871099Y-35199622D01*
X50032739Y-35441533D01*
X50238467Y-35647261D01*
X50480378Y-35808901D01*
X50749175Y-35920240D01*
X51034528Y-35977000D01*
X51325472Y-35977000D01*
X51610825Y-35920240D01*
X51879622Y-35808901D01*
X52121533Y-35647261D01*
X52327261Y-35441533D01*
X52450000Y-35257841D01*
X52572739Y-35441533D01*
X52778467Y-35647261D01*
X53020378Y-35808901D01*
X53289175Y-35920240D01*
X53574528Y-35977000D01*
X53865472Y-35977000D01*
X54150825Y-35920240D01*
X54419622Y-35808901D01*
X54661533Y-35647261D01*
X54867261Y-35441533D01*
X54990000Y-35257841D01*
X55112739Y-35441533D01*
X55318467Y-35647261D01*
X55560378Y-35808901D01*
X55829175Y-35920240D01*
X56114528Y-35977000D01*
X56405472Y-35977000D01*
X56690825Y-35920240D01*
X56959622Y-35808901D01*
X57201533Y-35647261D01*
X57335854Y-35512940D01*
X57360498Y-35594180D01*
X57419463Y-35704494D01*
X57498815Y-35801185D01*
X57595506Y-35880537D01*
X57705820Y-35939502D01*
X57825518Y-35975812D01*
X57950000Y-35988072D01*
X58514250Y-35985000D01*
X58673000Y-35826250D01*
X58673000Y-34627000D01*
X58927000Y-34627000D01*
X58927000Y-35826250D01*
X59085750Y-35985000D01*
X59650000Y-35988072D01*
X59774482Y-35975812D01*
X59894180Y-35939502D01*
X60004494Y-35880537D01*
X60101185Y-35801185D01*
X60180537Y-35704494D01*
X60183554Y-35698849D01*
X70773000Y-35698849D01*
X70773000Y-35901151D01*
X70812467Y-36099565D01*
X70889885Y-36286467D01*
X71002277Y-36454674D01*
X71145326Y-36597723D01*
X71313533Y-36710115D01*
X71500435Y-36787533D01*
X71698849Y-36827000D01*
X71901151Y-36827000D01*
X72099565Y-36787533D01*
X72286467Y-36710115D01*
X72454674Y-36597723D01*
X72597723Y-36454674D01*
X72710115Y-36286467D01*
X72787533Y-36099565D01*
X72827000Y-35901151D01*
X72827000Y-35698849D01*
X72787533Y-35500435D01*
X72710115Y-35313533D01*
X72597723Y-35145326D01*
X72454674Y-35002277D01*
X72286467Y-34889885D01*
X72256990Y-34877675D01*
X79432009Y-34877675D01*
X79432009Y-35122325D01*
X79479738Y-35362275D01*
X79573362Y-35588303D01*
X79709283Y-35791723D01*
X79882277Y-35964717D01*
X80085697Y-36100638D01*
X80311725Y-36194262D01*
X80551675Y-36241991D01*
X80796325Y-36241991D01*
X81036275Y-36194262D01*
X81262303Y-36100638D01*
X81465723Y-35964717D01*
X81638717Y-35791723D01*
X81774638Y-35588303D01*
X81868262Y-35362275D01*
X81915991Y-35122325D01*
X81915991Y-34877675D01*
X81868262Y-34637725D01*
X81774638Y-34411697D01*
X81638717Y-34208277D01*
X81465723Y-34035283D01*
X81262303Y-33899362D01*
X81036275Y-33805738D01*
X80796325Y-33758009D01*
X80551675Y-33758009D01*
X80311725Y-33805738D01*
X80085697Y-33899362D01*
X79882277Y-34035283D01*
X79709283Y-34208277D01*
X79573362Y-34411697D01*
X79479738Y-34637725D01*
X79432009Y-34877675D01*
X72256990Y-34877675D01*
X72099565Y-34812467D01*
X71901151Y-34773000D01*
X71698849Y-34773000D01*
X71500435Y-34812467D01*
X71313533Y-34889885D01*
X71145326Y-35002277D01*
X71002277Y-35145326D01*
X70889885Y-35313533D01*
X70812467Y-35500435D01*
X70773000Y-35698849D01*
X60183554Y-35698849D01*
X60239502Y-35594180D01*
X60275812Y-35474482D01*
X60288072Y-35350000D01*
X60285000Y-34785750D01*
X60126250Y-34627000D01*
X58927000Y-34627000D01*
X58673000Y-34627000D01*
X58653000Y-34627000D01*
X58653000Y-34373000D01*
X58673000Y-34373000D01*
X58673000Y-33173750D01*
X58927000Y-33173750D01*
X58927000Y-34373000D01*
X60126250Y-34373000D01*
X60285000Y-34214250D01*
X60288072Y-33650000D01*
X60275812Y-33525518D01*
X60239502Y-33405820D01*
X60180537Y-33295506D01*
X60101213Y-33198849D01*
X70773000Y-33198849D01*
X70773000Y-33401151D01*
X70812467Y-33599565D01*
X70889885Y-33786467D01*
X71002277Y-33954674D01*
X71145326Y-34097723D01*
X71313533Y-34210115D01*
X71500435Y-34287533D01*
X71698849Y-34327000D01*
X71901151Y-34327000D01*
X72099565Y-34287533D01*
X72286467Y-34210115D01*
X72454674Y-34097723D01*
X72597723Y-33954674D01*
X72710115Y-33786467D01*
X72787533Y-33599565D01*
X72827000Y-33401151D01*
X72827000Y-33198849D01*
X72787533Y-33000435D01*
X72710115Y-32813533D01*
X72597723Y-32645326D01*
X72454674Y-32502277D01*
X72286467Y-32389885D01*
X72099565Y-32312467D01*
X71901151Y-32273000D01*
X71698849Y-32273000D01*
X71500435Y-32312467D01*
X71313533Y-32389885D01*
X71145326Y-32502277D01*
X71002277Y-32645326D01*
X70889885Y-32813533D01*
X70812467Y-33000435D01*
X70773000Y-33198849D01*
X60101213Y-33198849D01*
X60101185Y-33198815D01*
X60004494Y-33119463D01*
X59894180Y-33060498D01*
X59774482Y-33024188D01*
X59650000Y-33011928D01*
X59085750Y-33015000D01*
X58927000Y-33173750D01*
X58673000Y-33173750D01*
X58514250Y-33015000D01*
X57950000Y-33011928D01*
X57825518Y-33024188D01*
X57705820Y-33060498D01*
X57595506Y-33119463D01*
X57498815Y-33198815D01*
X57419463Y-33295506D01*
X57360498Y-33405820D01*
X57335854Y-33487060D01*
X57201533Y-33352739D01*
X56959622Y-33191099D01*
X56690825Y-33079760D01*
X56405472Y-33023000D01*
X56114528Y-33023000D01*
X55829175Y-33079760D01*
X55560378Y-33191099D01*
X55318467Y-33352739D01*
X55112739Y-33558467D01*
X54990000Y-33742159D01*
X54867261Y-33558467D01*
X54661533Y-33352739D01*
X54419622Y-33191099D01*
X54150825Y-33079760D01*
X53865472Y-33023000D01*
X53574528Y-33023000D01*
X53289175Y-33079760D01*
X53020378Y-33191099D01*
X52778467Y-33352739D01*
X52572739Y-33558467D01*
X52450000Y-33742159D01*
X52327261Y-33558467D01*
X52121533Y-33352739D01*
X51879622Y-33191099D01*
X51610825Y-33079760D01*
X51325472Y-33023000D01*
X51034528Y-33023000D01*
X50749175Y-33079760D01*
X50480378Y-33191099D01*
X50238467Y-33352739D01*
X50032739Y-33558467D01*
X49871099Y-33800378D01*
X49759760Y-34069175D01*
X49703000Y-34354528D01*
X49331229Y-34354528D01*
X49410115Y-34236467D01*
X49487533Y-34049565D01*
X49527000Y-33851151D01*
X49527000Y-33648849D01*
X49487533Y-33450435D01*
X49410115Y-33263533D01*
X49297723Y-33095326D01*
X49154674Y-32952277D01*
X48986467Y-32839885D01*
X48799565Y-32762467D01*
X48601151Y-32723000D01*
X48398849Y-32723000D01*
X48200435Y-32762467D01*
X48013533Y-32839885D01*
X47845326Y-32952277D01*
X47702277Y-33095326D01*
X47617088Y-33222821D01*
X47370673Y-33058172D01*
X47074578Y-32935525D01*
X46760245Y-32873000D01*
X46439755Y-32873000D01*
X46125422Y-32935525D01*
X45829327Y-33058172D01*
X45562848Y-33236227D01*
X45336227Y-33462848D01*
X45158172Y-33729327D01*
X45035525Y-34025422D01*
X44973000Y-34339755D01*
X43727000Y-34339755D01*
X43664475Y-34025422D01*
X43541828Y-33729327D01*
X43363773Y-33462848D01*
X43137152Y-33236227D01*
X42870673Y-33058172D01*
X42574578Y-32935525D01*
X42260245Y-32873000D01*
X41939755Y-32873000D01*
X41625422Y-32935525D01*
X41329327Y-33058172D01*
X41062848Y-33236227D01*
X40836227Y-33462848D01*
X40658172Y-33729327D01*
X40535525Y-34025422D01*
X40473000Y-34339755D01*
X33702000Y-34339755D01*
X33702000Y-32152611D01*
X34027375Y-32639570D01*
X34560430Y-33172625D01*
X35187236Y-33591443D01*
X35883705Y-33879930D01*
X36623073Y-34027000D01*
X37376927Y-34027000D01*
X38116295Y-33879930D01*
X38812764Y-33591443D01*
X39439570Y-33172625D01*
X39972625Y-32639570D01*
X40391443Y-32012764D01*
X40679930Y-31316295D01*
X40827000Y-30576927D01*
X40827000Y-29823073D01*
X40679930Y-29083705D01*
X40391443Y-28387236D01*
X39972625Y-27760430D01*
X39439570Y-27227375D01*
X38812764Y-26808557D01*
X38555513Y-26702000D01*
X41114072Y-26702000D01*
X41062848Y-26736227D01*
G37*
%TD.AperFunction*%
%TD*%
D18*
%TO.N,+5V*%
X82298001Y-50153059D02*
X82287533Y-50100435D01*
X82210115Y-49913533D01*
X82097723Y-49745326D01*
X81954674Y-49602277D01*
X81786467Y-49489885D01*
X81599565Y-49412467D01*
X81401151Y-49373000D01*
X81198849Y-49373000D01*
X81000435Y-49412467D01*
X80813533Y-49489885D01*
X80645326Y-49602277D01*
X80502277Y-49745326D01*
X80389885Y-49913533D01*
X80312467Y-50100435D01*
X80273000Y-50298849D01*
X80273000Y-50501151D01*
X80312467Y-50699565D01*
X80389885Y-50886467D01*
X80502277Y-51054674D01*
X80645326Y-51197723D01*
X80813533Y-51310115D01*
X81000435Y-51387533D01*
X81198849Y-51427000D01*
X81401151Y-51427000D01*
X81599565Y-51387533D01*
X81786467Y-51310115D01*
X81954674Y-51197723D01*
X82097723Y-51054674D01*
X82210115Y-50886467D01*
X82287533Y-50699565D01*
X82298001Y-50646941D01*
X82298000Y-52653058D01*
X82287533Y-52600435D01*
X82210115Y-52413533D01*
X82097723Y-52245326D01*
X81954674Y-52102277D01*
X81786467Y-51989885D01*
X81599565Y-51912467D01*
X81401151Y-51873000D01*
X81198849Y-51873000D01*
X81000435Y-51912467D01*
X80813533Y-51989885D01*
X80645326Y-52102277D01*
X80502277Y-52245326D01*
X80389885Y-52413533D01*
X80312467Y-52600435D01*
X80273000Y-52798849D01*
X80273000Y-53001151D01*
X80312467Y-53199565D01*
X80389885Y-53386467D01*
X80502277Y-53554674D01*
X80645326Y-53697723D01*
X80813533Y-53810115D01*
X81000435Y-53887533D01*
X81198849Y-53927000D01*
X81401151Y-53927000D01*
X81599565Y-53887533D01*
X81786467Y-53810115D01*
X81954674Y-53697723D01*
X82097723Y-53554674D01*
X82210115Y-53386467D01*
X82287533Y-53199565D01*
X82298000Y-53146942D01*
X82298000Y-55495402D01*
X82197723Y-55345326D01*
X82054674Y-55202277D01*
X81886467Y-55089885D01*
X81699565Y-55012467D01*
X81501151Y-54973000D01*
X81298849Y-54973000D01*
X81100435Y-55012467D01*
X80913533Y-55089885D01*
X80745326Y-55202277D01*
X80602277Y-55345326D01*
X80489885Y-55513533D01*
X80412467Y-55700435D01*
X80373000Y-55898849D01*
X80373000Y-56101151D01*
X80412467Y-56299565D01*
X80489885Y-56486467D01*
X80602277Y-56654674D01*
X80745326Y-56797723D01*
X80913533Y-56910115D01*
X81100435Y-56987533D01*
X81298849Y-57027000D01*
X81501151Y-57027000D01*
X81699565Y-56987533D01*
X81886467Y-56910115D01*
X82054674Y-56797723D01*
X82197723Y-56654674D01*
X82298000Y-56504598D01*
X82298000Y-58253058D01*
X82287533Y-58200435D01*
X82210115Y-58013533D01*
X82097723Y-57845326D01*
X81954674Y-57702277D01*
X81786467Y-57589885D01*
X81599565Y-57512467D01*
X81401151Y-57473000D01*
X81198849Y-57473000D01*
X81000435Y-57512467D01*
X80813533Y-57589885D01*
X80645326Y-57702277D01*
X80502277Y-57845326D01*
X80389885Y-58013533D01*
X80312467Y-58200435D01*
X80273000Y-58398849D01*
X80273000Y-58601151D01*
X80312467Y-58799565D01*
X80389885Y-58986467D01*
X80502277Y-59154674D01*
X80645326Y-59297723D01*
X80813533Y-59410115D01*
X81000435Y-59487533D01*
X81198849Y-59527000D01*
X81401151Y-59527000D01*
X81599565Y-59487533D01*
X81786467Y-59410115D01*
X81954674Y-59297723D01*
X82097723Y-59154674D01*
X82210115Y-58986467D01*
X82287533Y-58799565D01*
X82298000Y-58746942D01*
X82298000Y-69747389D01*
X81972625Y-69260430D01*
X81439570Y-68727375D01*
X80812764Y-68308557D01*
X80116295Y-68020070D01*
X79376927Y-67873000D01*
X78623073Y-67873000D01*
X77883705Y-68020070D01*
X77187236Y-68308557D01*
X76560430Y-68727375D01*
X76027375Y-69260430D01*
X75608557Y-69887236D01*
X75320070Y-70583705D01*
X75173000Y-71323073D01*
X75173000Y-72076927D01*
X75320070Y-72816295D01*
X75608557Y-73512764D01*
X76027375Y-74139570D01*
X76560430Y-74672625D01*
X77187236Y-75091443D01*
X77685909Y-75298000D01*
X43627000Y-75298000D01*
X43627000Y-70401967D01*
X43699565Y-70387533D01*
X43886467Y-70310115D01*
X44054674Y-70197723D01*
X44197723Y-70054674D01*
X44310115Y-69886467D01*
X44387533Y-69699565D01*
X44427000Y-69501151D01*
X44427000Y-69298849D01*
X44387533Y-69100435D01*
X44310115Y-68913533D01*
X44197723Y-68745326D01*
X44054674Y-68602277D01*
X43886467Y-68489885D01*
X43699565Y-68412467D01*
X43627000Y-68398033D01*
X43627000Y-65600000D01*
X48511928Y-65600000D01*
X48524188Y-65724482D01*
X48560498Y-65844180D01*
X48619463Y-65954494D01*
X48698815Y-66051185D01*
X48795506Y-66130537D01*
X48905820Y-66189502D01*
X48987060Y-66214146D01*
X48852739Y-66348467D01*
X48691099Y-66590378D01*
X48579760Y-66859175D01*
X48523000Y-67144528D01*
X48523000Y-67435472D01*
X48579760Y-67720825D01*
X48691099Y-67989622D01*
X48852739Y-68231533D01*
X49058467Y-68437261D01*
X49300378Y-68598901D01*
X49569175Y-68710240D01*
X49854528Y-68767000D01*
X50145472Y-68767000D01*
X50430825Y-68710240D01*
X50699622Y-68598901D01*
X50941533Y-68437261D01*
X51147261Y-68231533D01*
X51270000Y-68047841D01*
X51392739Y-68231533D01*
X51598467Y-68437261D01*
X51840378Y-68598901D01*
X52109175Y-68710240D01*
X52394528Y-68767000D01*
X52685472Y-68767000D01*
X52970825Y-68710240D01*
X53239622Y-68598901D01*
X53481533Y-68437261D01*
X53687261Y-68231533D01*
X53810000Y-68047841D01*
X53932739Y-68231533D01*
X54138467Y-68437261D01*
X54380378Y-68598901D01*
X54649175Y-68710240D01*
X54934528Y-68767000D01*
X55225472Y-68767000D01*
X55510825Y-68710240D01*
X55779622Y-68598901D01*
X56021533Y-68437261D01*
X56227261Y-68231533D01*
X56350000Y-68047841D01*
X56472739Y-68231533D01*
X56678467Y-68437261D01*
X56920378Y-68598901D01*
X57189175Y-68710240D01*
X57474528Y-68767000D01*
X57765472Y-68767000D01*
X58050825Y-68710240D01*
X58319622Y-68598901D01*
X58561533Y-68437261D01*
X58767261Y-68231533D01*
X58890000Y-68047841D01*
X59012739Y-68231533D01*
X59218467Y-68437261D01*
X59460378Y-68598901D01*
X59729175Y-68710240D01*
X60014528Y-68767000D01*
X60305472Y-68767000D01*
X60590825Y-68710240D01*
X60859622Y-68598901D01*
X61101533Y-68437261D01*
X61307261Y-68231533D01*
X61430000Y-68047841D01*
X61552739Y-68231533D01*
X61758467Y-68437261D01*
X62000378Y-68598901D01*
X62269175Y-68710240D01*
X62554528Y-68767000D01*
X62845472Y-68767000D01*
X63130825Y-68710240D01*
X63399622Y-68598901D01*
X63641533Y-68437261D01*
X63847261Y-68231533D01*
X63970000Y-68047841D01*
X64092739Y-68231533D01*
X64298467Y-68437261D01*
X64540378Y-68598901D01*
X64809175Y-68710240D01*
X65094528Y-68767000D01*
X65385472Y-68767000D01*
X65670825Y-68710240D01*
X65939622Y-68598901D01*
X66181533Y-68437261D01*
X66387261Y-68231533D01*
X66510000Y-68047841D01*
X66632739Y-68231533D01*
X66838467Y-68437261D01*
X67080378Y-68598901D01*
X67349175Y-68710240D01*
X67634528Y-68767000D01*
X67925472Y-68767000D01*
X68210825Y-68710240D01*
X68479622Y-68598901D01*
X68721533Y-68437261D01*
X68927261Y-68231533D01*
X69088901Y-67989622D01*
X69200240Y-67720825D01*
X69257000Y-67435472D01*
X69257000Y-67144528D01*
X69200240Y-66859175D01*
X69088901Y-66590378D01*
X68930073Y-66352675D01*
X79282009Y-66352675D01*
X79282009Y-66597325D01*
X79329738Y-66837275D01*
X79423362Y-67063303D01*
X79559283Y-67266723D01*
X79732277Y-67439717D01*
X79935697Y-67575638D01*
X80161725Y-67669262D01*
X80401675Y-67716991D01*
X80646325Y-67716991D01*
X80886275Y-67669262D01*
X81112303Y-67575638D01*
X81315723Y-67439717D01*
X81488717Y-67266723D01*
X81624638Y-67063303D01*
X81718262Y-66837275D01*
X81765991Y-66597325D01*
X81765991Y-66352675D01*
X81718262Y-66112725D01*
X81624638Y-65886697D01*
X81488717Y-65683277D01*
X81315723Y-65510283D01*
X81112303Y-65374362D01*
X80886275Y-65280738D01*
X80646325Y-65233009D01*
X80401675Y-65233009D01*
X80161725Y-65280738D01*
X79935697Y-65374362D01*
X79732277Y-65510283D01*
X79559283Y-65683277D01*
X79423362Y-65886697D01*
X79329738Y-66112725D01*
X79282009Y-66352675D01*
X68930073Y-66352675D01*
X68927261Y-66348467D01*
X68721533Y-66142739D01*
X68537841Y-66020000D01*
X68721533Y-65897261D01*
X68927261Y-65691533D01*
X69088901Y-65449622D01*
X69200240Y-65180825D01*
X69257000Y-64895472D01*
X69257000Y-64848849D01*
X71473000Y-64848849D01*
X71473000Y-65051151D01*
X71512467Y-65249565D01*
X71589885Y-65436467D01*
X71702277Y-65604674D01*
X71845326Y-65747723D01*
X72013533Y-65860115D01*
X72200435Y-65937533D01*
X72398849Y-65977000D01*
X72601151Y-65977000D01*
X72799565Y-65937533D01*
X72986467Y-65860115D01*
X73154674Y-65747723D01*
X73297723Y-65604674D01*
X73410115Y-65436467D01*
X73487533Y-65249565D01*
X73527000Y-65051151D01*
X73527000Y-64848849D01*
X73512708Y-64777000D01*
X73601151Y-64777000D01*
X73799565Y-64737533D01*
X73986467Y-64660115D01*
X74154674Y-64547723D01*
X74297723Y-64404674D01*
X74410115Y-64236467D01*
X74487533Y-64049565D01*
X74527000Y-63851151D01*
X74527000Y-63648849D01*
X74492817Y-63477000D01*
X74551151Y-63477000D01*
X74749565Y-63437533D01*
X74936467Y-63360115D01*
X75104674Y-63247723D01*
X75247723Y-63104674D01*
X75360115Y-62936467D01*
X75437533Y-62749565D01*
X75477000Y-62551151D01*
X75477000Y-62348849D01*
X75437533Y-62150435D01*
X75360115Y-61963533D01*
X75247723Y-61795326D01*
X75104674Y-61652277D01*
X74936467Y-61539885D01*
X74749565Y-61462467D01*
X74551151Y-61423000D01*
X74348849Y-61423000D01*
X74150435Y-61462467D01*
X73963533Y-61539885D01*
X73795326Y-61652277D01*
X73652277Y-61795326D01*
X73539885Y-61963533D01*
X73462467Y-62150435D01*
X73423000Y-62348849D01*
X73423000Y-62551151D01*
X73457183Y-62723000D01*
X73398849Y-62723000D01*
X73200435Y-62762467D01*
X73013533Y-62839885D01*
X72845326Y-62952277D01*
X72702277Y-63095326D01*
X72589885Y-63263533D01*
X72512467Y-63450435D01*
X72473000Y-63648849D01*
X72473000Y-63851151D01*
X72487292Y-63923000D01*
X72398849Y-63923000D01*
X72200435Y-63962467D01*
X72013533Y-64039885D01*
X71845326Y-64152277D01*
X71702277Y-64295326D01*
X71589885Y-64463533D01*
X71512467Y-64650435D01*
X71473000Y-64848849D01*
X69257000Y-64848849D01*
X69257000Y-64604528D01*
X69200240Y-64319175D01*
X69088901Y-64050378D01*
X68927261Y-63808467D01*
X68721533Y-63602739D01*
X68479622Y-63441099D01*
X68210825Y-63329760D01*
X67925472Y-63273000D01*
X67634528Y-63273000D01*
X67349175Y-63329760D01*
X67080378Y-63441099D01*
X66838467Y-63602739D01*
X66632739Y-63808467D01*
X66510000Y-63992159D01*
X66387261Y-63808467D01*
X66181533Y-63602739D01*
X65939622Y-63441099D01*
X65670825Y-63329760D01*
X65385472Y-63273000D01*
X65094528Y-63273000D01*
X64809175Y-63329760D01*
X64540378Y-63441099D01*
X64298467Y-63602739D01*
X64092739Y-63808467D01*
X63970000Y-63992159D01*
X63847261Y-63808467D01*
X63641533Y-63602739D01*
X63399622Y-63441099D01*
X63130825Y-63329760D01*
X62845472Y-63273000D01*
X62554528Y-63273000D01*
X62269175Y-63329760D01*
X62000378Y-63441099D01*
X61758467Y-63602739D01*
X61552739Y-63808467D01*
X61430000Y-63992159D01*
X61307261Y-63808467D01*
X61101533Y-63602739D01*
X60859622Y-63441099D01*
X60590825Y-63329760D01*
X60305472Y-63273000D01*
X60014528Y-63273000D01*
X59729175Y-63329760D01*
X59460378Y-63441099D01*
X59218467Y-63602739D01*
X59012739Y-63808467D01*
X58890000Y-63992159D01*
X58767261Y-63808467D01*
X58561533Y-63602739D01*
X58319622Y-63441099D01*
X58050825Y-63329760D01*
X57765472Y-63273000D01*
X57474528Y-63273000D01*
X57189175Y-63329760D01*
X56920378Y-63441099D01*
X56678467Y-63602739D01*
X56472739Y-63808467D01*
X56350000Y-63992159D01*
X56227261Y-63808467D01*
X56021533Y-63602739D01*
X55779622Y-63441099D01*
X55510825Y-63329760D01*
X55225472Y-63273000D01*
X54934528Y-63273000D01*
X54649175Y-63329760D01*
X54380378Y-63441099D01*
X54138467Y-63602739D01*
X53932739Y-63808467D01*
X53810000Y-63992159D01*
X53687261Y-63808467D01*
X53481533Y-63602739D01*
X53239622Y-63441099D01*
X52970825Y-63329760D01*
X52685472Y-63273000D01*
X52394528Y-63273000D01*
X52109175Y-63329760D01*
X51840378Y-63441099D01*
X51598467Y-63602739D01*
X51464146Y-63737060D01*
X51439502Y-63655820D01*
X51380537Y-63545506D01*
X51301185Y-63448815D01*
X51204494Y-63369463D01*
X51094180Y-63310498D01*
X50974482Y-63274188D01*
X50850000Y-63261928D01*
X50285750Y-63265000D01*
X50127000Y-63423750D01*
X50127000Y-64623000D01*
X50147000Y-64623000D01*
X50147000Y-64877000D01*
X50127000Y-64877000D01*
X50127000Y-64897000D01*
X49873000Y-64897000D01*
X49873000Y-64877000D01*
X48673750Y-64877000D01*
X48515000Y-65035750D01*
X48511928Y-65600000D01*
X43627000Y-65600000D01*
X43627000Y-64042333D01*
X43733749Y-63900000D01*
X48511928Y-63900000D01*
X48515000Y-64464250D01*
X48673750Y-64623000D01*
X49873000Y-64623000D01*
X49873000Y-63423750D01*
X49714250Y-63265000D01*
X49150000Y-63261928D01*
X49025518Y-63274188D01*
X48905820Y-63310498D01*
X48795506Y-63369463D01*
X48698815Y-63448815D01*
X48619463Y-63545506D01*
X48560498Y-63655820D01*
X48524188Y-63775518D01*
X48511928Y-63900000D01*
X43733749Y-63900000D01*
X45063500Y-62127000D01*
X61750000Y-62127000D01*
X61774776Y-62124560D01*
X61798601Y-62117333D01*
X61829336Y-62099170D01*
X65579336Y-59099170D01*
X65597159Y-59081787D01*
X65611248Y-59061261D01*
X65621062Y-59038380D01*
X65626223Y-59014025D01*
X65627000Y-59000000D01*
X65627000Y-57998849D01*
X67823000Y-57998849D01*
X67823000Y-58201151D01*
X67862467Y-58399565D01*
X67939885Y-58586467D01*
X68052277Y-58754674D01*
X68195326Y-58897723D01*
X68363533Y-59010115D01*
X68550435Y-59087533D01*
X68748849Y-59127000D01*
X68951151Y-59127000D01*
X69149565Y-59087533D01*
X69336467Y-59010115D01*
X69504674Y-58897723D01*
X69647723Y-58754674D01*
X69760115Y-58586467D01*
X69837533Y-58399565D01*
X69877000Y-58201151D01*
X69877000Y-57998849D01*
X69837533Y-57800435D01*
X69760115Y-57613533D01*
X69647723Y-57445326D01*
X69504674Y-57302277D01*
X69336467Y-57189885D01*
X69149565Y-57112467D01*
X68951151Y-57073000D01*
X68748849Y-57073000D01*
X68550435Y-57112467D01*
X68363533Y-57189885D01*
X68195326Y-57302277D01*
X68052277Y-57445326D01*
X67939885Y-57613533D01*
X67862467Y-57800435D01*
X67823000Y-57998849D01*
X65627000Y-57998849D01*
X65627000Y-55127000D01*
X68647237Y-55127000D01*
X68623000Y-55248849D01*
X68623000Y-55451151D01*
X68662467Y-55649565D01*
X68739885Y-55836467D01*
X68852277Y-56004674D01*
X68995326Y-56147723D01*
X69163533Y-56260115D01*
X69197775Y-56274298D01*
X69173000Y-56398849D01*
X69173000Y-56601151D01*
X69212467Y-56799565D01*
X69289885Y-56986467D01*
X69402277Y-57154674D01*
X69545326Y-57297723D01*
X69713533Y-57410115D01*
X69900435Y-57487533D01*
X70098849Y-57527000D01*
X70301151Y-57527000D01*
X70499565Y-57487533D01*
X70686467Y-57410115D01*
X70854674Y-57297723D01*
X70997723Y-57154674D01*
X71110115Y-56986467D01*
X71187533Y-56799565D01*
X71227000Y-56601151D01*
X71227000Y-56398849D01*
X71187533Y-56200435D01*
X71110115Y-56013533D01*
X70997723Y-55845326D01*
X70854674Y-55702277D01*
X70686467Y-55589885D01*
X70652225Y-55575702D01*
X70677000Y-55451151D01*
X70677000Y-55248849D01*
X70637533Y-55050435D01*
X70560115Y-54863533D01*
X70447723Y-54695326D01*
X70304674Y-54552277D01*
X70136467Y-54439885D01*
X70127000Y-54435964D01*
X70127000Y-49822654D01*
X70148849Y-49827000D01*
X70351151Y-49827000D01*
X70549565Y-49787533D01*
X70736467Y-49710115D01*
X70904674Y-49597723D01*
X71047723Y-49454674D01*
X71160115Y-49286467D01*
X71237533Y-49099565D01*
X71277000Y-48901151D01*
X71277000Y-48698849D01*
X71262708Y-48627000D01*
X82298001Y-48627000D01*
X82298001Y-50153059D01*
%TA.AperFunction,Conductor*%
D19*
G36*
X82298001Y-50153059D02*
G01*
X82287533Y-50100435D01*
X82210115Y-49913533D01*
X82097723Y-49745326D01*
X81954674Y-49602277D01*
X81786467Y-49489885D01*
X81599565Y-49412467D01*
X81401151Y-49373000D01*
X81198849Y-49373000D01*
X81000435Y-49412467D01*
X80813533Y-49489885D01*
X80645326Y-49602277D01*
X80502277Y-49745326D01*
X80389885Y-49913533D01*
X80312467Y-50100435D01*
X80273000Y-50298849D01*
X80273000Y-50501151D01*
X80312467Y-50699565D01*
X80389885Y-50886467D01*
X80502277Y-51054674D01*
X80645326Y-51197723D01*
X80813533Y-51310115D01*
X81000435Y-51387533D01*
X81198849Y-51427000D01*
X81401151Y-51427000D01*
X81599565Y-51387533D01*
X81786467Y-51310115D01*
X81954674Y-51197723D01*
X82097723Y-51054674D01*
X82210115Y-50886467D01*
X82287533Y-50699565D01*
X82298001Y-50646941D01*
X82298000Y-52653058D01*
X82287533Y-52600435D01*
X82210115Y-52413533D01*
X82097723Y-52245326D01*
X81954674Y-52102277D01*
X81786467Y-51989885D01*
X81599565Y-51912467D01*
X81401151Y-51873000D01*
X81198849Y-51873000D01*
X81000435Y-51912467D01*
X80813533Y-51989885D01*
X80645326Y-52102277D01*
X80502277Y-52245326D01*
X80389885Y-52413533D01*
X80312467Y-52600435D01*
X80273000Y-52798849D01*
X80273000Y-53001151D01*
X80312467Y-53199565D01*
X80389885Y-53386467D01*
X80502277Y-53554674D01*
X80645326Y-53697723D01*
X80813533Y-53810115D01*
X81000435Y-53887533D01*
X81198849Y-53927000D01*
X81401151Y-53927000D01*
X81599565Y-53887533D01*
X81786467Y-53810115D01*
X81954674Y-53697723D01*
X82097723Y-53554674D01*
X82210115Y-53386467D01*
X82287533Y-53199565D01*
X82298000Y-53146942D01*
X82298000Y-55495402D01*
X82197723Y-55345326D01*
X82054674Y-55202277D01*
X81886467Y-55089885D01*
X81699565Y-55012467D01*
X81501151Y-54973000D01*
X81298849Y-54973000D01*
X81100435Y-55012467D01*
X80913533Y-55089885D01*
X80745326Y-55202277D01*
X80602277Y-55345326D01*
X80489885Y-55513533D01*
X80412467Y-55700435D01*
X80373000Y-55898849D01*
X80373000Y-56101151D01*
X80412467Y-56299565D01*
X80489885Y-56486467D01*
X80602277Y-56654674D01*
X80745326Y-56797723D01*
X80913533Y-56910115D01*
X81100435Y-56987533D01*
X81298849Y-57027000D01*
X81501151Y-57027000D01*
X81699565Y-56987533D01*
X81886467Y-56910115D01*
X82054674Y-56797723D01*
X82197723Y-56654674D01*
X82298000Y-56504598D01*
X82298000Y-58253058D01*
X82287533Y-58200435D01*
X82210115Y-58013533D01*
X82097723Y-57845326D01*
X81954674Y-57702277D01*
X81786467Y-57589885D01*
X81599565Y-57512467D01*
X81401151Y-57473000D01*
X81198849Y-57473000D01*
X81000435Y-57512467D01*
X80813533Y-57589885D01*
X80645326Y-57702277D01*
X80502277Y-57845326D01*
X80389885Y-58013533D01*
X80312467Y-58200435D01*
X80273000Y-58398849D01*
X80273000Y-58601151D01*
X80312467Y-58799565D01*
X80389885Y-58986467D01*
X80502277Y-59154674D01*
X80645326Y-59297723D01*
X80813533Y-59410115D01*
X81000435Y-59487533D01*
X81198849Y-59527000D01*
X81401151Y-59527000D01*
X81599565Y-59487533D01*
X81786467Y-59410115D01*
X81954674Y-59297723D01*
X82097723Y-59154674D01*
X82210115Y-58986467D01*
X82287533Y-58799565D01*
X82298000Y-58746942D01*
X82298000Y-69747389D01*
X81972625Y-69260430D01*
X81439570Y-68727375D01*
X80812764Y-68308557D01*
X80116295Y-68020070D01*
X79376927Y-67873000D01*
X78623073Y-67873000D01*
X77883705Y-68020070D01*
X77187236Y-68308557D01*
X76560430Y-68727375D01*
X76027375Y-69260430D01*
X75608557Y-69887236D01*
X75320070Y-70583705D01*
X75173000Y-71323073D01*
X75173000Y-72076927D01*
X75320070Y-72816295D01*
X75608557Y-73512764D01*
X76027375Y-74139570D01*
X76560430Y-74672625D01*
X77187236Y-75091443D01*
X77685909Y-75298000D01*
X43627000Y-75298000D01*
X43627000Y-70401967D01*
X43699565Y-70387533D01*
X43886467Y-70310115D01*
X44054674Y-70197723D01*
X44197723Y-70054674D01*
X44310115Y-69886467D01*
X44387533Y-69699565D01*
X44427000Y-69501151D01*
X44427000Y-69298849D01*
X44387533Y-69100435D01*
X44310115Y-68913533D01*
X44197723Y-68745326D01*
X44054674Y-68602277D01*
X43886467Y-68489885D01*
X43699565Y-68412467D01*
X43627000Y-68398033D01*
X43627000Y-65600000D01*
X48511928Y-65600000D01*
X48524188Y-65724482D01*
X48560498Y-65844180D01*
X48619463Y-65954494D01*
X48698815Y-66051185D01*
X48795506Y-66130537D01*
X48905820Y-66189502D01*
X48987060Y-66214146D01*
X48852739Y-66348467D01*
X48691099Y-66590378D01*
X48579760Y-66859175D01*
X48523000Y-67144528D01*
X48523000Y-67435472D01*
X48579760Y-67720825D01*
X48691099Y-67989622D01*
X48852739Y-68231533D01*
X49058467Y-68437261D01*
X49300378Y-68598901D01*
X49569175Y-68710240D01*
X49854528Y-68767000D01*
X50145472Y-68767000D01*
X50430825Y-68710240D01*
X50699622Y-68598901D01*
X50941533Y-68437261D01*
X51147261Y-68231533D01*
X51270000Y-68047841D01*
X51392739Y-68231533D01*
X51598467Y-68437261D01*
X51840378Y-68598901D01*
X52109175Y-68710240D01*
X52394528Y-68767000D01*
X52685472Y-68767000D01*
X52970825Y-68710240D01*
X53239622Y-68598901D01*
X53481533Y-68437261D01*
X53687261Y-68231533D01*
X53810000Y-68047841D01*
X53932739Y-68231533D01*
X54138467Y-68437261D01*
X54380378Y-68598901D01*
X54649175Y-68710240D01*
X54934528Y-68767000D01*
X55225472Y-68767000D01*
X55510825Y-68710240D01*
X55779622Y-68598901D01*
X56021533Y-68437261D01*
X56227261Y-68231533D01*
X56350000Y-68047841D01*
X56472739Y-68231533D01*
X56678467Y-68437261D01*
X56920378Y-68598901D01*
X57189175Y-68710240D01*
X57474528Y-68767000D01*
X57765472Y-68767000D01*
X58050825Y-68710240D01*
X58319622Y-68598901D01*
X58561533Y-68437261D01*
X58767261Y-68231533D01*
X58890000Y-68047841D01*
X59012739Y-68231533D01*
X59218467Y-68437261D01*
X59460378Y-68598901D01*
X59729175Y-68710240D01*
X60014528Y-68767000D01*
X60305472Y-68767000D01*
X60590825Y-68710240D01*
X60859622Y-68598901D01*
X61101533Y-68437261D01*
X61307261Y-68231533D01*
X61430000Y-68047841D01*
X61552739Y-68231533D01*
X61758467Y-68437261D01*
X62000378Y-68598901D01*
X62269175Y-68710240D01*
X62554528Y-68767000D01*
X62845472Y-68767000D01*
X63130825Y-68710240D01*
X63399622Y-68598901D01*
X63641533Y-68437261D01*
X63847261Y-68231533D01*
X63970000Y-68047841D01*
X64092739Y-68231533D01*
X64298467Y-68437261D01*
X64540378Y-68598901D01*
X64809175Y-68710240D01*
X65094528Y-68767000D01*
X65385472Y-68767000D01*
X65670825Y-68710240D01*
X65939622Y-68598901D01*
X66181533Y-68437261D01*
X66387261Y-68231533D01*
X66510000Y-68047841D01*
X66632739Y-68231533D01*
X66838467Y-68437261D01*
X67080378Y-68598901D01*
X67349175Y-68710240D01*
X67634528Y-68767000D01*
X67925472Y-68767000D01*
X68210825Y-68710240D01*
X68479622Y-68598901D01*
X68721533Y-68437261D01*
X68927261Y-68231533D01*
X69088901Y-67989622D01*
X69200240Y-67720825D01*
X69257000Y-67435472D01*
X69257000Y-67144528D01*
X69200240Y-66859175D01*
X69088901Y-66590378D01*
X68930073Y-66352675D01*
X79282009Y-66352675D01*
X79282009Y-66597325D01*
X79329738Y-66837275D01*
X79423362Y-67063303D01*
X79559283Y-67266723D01*
X79732277Y-67439717D01*
X79935697Y-67575638D01*
X80161725Y-67669262D01*
X80401675Y-67716991D01*
X80646325Y-67716991D01*
X80886275Y-67669262D01*
X81112303Y-67575638D01*
X81315723Y-67439717D01*
X81488717Y-67266723D01*
X81624638Y-67063303D01*
X81718262Y-66837275D01*
X81765991Y-66597325D01*
X81765991Y-66352675D01*
X81718262Y-66112725D01*
X81624638Y-65886697D01*
X81488717Y-65683277D01*
X81315723Y-65510283D01*
X81112303Y-65374362D01*
X80886275Y-65280738D01*
X80646325Y-65233009D01*
X80401675Y-65233009D01*
X80161725Y-65280738D01*
X79935697Y-65374362D01*
X79732277Y-65510283D01*
X79559283Y-65683277D01*
X79423362Y-65886697D01*
X79329738Y-66112725D01*
X79282009Y-66352675D01*
X68930073Y-66352675D01*
X68927261Y-66348467D01*
X68721533Y-66142739D01*
X68537841Y-66020000D01*
X68721533Y-65897261D01*
X68927261Y-65691533D01*
X69088901Y-65449622D01*
X69200240Y-65180825D01*
X69257000Y-64895472D01*
X69257000Y-64848849D01*
X71473000Y-64848849D01*
X71473000Y-65051151D01*
X71512467Y-65249565D01*
X71589885Y-65436467D01*
X71702277Y-65604674D01*
X71845326Y-65747723D01*
X72013533Y-65860115D01*
X72200435Y-65937533D01*
X72398849Y-65977000D01*
X72601151Y-65977000D01*
X72799565Y-65937533D01*
X72986467Y-65860115D01*
X73154674Y-65747723D01*
X73297723Y-65604674D01*
X73410115Y-65436467D01*
X73487533Y-65249565D01*
X73527000Y-65051151D01*
X73527000Y-64848849D01*
X73512708Y-64777000D01*
X73601151Y-64777000D01*
X73799565Y-64737533D01*
X73986467Y-64660115D01*
X74154674Y-64547723D01*
X74297723Y-64404674D01*
X74410115Y-64236467D01*
X74487533Y-64049565D01*
X74527000Y-63851151D01*
X74527000Y-63648849D01*
X74492817Y-63477000D01*
X74551151Y-63477000D01*
X74749565Y-63437533D01*
X74936467Y-63360115D01*
X75104674Y-63247723D01*
X75247723Y-63104674D01*
X75360115Y-62936467D01*
X75437533Y-62749565D01*
X75477000Y-62551151D01*
X75477000Y-62348849D01*
X75437533Y-62150435D01*
X75360115Y-61963533D01*
X75247723Y-61795326D01*
X75104674Y-61652277D01*
X74936467Y-61539885D01*
X74749565Y-61462467D01*
X74551151Y-61423000D01*
X74348849Y-61423000D01*
X74150435Y-61462467D01*
X73963533Y-61539885D01*
X73795326Y-61652277D01*
X73652277Y-61795326D01*
X73539885Y-61963533D01*
X73462467Y-62150435D01*
X73423000Y-62348849D01*
X73423000Y-62551151D01*
X73457183Y-62723000D01*
X73398849Y-62723000D01*
X73200435Y-62762467D01*
X73013533Y-62839885D01*
X72845326Y-62952277D01*
X72702277Y-63095326D01*
X72589885Y-63263533D01*
X72512467Y-63450435D01*
X72473000Y-63648849D01*
X72473000Y-63851151D01*
X72487292Y-63923000D01*
X72398849Y-63923000D01*
X72200435Y-63962467D01*
X72013533Y-64039885D01*
X71845326Y-64152277D01*
X71702277Y-64295326D01*
X71589885Y-64463533D01*
X71512467Y-64650435D01*
X71473000Y-64848849D01*
X69257000Y-64848849D01*
X69257000Y-64604528D01*
X69200240Y-64319175D01*
X69088901Y-64050378D01*
X68927261Y-63808467D01*
X68721533Y-63602739D01*
X68479622Y-63441099D01*
X68210825Y-63329760D01*
X67925472Y-63273000D01*
X67634528Y-63273000D01*
X67349175Y-63329760D01*
X67080378Y-63441099D01*
X66838467Y-63602739D01*
X66632739Y-63808467D01*
X66510000Y-63992159D01*
X66387261Y-63808467D01*
X66181533Y-63602739D01*
X65939622Y-63441099D01*
X65670825Y-63329760D01*
X65385472Y-63273000D01*
X65094528Y-63273000D01*
X64809175Y-63329760D01*
X64540378Y-63441099D01*
X64298467Y-63602739D01*
X64092739Y-63808467D01*
X63970000Y-63992159D01*
X63847261Y-63808467D01*
X63641533Y-63602739D01*
X63399622Y-63441099D01*
X63130825Y-63329760D01*
X62845472Y-63273000D01*
X62554528Y-63273000D01*
X62269175Y-63329760D01*
X62000378Y-63441099D01*
X61758467Y-63602739D01*
X61552739Y-63808467D01*
X61430000Y-63992159D01*
X61307261Y-63808467D01*
X61101533Y-63602739D01*
X60859622Y-63441099D01*
X60590825Y-63329760D01*
X60305472Y-63273000D01*
X60014528Y-63273000D01*
X59729175Y-63329760D01*
X59460378Y-63441099D01*
X59218467Y-63602739D01*
X59012739Y-63808467D01*
X58890000Y-63992159D01*
X58767261Y-63808467D01*
X58561533Y-63602739D01*
X58319622Y-63441099D01*
X58050825Y-63329760D01*
X57765472Y-63273000D01*
X57474528Y-63273000D01*
X57189175Y-63329760D01*
X56920378Y-63441099D01*
X56678467Y-63602739D01*
X56472739Y-63808467D01*
X56350000Y-63992159D01*
X56227261Y-63808467D01*
X56021533Y-63602739D01*
X55779622Y-63441099D01*
X55510825Y-63329760D01*
X55225472Y-63273000D01*
X54934528Y-63273000D01*
X54649175Y-63329760D01*
X54380378Y-63441099D01*
X54138467Y-63602739D01*
X53932739Y-63808467D01*
X53810000Y-63992159D01*
X53687261Y-63808467D01*
X53481533Y-63602739D01*
X53239622Y-63441099D01*
X52970825Y-63329760D01*
X52685472Y-63273000D01*
X52394528Y-63273000D01*
X52109175Y-63329760D01*
X51840378Y-63441099D01*
X51598467Y-63602739D01*
X51464146Y-63737060D01*
X51439502Y-63655820D01*
X51380537Y-63545506D01*
X51301185Y-63448815D01*
X51204494Y-63369463D01*
X51094180Y-63310498D01*
X50974482Y-63274188D01*
X50850000Y-63261928D01*
X50285750Y-63265000D01*
X50127000Y-63423750D01*
X50127000Y-64623000D01*
X50147000Y-64623000D01*
X50147000Y-64877000D01*
X50127000Y-64877000D01*
X50127000Y-64897000D01*
X49873000Y-64897000D01*
X49873000Y-64877000D01*
X48673750Y-64877000D01*
X48515000Y-65035750D01*
X48511928Y-65600000D01*
X43627000Y-65600000D01*
X43627000Y-64042333D01*
X43733749Y-63900000D01*
X48511928Y-63900000D01*
X48515000Y-64464250D01*
X48673750Y-64623000D01*
X49873000Y-64623000D01*
X49873000Y-63423750D01*
X49714250Y-63265000D01*
X49150000Y-63261928D01*
X49025518Y-63274188D01*
X48905820Y-63310498D01*
X48795506Y-63369463D01*
X48698815Y-63448815D01*
X48619463Y-63545506D01*
X48560498Y-63655820D01*
X48524188Y-63775518D01*
X48511928Y-63900000D01*
X43733749Y-63900000D01*
X45063500Y-62127000D01*
X61750000Y-62127000D01*
X61774776Y-62124560D01*
X61798601Y-62117333D01*
X61829336Y-62099170D01*
X65579336Y-59099170D01*
X65597159Y-59081787D01*
X65611248Y-59061261D01*
X65621062Y-59038380D01*
X65626223Y-59014025D01*
X65627000Y-59000000D01*
X65627000Y-57998849D01*
X67823000Y-57998849D01*
X67823000Y-58201151D01*
X67862467Y-58399565D01*
X67939885Y-58586467D01*
X68052277Y-58754674D01*
X68195326Y-58897723D01*
X68363533Y-59010115D01*
X68550435Y-59087533D01*
X68748849Y-59127000D01*
X68951151Y-59127000D01*
X69149565Y-59087533D01*
X69336467Y-59010115D01*
X69504674Y-58897723D01*
X69647723Y-58754674D01*
X69760115Y-58586467D01*
X69837533Y-58399565D01*
X69877000Y-58201151D01*
X69877000Y-57998849D01*
X69837533Y-57800435D01*
X69760115Y-57613533D01*
X69647723Y-57445326D01*
X69504674Y-57302277D01*
X69336467Y-57189885D01*
X69149565Y-57112467D01*
X68951151Y-57073000D01*
X68748849Y-57073000D01*
X68550435Y-57112467D01*
X68363533Y-57189885D01*
X68195326Y-57302277D01*
X68052277Y-57445326D01*
X67939885Y-57613533D01*
X67862467Y-57800435D01*
X67823000Y-57998849D01*
X65627000Y-57998849D01*
X65627000Y-55127000D01*
X68647237Y-55127000D01*
X68623000Y-55248849D01*
X68623000Y-55451151D01*
X68662467Y-55649565D01*
X68739885Y-55836467D01*
X68852277Y-56004674D01*
X68995326Y-56147723D01*
X69163533Y-56260115D01*
X69197775Y-56274298D01*
X69173000Y-56398849D01*
X69173000Y-56601151D01*
X69212467Y-56799565D01*
X69289885Y-56986467D01*
X69402277Y-57154674D01*
X69545326Y-57297723D01*
X69713533Y-57410115D01*
X69900435Y-57487533D01*
X70098849Y-57527000D01*
X70301151Y-57527000D01*
X70499565Y-57487533D01*
X70686467Y-57410115D01*
X70854674Y-57297723D01*
X70997723Y-57154674D01*
X71110115Y-56986467D01*
X71187533Y-56799565D01*
X71227000Y-56601151D01*
X71227000Y-56398849D01*
X71187533Y-56200435D01*
X71110115Y-56013533D01*
X70997723Y-55845326D01*
X70854674Y-55702277D01*
X70686467Y-55589885D01*
X70652225Y-55575702D01*
X70677000Y-55451151D01*
X70677000Y-55248849D01*
X70637533Y-55050435D01*
X70560115Y-54863533D01*
X70447723Y-54695326D01*
X70304674Y-54552277D01*
X70136467Y-54439885D01*
X70127000Y-54435964D01*
X70127000Y-49822654D01*
X70148849Y-49827000D01*
X70351151Y-49827000D01*
X70549565Y-49787533D01*
X70736467Y-49710115D01*
X70904674Y-49597723D01*
X71047723Y-49454674D01*
X71160115Y-49286467D01*
X71237533Y-49099565D01*
X71277000Y-48901151D01*
X71277000Y-48698849D01*
X71262708Y-48627000D01*
X82298001Y-48627000D01*
X82298001Y-50153059D01*
G37*
%TD.AperFunction*%
%TD*%
M02*
