%TF.GenerationSoftware,KiCad,Pcbnew,(5.1.9)-1*%
%TF.CreationDate,2021-11-15T23:12:41-03:00*%
%TF.ProjectId,RepeaterBoard,52657065-6174-4657-9242-6f6172642e6b,rev?*%
%TF.SameCoordinates,Original*%
%TF.FileFunction,Soldermask,Top*%
%TF.FilePolarity,Negative*%
%FSLAX46Y46*%
G04 Gerber Fmt 4.6, Leading zero omitted, Abs format (unit mm)*
G04 Created by KiCad (PCBNEW (5.1.9)-1) date 2021-11-15 23:12:41*
%MOMM*%
%LPD*%
G01*
G04 APERTURE LIST*
%ADD10R,0.450000X1.475000*%
%ADD11R,3.150000X1.000000*%
%ADD12C,2.600000*%
%ADD13R,2.600000X2.600000*%
%ADD14R,1.700000X1.700000*%
%ADD15O,1.700000X1.700000*%
%ADD16C,2.000000*%
%ADD17R,3.800000X2.000000*%
%ADD18R,1.500000X2.000000*%
%ADD19C,0.800000*%
%ADD20C,6.400000*%
%ADD21R,2.000000X5.500000*%
G04 APERTURE END LIST*
D10*
%TO.C,IC2*%
X68750000Y-50388000D03*
X68100000Y-50388000D03*
X67450000Y-50388000D03*
X66800000Y-50388000D03*
X66150000Y-50388000D03*
X65500000Y-50388000D03*
X64850000Y-50388000D03*
X64850000Y-44512000D03*
X65500000Y-44512000D03*
X66150000Y-44512000D03*
X66800000Y-44512000D03*
X67450000Y-44512000D03*
X68100000Y-44512000D03*
X68750000Y-44512000D03*
%TD*%
%TO.C,IC1*%
X67500000Y-59788000D03*
X66850000Y-59788000D03*
X66200000Y-59788000D03*
X65550000Y-59788000D03*
X64900000Y-59788000D03*
X64250000Y-59788000D03*
X63600000Y-59788000D03*
X63600000Y-53912000D03*
X64250000Y-53912000D03*
X64900000Y-53912000D03*
X65550000Y-53912000D03*
X66200000Y-53912000D03*
X66850000Y-53912000D03*
X67500000Y-53912000D03*
%TD*%
D11*
%TO.C,J4*%
X64725000Y-28170000D03*
X69775000Y-28170000D03*
X64725000Y-30710000D03*
X69775000Y-30710000D03*
X64725000Y-33250000D03*
X69775000Y-33250000D03*
X64725000Y-35790000D03*
X69775000Y-35790000D03*
X64725000Y-38330000D03*
X69775000Y-38330000D03*
%TD*%
%TO.C,R1*%
G36*
G01*
X43725000Y-72375000D02*
X43175000Y-72375000D01*
G75*
G02*
X42975000Y-72175000I0J200000D01*
G01*
X42975000Y-71775000D01*
G75*
G02*
X43175000Y-71575000I200000J0D01*
G01*
X43725000Y-71575000D01*
G75*
G02*
X43925000Y-71775000I0J-200000D01*
G01*
X43925000Y-72175000D01*
G75*
G02*
X43725000Y-72375000I-200000J0D01*
G01*
G37*
G36*
G01*
X43725000Y-70725000D02*
X43175000Y-70725000D01*
G75*
G02*
X42975000Y-70525000I0J200000D01*
G01*
X42975000Y-70125000D01*
G75*
G02*
X43175000Y-69925000I200000J0D01*
G01*
X43725000Y-69925000D01*
G75*
G02*
X43925000Y-70125000I0J-200000D01*
G01*
X43925000Y-70525000D01*
G75*
G02*
X43725000Y-70725000I-200000J0D01*
G01*
G37*
%TD*%
%TO.C,D1*%
G36*
G01*
X45506250Y-72375000D02*
X44993750Y-72375000D01*
G75*
G02*
X44775000Y-72156250I0J218750D01*
G01*
X44775000Y-71718750D01*
G75*
G02*
X44993750Y-71500000I218750J0D01*
G01*
X45506250Y-71500000D01*
G75*
G02*
X45725000Y-71718750I0J-218750D01*
G01*
X45725000Y-72156250D01*
G75*
G02*
X45506250Y-72375000I-218750J0D01*
G01*
G37*
G36*
G01*
X45506250Y-70800000D02*
X44993750Y-70800000D01*
G75*
G02*
X44775000Y-70581250I0J218750D01*
G01*
X44775000Y-70143750D01*
G75*
G02*
X44993750Y-69925000I218750J0D01*
G01*
X45506250Y-69925000D01*
G75*
G02*
X45725000Y-70143750I0J-218750D01*
G01*
X45725000Y-70581250D01*
G75*
G02*
X45506250Y-70800000I-218750J0D01*
G01*
G37*
%TD*%
D12*
%TO.C,J1*%
X77750000Y-39500000D03*
D13*
X77750000Y-44500000D03*
%TD*%
%TO.C,C2*%
G36*
G01*
X35750000Y-65974999D02*
X35750000Y-66825001D01*
G75*
G02*
X35500001Y-67075000I-249999J0D01*
G01*
X34599999Y-67075000D01*
G75*
G02*
X34350000Y-66825001I0J249999D01*
G01*
X34350000Y-65974999D01*
G75*
G02*
X34599999Y-65725000I249999J0D01*
G01*
X35500001Y-65725000D01*
G75*
G02*
X35750000Y-65974999I0J-249999D01*
G01*
G37*
G36*
G01*
X38450000Y-65974999D02*
X38450000Y-66825001D01*
G75*
G02*
X38200001Y-67075000I-249999J0D01*
G01*
X37299999Y-67075000D01*
G75*
G02*
X37050000Y-66825001I0J249999D01*
G01*
X37050000Y-65974999D01*
G75*
G02*
X37299999Y-65725000I249999J0D01*
G01*
X38200001Y-65725000D01*
G75*
G02*
X38450000Y-65974999I0J-249999D01*
G01*
G37*
%TD*%
%TO.C,C1*%
G36*
G01*
X43125001Y-61750000D02*
X42274999Y-61750000D01*
G75*
G02*
X42025000Y-61500001I0J249999D01*
G01*
X42025000Y-60599999D01*
G75*
G02*
X42274999Y-60350000I249999J0D01*
G01*
X43125001Y-60350000D01*
G75*
G02*
X43375000Y-60599999I0J-249999D01*
G01*
X43375000Y-61500001D01*
G75*
G02*
X43125001Y-61750000I-249999J0D01*
G01*
G37*
G36*
G01*
X43125001Y-64450000D02*
X42274999Y-64450000D01*
G75*
G02*
X42025000Y-64200001I0J249999D01*
G01*
X42025000Y-63299999D01*
G75*
G02*
X42274999Y-63050000I249999J0D01*
G01*
X43125001Y-63050000D01*
G75*
G02*
X43375000Y-63299999I0J-249999D01*
G01*
X43375000Y-64200001D01*
G75*
G02*
X43125001Y-64450000I-249999J0D01*
G01*
G37*
%TD*%
%TO.C,C3*%
G36*
G01*
X50800000Y-40475000D02*
X50800000Y-39525000D01*
G75*
G02*
X51050000Y-39275000I250000J0D01*
G01*
X51550000Y-39275000D01*
G75*
G02*
X51800000Y-39525000I0J-250000D01*
G01*
X51800000Y-40475000D01*
G75*
G02*
X51550000Y-40725000I-250000J0D01*
G01*
X51050000Y-40725000D01*
G75*
G02*
X50800000Y-40475000I0J250000D01*
G01*
G37*
G36*
G01*
X52700000Y-40475000D02*
X52700000Y-39525000D01*
G75*
G02*
X52950000Y-39275000I250000J0D01*
G01*
X53450000Y-39275000D01*
G75*
G02*
X53700000Y-39525000I0J-250000D01*
G01*
X53700000Y-40475000D01*
G75*
G02*
X53450000Y-40725000I-250000J0D01*
G01*
X52950000Y-40725000D01*
G75*
G02*
X52700000Y-40475000I0J250000D01*
G01*
G37*
%TD*%
%TO.C,C4*%
G36*
G01*
X53760000Y-56330000D02*
X53760000Y-56670000D01*
G75*
G02*
X53620000Y-56810000I-140000J0D01*
G01*
X53340000Y-56810000D01*
G75*
G02*
X53200000Y-56670000I0J140000D01*
G01*
X53200000Y-56330000D01*
G75*
G02*
X53340000Y-56190000I140000J0D01*
G01*
X53620000Y-56190000D01*
G75*
G02*
X53760000Y-56330000I0J-140000D01*
G01*
G37*
G36*
G01*
X52800000Y-56330000D02*
X52800000Y-56670000D01*
G75*
G02*
X52660000Y-56810000I-140000J0D01*
G01*
X52380000Y-56810000D01*
G75*
G02*
X52240000Y-56670000I0J140000D01*
G01*
X52240000Y-56330000D01*
G75*
G02*
X52380000Y-56190000I140000J0D01*
G01*
X52660000Y-56190000D01*
G75*
G02*
X52800000Y-56330000I0J-140000D01*
G01*
G37*
%TD*%
%TO.C,C5*%
G36*
G01*
X59900000Y-56330000D02*
X59900000Y-56670000D01*
G75*
G02*
X59760000Y-56810000I-140000J0D01*
G01*
X59480000Y-56810000D01*
G75*
G02*
X59340000Y-56670000I0J140000D01*
G01*
X59340000Y-56330000D01*
G75*
G02*
X59480000Y-56190000I140000J0D01*
G01*
X59760000Y-56190000D01*
G75*
G02*
X59900000Y-56330000I0J-140000D01*
G01*
G37*
G36*
G01*
X60860000Y-56330000D02*
X60860000Y-56670000D01*
G75*
G02*
X60720000Y-56810000I-140000J0D01*
G01*
X60440000Y-56810000D01*
G75*
G02*
X60300000Y-56670000I0J140000D01*
G01*
X60300000Y-56330000D01*
G75*
G02*
X60440000Y-56190000I140000J0D01*
G01*
X60720000Y-56190000D01*
G75*
G02*
X60860000Y-56330000I0J-140000D01*
G01*
G37*
%TD*%
%TO.C,C6*%
G36*
G01*
X63030000Y-45300000D02*
X63370000Y-45300000D01*
G75*
G02*
X63510000Y-45440000I0J-140000D01*
G01*
X63510000Y-45720000D01*
G75*
G02*
X63370000Y-45860000I-140000J0D01*
G01*
X63030000Y-45860000D01*
G75*
G02*
X62890000Y-45720000I0J140000D01*
G01*
X62890000Y-45440000D01*
G75*
G02*
X63030000Y-45300000I140000J0D01*
G01*
G37*
G36*
G01*
X63030000Y-44340000D02*
X63370000Y-44340000D01*
G75*
G02*
X63510000Y-44480000I0J-140000D01*
G01*
X63510000Y-44760000D01*
G75*
G02*
X63370000Y-44900000I-140000J0D01*
G01*
X63030000Y-44900000D01*
G75*
G02*
X62890000Y-44760000I0J140000D01*
G01*
X62890000Y-44480000D01*
G75*
G02*
X63030000Y-44340000I140000J0D01*
G01*
G37*
%TD*%
%TO.C,C7*%
G36*
G01*
X51740000Y-41670000D02*
X51740000Y-41330000D01*
G75*
G02*
X51880000Y-41190000I140000J0D01*
G01*
X52160000Y-41190000D01*
G75*
G02*
X52300000Y-41330000I0J-140000D01*
G01*
X52300000Y-41670000D01*
G75*
G02*
X52160000Y-41810000I-140000J0D01*
G01*
X51880000Y-41810000D01*
G75*
G02*
X51740000Y-41670000I0J140000D01*
G01*
G37*
G36*
G01*
X52700000Y-41670000D02*
X52700000Y-41330000D01*
G75*
G02*
X52840000Y-41190000I140000J0D01*
G01*
X53120000Y-41190000D01*
G75*
G02*
X53260000Y-41330000I0J-140000D01*
G01*
X53260000Y-41670000D01*
G75*
G02*
X53120000Y-41810000I-140000J0D01*
G01*
X52840000Y-41810000D01*
G75*
G02*
X52700000Y-41670000I0J140000D01*
G01*
G37*
%TD*%
%TO.C,C8*%
G36*
G01*
X49660000Y-43830000D02*
X49660000Y-44170000D01*
G75*
G02*
X49520000Y-44310000I-140000J0D01*
G01*
X49240000Y-44310000D01*
G75*
G02*
X49100000Y-44170000I0J140000D01*
G01*
X49100000Y-43830000D01*
G75*
G02*
X49240000Y-43690000I140000J0D01*
G01*
X49520000Y-43690000D01*
G75*
G02*
X49660000Y-43830000I0J-140000D01*
G01*
G37*
G36*
G01*
X48700000Y-43830000D02*
X48700000Y-44170000D01*
G75*
G02*
X48560000Y-44310000I-140000J0D01*
G01*
X48280000Y-44310000D01*
G75*
G02*
X48140000Y-44170000I0J140000D01*
G01*
X48140000Y-43830000D01*
G75*
G02*
X48280000Y-43690000I140000J0D01*
G01*
X48560000Y-43690000D01*
G75*
G02*
X48700000Y-43830000I0J-140000D01*
G01*
G37*
%TD*%
%TO.C,C9*%
G36*
G01*
X48350000Y-53925000D02*
X48350000Y-54875000D01*
G75*
G02*
X48100000Y-55125000I-250000J0D01*
G01*
X47600000Y-55125000D01*
G75*
G02*
X47350000Y-54875000I0J250000D01*
G01*
X47350000Y-53925000D01*
G75*
G02*
X47600000Y-53675000I250000J0D01*
G01*
X48100000Y-53675000D01*
G75*
G02*
X48350000Y-53925000I0J-250000D01*
G01*
G37*
G36*
G01*
X50250000Y-53925000D02*
X50250000Y-54875000D01*
G75*
G02*
X50000000Y-55125000I-250000J0D01*
G01*
X49500000Y-55125000D01*
G75*
G02*
X49250000Y-54875000I0J250000D01*
G01*
X49250000Y-53925000D01*
G75*
G02*
X49500000Y-53675000I250000J0D01*
G01*
X50000000Y-53675000D01*
G75*
G02*
X50250000Y-53925000I0J-250000D01*
G01*
G37*
%TD*%
%TO.C,C10*%
G36*
G01*
X48770000Y-50800000D02*
X48430000Y-50800000D01*
G75*
G02*
X48290000Y-50660000I0J140000D01*
G01*
X48290000Y-50380000D01*
G75*
G02*
X48430000Y-50240000I140000J0D01*
G01*
X48770000Y-50240000D01*
G75*
G02*
X48910000Y-50380000I0J-140000D01*
G01*
X48910000Y-50660000D01*
G75*
G02*
X48770000Y-50800000I-140000J0D01*
G01*
G37*
G36*
G01*
X48770000Y-51760000D02*
X48430000Y-51760000D01*
G75*
G02*
X48290000Y-51620000I0J140000D01*
G01*
X48290000Y-51340000D01*
G75*
G02*
X48430000Y-51200000I140000J0D01*
G01*
X48770000Y-51200000D01*
G75*
G02*
X48910000Y-51340000I0J-140000D01*
G01*
X48910000Y-51620000D01*
G75*
G02*
X48770000Y-51760000I-140000J0D01*
G01*
G37*
%TD*%
%TO.C,C11*%
G36*
G01*
X70370000Y-58560000D02*
X70030000Y-58560000D01*
G75*
G02*
X69890000Y-58420000I0J140000D01*
G01*
X69890000Y-58140000D01*
G75*
G02*
X70030000Y-58000000I140000J0D01*
G01*
X70370000Y-58000000D01*
G75*
G02*
X70510000Y-58140000I0J-140000D01*
G01*
X70510000Y-58420000D01*
G75*
G02*
X70370000Y-58560000I-140000J0D01*
G01*
G37*
G36*
G01*
X70370000Y-57600000D02*
X70030000Y-57600000D01*
G75*
G02*
X69890000Y-57460000I0J140000D01*
G01*
X69890000Y-57180000D01*
G75*
G02*
X70030000Y-57040000I140000J0D01*
G01*
X70370000Y-57040000D01*
G75*
G02*
X70510000Y-57180000I0J-140000D01*
G01*
X70510000Y-57460000D01*
G75*
G02*
X70370000Y-57600000I-140000J0D01*
G01*
G37*
%TD*%
%TO.C,C12*%
G36*
G01*
X39330000Y-44700000D02*
X39670000Y-44700000D01*
G75*
G02*
X39810000Y-44840000I0J-140000D01*
G01*
X39810000Y-45120000D01*
G75*
G02*
X39670000Y-45260000I-140000J0D01*
G01*
X39330000Y-45260000D01*
G75*
G02*
X39190000Y-45120000I0J140000D01*
G01*
X39190000Y-44840000D01*
G75*
G02*
X39330000Y-44700000I140000J0D01*
G01*
G37*
G36*
G01*
X39330000Y-43740000D02*
X39670000Y-43740000D01*
G75*
G02*
X39810000Y-43880000I0J-140000D01*
G01*
X39810000Y-44160000D01*
G75*
G02*
X39670000Y-44300000I-140000J0D01*
G01*
X39330000Y-44300000D01*
G75*
G02*
X39190000Y-44160000I0J140000D01*
G01*
X39190000Y-43880000D01*
G75*
G02*
X39330000Y-43740000I140000J0D01*
G01*
G37*
%TD*%
%TO.C,C13*%
G36*
G01*
X39720000Y-51010000D02*
X39380000Y-51010000D01*
G75*
G02*
X39240000Y-50870000I0J140000D01*
G01*
X39240000Y-50590000D01*
G75*
G02*
X39380000Y-50450000I140000J0D01*
G01*
X39720000Y-50450000D01*
G75*
G02*
X39860000Y-50590000I0J-140000D01*
G01*
X39860000Y-50870000D01*
G75*
G02*
X39720000Y-51010000I-140000J0D01*
G01*
G37*
G36*
G01*
X39720000Y-50050000D02*
X39380000Y-50050000D01*
G75*
G02*
X39240000Y-49910000I0J140000D01*
G01*
X39240000Y-49630000D01*
G75*
G02*
X39380000Y-49490000I140000J0D01*
G01*
X39720000Y-49490000D01*
G75*
G02*
X39860000Y-49630000I0J-140000D01*
G01*
X39860000Y-49910000D01*
G75*
G02*
X39720000Y-50050000I-140000J0D01*
G01*
G37*
%TD*%
%TO.C,C14*%
G36*
G01*
X77100000Y-59825000D02*
X77100000Y-60775000D01*
G75*
G02*
X76850000Y-61025000I-250000J0D01*
G01*
X76350000Y-61025000D01*
G75*
G02*
X76100000Y-60775000I0J250000D01*
G01*
X76100000Y-59825000D01*
G75*
G02*
X76350000Y-59575000I250000J0D01*
G01*
X76850000Y-59575000D01*
G75*
G02*
X77100000Y-59825000I0J-250000D01*
G01*
G37*
G36*
G01*
X75200000Y-59825000D02*
X75200000Y-60775000D01*
G75*
G02*
X74950000Y-61025000I-250000J0D01*
G01*
X74450000Y-61025000D01*
G75*
G02*
X74200000Y-60775000I0J250000D01*
G01*
X74200000Y-59825000D01*
G75*
G02*
X74450000Y-59575000I250000J0D01*
G01*
X74950000Y-59575000D01*
G75*
G02*
X75200000Y-59825000I0J-250000D01*
G01*
G37*
%TD*%
%TO.C,C15*%
G36*
G01*
X80125000Y-53950000D02*
X79175000Y-53950000D01*
G75*
G02*
X78925000Y-53700000I0J250000D01*
G01*
X78925000Y-53200000D01*
G75*
G02*
X79175000Y-52950000I250000J0D01*
G01*
X80125000Y-52950000D01*
G75*
G02*
X80375000Y-53200000I0J-250000D01*
G01*
X80375000Y-53700000D01*
G75*
G02*
X80125000Y-53950000I-250000J0D01*
G01*
G37*
G36*
G01*
X80125000Y-55850000D02*
X79175000Y-55850000D01*
G75*
G02*
X78925000Y-55600000I0J250000D01*
G01*
X78925000Y-55100000D01*
G75*
G02*
X79175000Y-54850000I250000J0D01*
G01*
X80125000Y-54850000D01*
G75*
G02*
X80375000Y-55100000I0J-250000D01*
G01*
X80375000Y-55600000D01*
G75*
G02*
X80125000Y-55850000I-250000J0D01*
G01*
G37*
%TD*%
%TO.C,C16*%
G36*
G01*
X78900000Y-57675000D02*
X78900000Y-56725000D01*
G75*
G02*
X79150000Y-56475000I250000J0D01*
G01*
X79650000Y-56475000D01*
G75*
G02*
X79900000Y-56725000I0J-250000D01*
G01*
X79900000Y-57675000D01*
G75*
G02*
X79650000Y-57925000I-250000J0D01*
G01*
X79150000Y-57925000D01*
G75*
G02*
X78900000Y-57675000I0J250000D01*
G01*
G37*
G36*
G01*
X80800000Y-57675000D02*
X80800000Y-56725000D01*
G75*
G02*
X81050000Y-56475000I250000J0D01*
G01*
X81550000Y-56475000D01*
G75*
G02*
X81800000Y-56725000I0J-250000D01*
G01*
X81800000Y-57675000D01*
G75*
G02*
X81550000Y-57925000I-250000J0D01*
G01*
X81050000Y-57925000D01*
G75*
G02*
X80800000Y-57675000I0J250000D01*
G01*
G37*
%TD*%
%TO.C,C17*%
G36*
G01*
X80800000Y-52075000D02*
X80800000Y-51125000D01*
G75*
G02*
X81050000Y-50875000I250000J0D01*
G01*
X81550000Y-50875000D01*
G75*
G02*
X81800000Y-51125000I0J-250000D01*
G01*
X81800000Y-52075000D01*
G75*
G02*
X81550000Y-52325000I-250000J0D01*
G01*
X81050000Y-52325000D01*
G75*
G02*
X80800000Y-52075000I0J250000D01*
G01*
G37*
G36*
G01*
X78900000Y-52075000D02*
X78900000Y-51125000D01*
G75*
G02*
X79150000Y-50875000I250000J0D01*
G01*
X79650000Y-50875000D01*
G75*
G02*
X79900000Y-51125000I0J-250000D01*
G01*
X79900000Y-52075000D01*
G75*
G02*
X79650000Y-52325000I-250000J0D01*
G01*
X79150000Y-52325000D01*
G75*
G02*
X78900000Y-52075000I0J250000D01*
G01*
G37*
%TD*%
%TO.C,C18*%
G36*
G01*
X48170000Y-40800000D02*
X47830000Y-40800000D01*
G75*
G02*
X47690000Y-40660000I0J140000D01*
G01*
X47690000Y-40380000D01*
G75*
G02*
X47830000Y-40240000I140000J0D01*
G01*
X48170000Y-40240000D01*
G75*
G02*
X48310000Y-40380000I0J-140000D01*
G01*
X48310000Y-40660000D01*
G75*
G02*
X48170000Y-40800000I-140000J0D01*
G01*
G37*
G36*
G01*
X48170000Y-41760000D02*
X47830000Y-41760000D01*
G75*
G02*
X47690000Y-41620000I0J140000D01*
G01*
X47690000Y-41340000D01*
G75*
G02*
X47830000Y-41200000I140000J0D01*
G01*
X48170000Y-41200000D01*
G75*
G02*
X48310000Y-41340000I0J-140000D01*
G01*
X48310000Y-41620000D01*
G75*
G02*
X48170000Y-41760000I-140000J0D01*
G01*
G37*
%TD*%
%TO.C,D2*%
G36*
G01*
X36556250Y-48825000D02*
X36043750Y-48825000D01*
G75*
G02*
X35825000Y-48606250I0J218750D01*
G01*
X35825000Y-48168750D01*
G75*
G02*
X36043750Y-47950000I218750J0D01*
G01*
X36556250Y-47950000D01*
G75*
G02*
X36775000Y-48168750I0J-218750D01*
G01*
X36775000Y-48606250D01*
G75*
G02*
X36556250Y-48825000I-218750J0D01*
G01*
G37*
G36*
G01*
X36556250Y-47250000D02*
X36043750Y-47250000D01*
G75*
G02*
X35825000Y-47031250I0J218750D01*
G01*
X35825000Y-46593750D01*
G75*
G02*
X36043750Y-46375000I218750J0D01*
G01*
X36556250Y-46375000D01*
G75*
G02*
X36775000Y-46593750I0J-218750D01*
G01*
X36775000Y-47031250D01*
G75*
G02*
X36556250Y-47250000I-218750J0D01*
G01*
G37*
%TD*%
%TO.C,D3*%
G36*
G01*
X68825000Y-42243750D02*
X68825000Y-42756250D01*
G75*
G02*
X68606250Y-42975000I-218750J0D01*
G01*
X68168750Y-42975000D01*
G75*
G02*
X67950000Y-42756250I0J218750D01*
G01*
X67950000Y-42243750D01*
G75*
G02*
X68168750Y-42025000I218750J0D01*
G01*
X68606250Y-42025000D01*
G75*
G02*
X68825000Y-42243750I0J-218750D01*
G01*
G37*
G36*
G01*
X67250000Y-42243750D02*
X67250000Y-42756250D01*
G75*
G02*
X67031250Y-42975000I-218750J0D01*
G01*
X66593750Y-42975000D01*
G75*
G02*
X66375000Y-42756250I0J218750D01*
G01*
X66375000Y-42243750D01*
G75*
G02*
X66593750Y-42025000I218750J0D01*
G01*
X67031250Y-42025000D01*
G75*
G02*
X67250000Y-42243750I0J-218750D01*
G01*
G37*
%TD*%
D14*
%TO.C,J2*%
X58800000Y-34500000D03*
D15*
X56260000Y-34500000D03*
X53720000Y-34500000D03*
X51180000Y-34500000D03*
%TD*%
D14*
%TO.C,J3*%
X50000000Y-64750000D03*
D15*
X50000000Y-67290000D03*
X52540000Y-64750000D03*
X52540000Y-67290000D03*
X55080000Y-64750000D03*
X55080000Y-67290000D03*
X57620000Y-64750000D03*
X57620000Y-67290000D03*
X60160000Y-64750000D03*
X60160000Y-67290000D03*
X62700000Y-64750000D03*
X62700000Y-67290000D03*
X65240000Y-64750000D03*
X65240000Y-67290000D03*
X67780000Y-64750000D03*
X67780000Y-67290000D03*
%TD*%
%TO.C,R2*%
G36*
G01*
X34875000Y-48825000D02*
X34325000Y-48825000D01*
G75*
G02*
X34125000Y-48625000I0J200000D01*
G01*
X34125000Y-48225000D01*
G75*
G02*
X34325000Y-48025000I200000J0D01*
G01*
X34875000Y-48025000D01*
G75*
G02*
X35075000Y-48225000I0J-200000D01*
G01*
X35075000Y-48625000D01*
G75*
G02*
X34875000Y-48825000I-200000J0D01*
G01*
G37*
G36*
G01*
X34875000Y-47175000D02*
X34325000Y-47175000D01*
G75*
G02*
X34125000Y-46975000I0J200000D01*
G01*
X34125000Y-46575000D01*
G75*
G02*
X34325000Y-46375000I200000J0D01*
G01*
X34875000Y-46375000D01*
G75*
G02*
X35075000Y-46575000I0J-200000D01*
G01*
X35075000Y-46975000D01*
G75*
G02*
X34875000Y-47175000I-200000J0D01*
G01*
G37*
%TD*%
%TO.C,R3*%
G36*
G01*
X48880000Y-47915000D02*
X48880000Y-48285000D01*
G75*
G02*
X48745000Y-48420000I-135000J0D01*
G01*
X48475000Y-48420000D01*
G75*
G02*
X48340000Y-48285000I0J135000D01*
G01*
X48340000Y-47915000D01*
G75*
G02*
X48475000Y-47780000I135000J0D01*
G01*
X48745000Y-47780000D01*
G75*
G02*
X48880000Y-47915000I0J-135000D01*
G01*
G37*
G36*
G01*
X47860000Y-47915000D02*
X47860000Y-48285000D01*
G75*
G02*
X47725000Y-48420000I-135000J0D01*
G01*
X47455000Y-48420000D01*
G75*
G02*
X47320000Y-48285000I0J135000D01*
G01*
X47320000Y-47915000D01*
G75*
G02*
X47455000Y-47780000I135000J0D01*
G01*
X47725000Y-47780000D01*
G75*
G02*
X47860000Y-47915000I0J-135000D01*
G01*
G37*
%TD*%
%TO.C,R4*%
G36*
G01*
X57975000Y-37625000D02*
X57975000Y-38175000D01*
G75*
G02*
X57775000Y-38375000I-200000J0D01*
G01*
X57375000Y-38375000D01*
G75*
G02*
X57175000Y-38175000I0J200000D01*
G01*
X57175000Y-37625000D01*
G75*
G02*
X57375000Y-37425000I200000J0D01*
G01*
X57775000Y-37425000D01*
G75*
G02*
X57975000Y-37625000I0J-200000D01*
G01*
G37*
G36*
G01*
X56325000Y-37625000D02*
X56325000Y-38175000D01*
G75*
G02*
X56125000Y-38375000I-200000J0D01*
G01*
X55725000Y-38375000D01*
G75*
G02*
X55525000Y-38175000I0J200000D01*
G01*
X55525000Y-37625000D01*
G75*
G02*
X55725000Y-37425000I200000J0D01*
G01*
X56125000Y-37425000D01*
G75*
G02*
X56325000Y-37625000I0J-200000D01*
G01*
G37*
%TD*%
%TO.C,R5*%
G36*
G01*
X53425000Y-38175000D02*
X53425000Y-37625000D01*
G75*
G02*
X53625000Y-37425000I200000J0D01*
G01*
X54025000Y-37425000D01*
G75*
G02*
X54225000Y-37625000I0J-200000D01*
G01*
X54225000Y-38175000D01*
G75*
G02*
X54025000Y-38375000I-200000J0D01*
G01*
X53625000Y-38375000D01*
G75*
G02*
X53425000Y-38175000I0J200000D01*
G01*
G37*
G36*
G01*
X51775000Y-38175000D02*
X51775000Y-37625000D01*
G75*
G02*
X51975000Y-37425000I200000J0D01*
G01*
X52375000Y-37425000D01*
G75*
G02*
X52575000Y-37625000I0J-200000D01*
G01*
X52575000Y-38175000D01*
G75*
G02*
X52375000Y-38375000I-200000J0D01*
G01*
X51975000Y-38375000D01*
G75*
G02*
X51775000Y-38175000I0J200000D01*
G01*
G37*
%TD*%
%TO.C,R6*%
G36*
G01*
X49775000Y-41725000D02*
X49225000Y-41725000D01*
G75*
G02*
X49025000Y-41525000I0J200000D01*
G01*
X49025000Y-41125000D01*
G75*
G02*
X49225000Y-40925000I200000J0D01*
G01*
X49775000Y-40925000D01*
G75*
G02*
X49975000Y-41125000I0J-200000D01*
G01*
X49975000Y-41525000D01*
G75*
G02*
X49775000Y-41725000I-200000J0D01*
G01*
G37*
G36*
G01*
X49775000Y-40075000D02*
X49225000Y-40075000D01*
G75*
G02*
X49025000Y-39875000I0J200000D01*
G01*
X49025000Y-39475000D01*
G75*
G02*
X49225000Y-39275000I200000J0D01*
G01*
X49775000Y-39275000D01*
G75*
G02*
X49975000Y-39475000I0J-200000D01*
G01*
X49975000Y-39875000D01*
G75*
G02*
X49775000Y-40075000I-200000J0D01*
G01*
G37*
%TD*%
%TO.C,R7*%
G36*
G01*
X61025000Y-58275000D02*
X61025000Y-57725000D01*
G75*
G02*
X61225000Y-57525000I200000J0D01*
G01*
X61625000Y-57525000D01*
G75*
G02*
X61825000Y-57725000I0J-200000D01*
G01*
X61825000Y-58275000D01*
G75*
G02*
X61625000Y-58475000I-200000J0D01*
G01*
X61225000Y-58475000D01*
G75*
G02*
X61025000Y-58275000I0J200000D01*
G01*
G37*
G36*
G01*
X59375000Y-58275000D02*
X59375000Y-57725000D01*
G75*
G02*
X59575000Y-57525000I200000J0D01*
G01*
X59975000Y-57525000D01*
G75*
G02*
X60175000Y-57725000I0J-200000D01*
G01*
X60175000Y-58275000D01*
G75*
G02*
X59975000Y-58475000I-200000J0D01*
G01*
X59575000Y-58475000D01*
G75*
G02*
X59375000Y-58275000I0J200000D01*
G01*
G37*
%TD*%
%TO.C,R8*%
G36*
G01*
X69975000Y-42775000D02*
X69975000Y-42225000D01*
G75*
G02*
X70175000Y-42025000I200000J0D01*
G01*
X70575000Y-42025000D01*
G75*
G02*
X70775000Y-42225000I0J-200000D01*
G01*
X70775000Y-42775000D01*
G75*
G02*
X70575000Y-42975000I-200000J0D01*
G01*
X70175000Y-42975000D01*
G75*
G02*
X69975000Y-42775000I0J200000D01*
G01*
G37*
G36*
G01*
X71625000Y-42775000D02*
X71625000Y-42225000D01*
G75*
G02*
X71825000Y-42025000I200000J0D01*
G01*
X72225000Y-42025000D01*
G75*
G02*
X72425000Y-42225000I0J-200000D01*
G01*
X72425000Y-42775000D01*
G75*
G02*
X72225000Y-42975000I-200000J0D01*
G01*
X71825000Y-42975000D01*
G75*
G02*
X71625000Y-42775000I0J200000D01*
G01*
G37*
%TD*%
D16*
%TO.C,SW1*%
X46600000Y-34500000D03*
X42100000Y-34500000D03*
X46600000Y-28000000D03*
X42100000Y-28000000D03*
%TD*%
D17*
%TO.C,U1*%
X37700000Y-57250000D03*
D18*
X37700000Y-63550000D03*
X40000000Y-63550000D03*
X35400000Y-63550000D03*
%TD*%
%TO.C,U2*%
G36*
G01*
X73150000Y-57025000D02*
X73150000Y-57325000D01*
G75*
G02*
X73000000Y-57475000I-150000J0D01*
G01*
X71300000Y-57475000D01*
G75*
G02*
X71150000Y-57325000I0J150000D01*
G01*
X71150000Y-57025000D01*
G75*
G02*
X71300000Y-56875000I150000J0D01*
G01*
X73000000Y-56875000D01*
G75*
G02*
X73150000Y-57025000I0J-150000D01*
G01*
G37*
G36*
G01*
X73150000Y-55755000D02*
X73150000Y-56055000D01*
G75*
G02*
X73000000Y-56205000I-150000J0D01*
G01*
X71300000Y-56205000D01*
G75*
G02*
X71150000Y-56055000I0J150000D01*
G01*
X71150000Y-55755000D01*
G75*
G02*
X71300000Y-55605000I150000J0D01*
G01*
X73000000Y-55605000D01*
G75*
G02*
X73150000Y-55755000I0J-150000D01*
G01*
G37*
G36*
G01*
X73150000Y-49405000D02*
X73150000Y-49705000D01*
G75*
G02*
X73000000Y-49855000I-150000J0D01*
G01*
X71300000Y-49855000D01*
G75*
G02*
X71150000Y-49705000I0J150000D01*
G01*
X71150000Y-49405000D01*
G75*
G02*
X71300000Y-49255000I150000J0D01*
G01*
X73000000Y-49255000D01*
G75*
G02*
X73150000Y-49405000I0J-150000D01*
G01*
G37*
G36*
G01*
X78150000Y-50675000D02*
X78150000Y-50975000D01*
G75*
G02*
X78000000Y-51125000I-150000J0D01*
G01*
X76300000Y-51125000D01*
G75*
G02*
X76150000Y-50975000I0J150000D01*
G01*
X76150000Y-50675000D01*
G75*
G02*
X76300000Y-50525000I150000J0D01*
G01*
X78000000Y-50525000D01*
G75*
G02*
X78150000Y-50675000I0J-150000D01*
G01*
G37*
G36*
G01*
X78150000Y-58295000D02*
X78150000Y-58595000D01*
G75*
G02*
X78000000Y-58745000I-150000J0D01*
G01*
X76300000Y-58745000D01*
G75*
G02*
X76150000Y-58595000I0J150000D01*
G01*
X76150000Y-58295000D01*
G75*
G02*
X76300000Y-58145000I150000J0D01*
G01*
X78000000Y-58145000D01*
G75*
G02*
X78150000Y-58295000I0J-150000D01*
G01*
G37*
G36*
G01*
X78150000Y-55755000D02*
X78150000Y-56055000D01*
G75*
G02*
X78000000Y-56205000I-150000J0D01*
G01*
X76300000Y-56205000D01*
G75*
G02*
X76150000Y-56055000I0J150000D01*
G01*
X76150000Y-55755000D01*
G75*
G02*
X76300000Y-55605000I150000J0D01*
G01*
X78000000Y-55605000D01*
G75*
G02*
X78150000Y-55755000I0J-150000D01*
G01*
G37*
G36*
G01*
X78150000Y-53215000D02*
X78150000Y-53515000D01*
G75*
G02*
X78000000Y-53665000I-150000J0D01*
G01*
X76300000Y-53665000D01*
G75*
G02*
X76150000Y-53515000I0J150000D01*
G01*
X76150000Y-53215000D01*
G75*
G02*
X76300000Y-53065000I150000J0D01*
G01*
X78000000Y-53065000D01*
G75*
G02*
X78150000Y-53215000I0J-150000D01*
G01*
G37*
G36*
G01*
X78150000Y-54485000D02*
X78150000Y-54785000D01*
G75*
G02*
X78000000Y-54935000I-150000J0D01*
G01*
X76300000Y-54935000D01*
G75*
G02*
X76150000Y-54785000I0J150000D01*
G01*
X76150000Y-54485000D01*
G75*
G02*
X76300000Y-54335000I150000J0D01*
G01*
X78000000Y-54335000D01*
G75*
G02*
X78150000Y-54485000I0J-150000D01*
G01*
G37*
G36*
G01*
X73150000Y-58295000D02*
X73150000Y-58595000D01*
G75*
G02*
X73000000Y-58745000I-150000J0D01*
G01*
X71300000Y-58745000D01*
G75*
G02*
X71150000Y-58595000I0J150000D01*
G01*
X71150000Y-58295000D01*
G75*
G02*
X71300000Y-58145000I150000J0D01*
G01*
X73000000Y-58145000D01*
G75*
G02*
X73150000Y-58295000I0J-150000D01*
G01*
G37*
G36*
G01*
X73150000Y-54485000D02*
X73150000Y-54785000D01*
G75*
G02*
X73000000Y-54935000I-150000J0D01*
G01*
X71300000Y-54935000D01*
G75*
G02*
X71150000Y-54785000I0J150000D01*
G01*
X71150000Y-54485000D01*
G75*
G02*
X71300000Y-54335000I150000J0D01*
G01*
X73000000Y-54335000D01*
G75*
G02*
X73150000Y-54485000I0J-150000D01*
G01*
G37*
G36*
G01*
X78150000Y-49405000D02*
X78150000Y-49705000D01*
G75*
G02*
X78000000Y-49855000I-150000J0D01*
G01*
X76300000Y-49855000D01*
G75*
G02*
X76150000Y-49705000I0J150000D01*
G01*
X76150000Y-49405000D01*
G75*
G02*
X76300000Y-49255000I150000J0D01*
G01*
X78000000Y-49255000D01*
G75*
G02*
X78150000Y-49405000I0J-150000D01*
G01*
G37*
G36*
G01*
X73150000Y-53215000D02*
X73150000Y-53515000D01*
G75*
G02*
X73000000Y-53665000I-150000J0D01*
G01*
X71300000Y-53665000D01*
G75*
G02*
X71150000Y-53515000I0J150000D01*
G01*
X71150000Y-53215000D01*
G75*
G02*
X71300000Y-53065000I150000J0D01*
G01*
X73000000Y-53065000D01*
G75*
G02*
X73150000Y-53215000I0J-150000D01*
G01*
G37*
G36*
G01*
X73150000Y-50675000D02*
X73150000Y-50975000D01*
G75*
G02*
X73000000Y-51125000I-150000J0D01*
G01*
X71300000Y-51125000D01*
G75*
G02*
X71150000Y-50975000I0J150000D01*
G01*
X71150000Y-50675000D01*
G75*
G02*
X71300000Y-50525000I150000J0D01*
G01*
X73000000Y-50525000D01*
G75*
G02*
X73150000Y-50675000I0J-150000D01*
G01*
G37*
G36*
G01*
X73150000Y-51945000D02*
X73150000Y-52245000D01*
G75*
G02*
X73000000Y-52395000I-150000J0D01*
G01*
X71300000Y-52395000D01*
G75*
G02*
X71150000Y-52245000I0J150000D01*
G01*
X71150000Y-51945000D01*
G75*
G02*
X71300000Y-51795000I150000J0D01*
G01*
X73000000Y-51795000D01*
G75*
G02*
X73150000Y-51945000I0J-150000D01*
G01*
G37*
G36*
G01*
X78150000Y-57025000D02*
X78150000Y-57325000D01*
G75*
G02*
X78000000Y-57475000I-150000J0D01*
G01*
X76300000Y-57475000D01*
G75*
G02*
X76150000Y-57325000I0J150000D01*
G01*
X76150000Y-57025000D01*
G75*
G02*
X76300000Y-56875000I150000J0D01*
G01*
X78000000Y-56875000D01*
G75*
G02*
X78150000Y-57025000I0J-150000D01*
G01*
G37*
G36*
G01*
X78150000Y-51945000D02*
X78150000Y-52245000D01*
G75*
G02*
X78000000Y-52395000I-150000J0D01*
G01*
X76300000Y-52395000D01*
G75*
G02*
X76150000Y-52245000I0J150000D01*
G01*
X76150000Y-51945000D01*
G75*
G02*
X76300000Y-51795000I150000J0D01*
G01*
X78000000Y-51795000D01*
G75*
G02*
X78150000Y-51945000I0J-150000D01*
G01*
G37*
%TD*%
%TO.C,U3*%
G36*
G01*
X49550000Y-45325000D02*
X49550000Y-45175000D01*
G75*
G02*
X49625000Y-45100000I75000J0D01*
G01*
X51025000Y-45100000D01*
G75*
G02*
X51100000Y-45175000I0J-75000D01*
G01*
X51100000Y-45325000D01*
G75*
G02*
X51025000Y-45400000I-75000J0D01*
G01*
X49625000Y-45400000D01*
G75*
G02*
X49550000Y-45325000I0J75000D01*
G01*
G37*
G36*
G01*
X49550000Y-45825000D02*
X49550000Y-45675000D01*
G75*
G02*
X49625000Y-45600000I75000J0D01*
G01*
X51025000Y-45600000D01*
G75*
G02*
X51100000Y-45675000I0J-75000D01*
G01*
X51100000Y-45825000D01*
G75*
G02*
X51025000Y-45900000I-75000J0D01*
G01*
X49625000Y-45900000D01*
G75*
G02*
X49550000Y-45825000I0J75000D01*
G01*
G37*
G36*
G01*
X49550000Y-46325000D02*
X49550000Y-46175000D01*
G75*
G02*
X49625000Y-46100000I75000J0D01*
G01*
X51025000Y-46100000D01*
G75*
G02*
X51100000Y-46175000I0J-75000D01*
G01*
X51100000Y-46325000D01*
G75*
G02*
X51025000Y-46400000I-75000J0D01*
G01*
X49625000Y-46400000D01*
G75*
G02*
X49550000Y-46325000I0J75000D01*
G01*
G37*
G36*
G01*
X49550000Y-46825000D02*
X49550000Y-46675000D01*
G75*
G02*
X49625000Y-46600000I75000J0D01*
G01*
X51025000Y-46600000D01*
G75*
G02*
X51100000Y-46675000I0J-75000D01*
G01*
X51100000Y-46825000D01*
G75*
G02*
X51025000Y-46900000I-75000J0D01*
G01*
X49625000Y-46900000D01*
G75*
G02*
X49550000Y-46825000I0J75000D01*
G01*
G37*
G36*
G01*
X49550000Y-47325000D02*
X49550000Y-47175000D01*
G75*
G02*
X49625000Y-47100000I75000J0D01*
G01*
X51025000Y-47100000D01*
G75*
G02*
X51100000Y-47175000I0J-75000D01*
G01*
X51100000Y-47325000D01*
G75*
G02*
X51025000Y-47400000I-75000J0D01*
G01*
X49625000Y-47400000D01*
G75*
G02*
X49550000Y-47325000I0J75000D01*
G01*
G37*
G36*
G01*
X49550000Y-47825000D02*
X49550000Y-47675000D01*
G75*
G02*
X49625000Y-47600000I75000J0D01*
G01*
X51025000Y-47600000D01*
G75*
G02*
X51100000Y-47675000I0J-75000D01*
G01*
X51100000Y-47825000D01*
G75*
G02*
X51025000Y-47900000I-75000J0D01*
G01*
X49625000Y-47900000D01*
G75*
G02*
X49550000Y-47825000I0J75000D01*
G01*
G37*
G36*
G01*
X49550000Y-48325000D02*
X49550000Y-48175000D01*
G75*
G02*
X49625000Y-48100000I75000J0D01*
G01*
X51025000Y-48100000D01*
G75*
G02*
X51100000Y-48175000I0J-75000D01*
G01*
X51100000Y-48325000D01*
G75*
G02*
X51025000Y-48400000I-75000J0D01*
G01*
X49625000Y-48400000D01*
G75*
G02*
X49550000Y-48325000I0J75000D01*
G01*
G37*
G36*
G01*
X49550000Y-48825000D02*
X49550000Y-48675000D01*
G75*
G02*
X49625000Y-48600000I75000J0D01*
G01*
X51025000Y-48600000D01*
G75*
G02*
X51100000Y-48675000I0J-75000D01*
G01*
X51100000Y-48825000D01*
G75*
G02*
X51025000Y-48900000I-75000J0D01*
G01*
X49625000Y-48900000D01*
G75*
G02*
X49550000Y-48825000I0J75000D01*
G01*
G37*
G36*
G01*
X49550000Y-49325000D02*
X49550000Y-49175000D01*
G75*
G02*
X49625000Y-49100000I75000J0D01*
G01*
X51025000Y-49100000D01*
G75*
G02*
X51100000Y-49175000I0J-75000D01*
G01*
X51100000Y-49325000D01*
G75*
G02*
X51025000Y-49400000I-75000J0D01*
G01*
X49625000Y-49400000D01*
G75*
G02*
X49550000Y-49325000I0J75000D01*
G01*
G37*
G36*
G01*
X49550000Y-49825000D02*
X49550000Y-49675000D01*
G75*
G02*
X49625000Y-49600000I75000J0D01*
G01*
X51025000Y-49600000D01*
G75*
G02*
X51100000Y-49675000I0J-75000D01*
G01*
X51100000Y-49825000D01*
G75*
G02*
X51025000Y-49900000I-75000J0D01*
G01*
X49625000Y-49900000D01*
G75*
G02*
X49550000Y-49825000I0J75000D01*
G01*
G37*
G36*
G01*
X49550000Y-50325000D02*
X49550000Y-50175000D01*
G75*
G02*
X49625000Y-50100000I75000J0D01*
G01*
X51025000Y-50100000D01*
G75*
G02*
X51100000Y-50175000I0J-75000D01*
G01*
X51100000Y-50325000D01*
G75*
G02*
X51025000Y-50400000I-75000J0D01*
G01*
X49625000Y-50400000D01*
G75*
G02*
X49550000Y-50325000I0J75000D01*
G01*
G37*
G36*
G01*
X49550000Y-50825000D02*
X49550000Y-50675000D01*
G75*
G02*
X49625000Y-50600000I75000J0D01*
G01*
X51025000Y-50600000D01*
G75*
G02*
X51100000Y-50675000I0J-75000D01*
G01*
X51100000Y-50825000D01*
G75*
G02*
X51025000Y-50900000I-75000J0D01*
G01*
X49625000Y-50900000D01*
G75*
G02*
X49550000Y-50825000I0J75000D01*
G01*
G37*
G36*
G01*
X49550000Y-51325000D02*
X49550000Y-51175000D01*
G75*
G02*
X49625000Y-51100000I75000J0D01*
G01*
X51025000Y-51100000D01*
G75*
G02*
X51100000Y-51175000I0J-75000D01*
G01*
X51100000Y-51325000D01*
G75*
G02*
X51025000Y-51400000I-75000J0D01*
G01*
X49625000Y-51400000D01*
G75*
G02*
X49550000Y-51325000I0J75000D01*
G01*
G37*
G36*
G01*
X49550000Y-51825000D02*
X49550000Y-51675000D01*
G75*
G02*
X49625000Y-51600000I75000J0D01*
G01*
X51025000Y-51600000D01*
G75*
G02*
X51100000Y-51675000I0J-75000D01*
G01*
X51100000Y-51825000D01*
G75*
G02*
X51025000Y-51900000I-75000J0D01*
G01*
X49625000Y-51900000D01*
G75*
G02*
X49550000Y-51825000I0J75000D01*
G01*
G37*
G36*
G01*
X49550000Y-52325000D02*
X49550000Y-52175000D01*
G75*
G02*
X49625000Y-52100000I75000J0D01*
G01*
X51025000Y-52100000D01*
G75*
G02*
X51100000Y-52175000I0J-75000D01*
G01*
X51100000Y-52325000D01*
G75*
G02*
X51025000Y-52400000I-75000J0D01*
G01*
X49625000Y-52400000D01*
G75*
G02*
X49550000Y-52325000I0J75000D01*
G01*
G37*
G36*
G01*
X49550000Y-52825000D02*
X49550000Y-52675000D01*
G75*
G02*
X49625000Y-52600000I75000J0D01*
G01*
X51025000Y-52600000D01*
G75*
G02*
X51100000Y-52675000I0J-75000D01*
G01*
X51100000Y-52825000D01*
G75*
G02*
X51025000Y-52900000I-75000J0D01*
G01*
X49625000Y-52900000D01*
G75*
G02*
X49550000Y-52825000I0J75000D01*
G01*
G37*
G36*
G01*
X52100000Y-55375000D02*
X52100000Y-53975000D01*
G75*
G02*
X52175000Y-53900000I75000J0D01*
G01*
X52325000Y-53900000D01*
G75*
G02*
X52400000Y-53975000I0J-75000D01*
G01*
X52400000Y-55375000D01*
G75*
G02*
X52325000Y-55450000I-75000J0D01*
G01*
X52175000Y-55450000D01*
G75*
G02*
X52100000Y-55375000I0J75000D01*
G01*
G37*
G36*
G01*
X52600000Y-55375000D02*
X52600000Y-53975000D01*
G75*
G02*
X52675000Y-53900000I75000J0D01*
G01*
X52825000Y-53900000D01*
G75*
G02*
X52900000Y-53975000I0J-75000D01*
G01*
X52900000Y-55375000D01*
G75*
G02*
X52825000Y-55450000I-75000J0D01*
G01*
X52675000Y-55450000D01*
G75*
G02*
X52600000Y-55375000I0J75000D01*
G01*
G37*
G36*
G01*
X53100000Y-55375000D02*
X53100000Y-53975000D01*
G75*
G02*
X53175000Y-53900000I75000J0D01*
G01*
X53325000Y-53900000D01*
G75*
G02*
X53400000Y-53975000I0J-75000D01*
G01*
X53400000Y-55375000D01*
G75*
G02*
X53325000Y-55450000I-75000J0D01*
G01*
X53175000Y-55450000D01*
G75*
G02*
X53100000Y-55375000I0J75000D01*
G01*
G37*
G36*
G01*
X53600000Y-55375000D02*
X53600000Y-53975000D01*
G75*
G02*
X53675000Y-53900000I75000J0D01*
G01*
X53825000Y-53900000D01*
G75*
G02*
X53900000Y-53975000I0J-75000D01*
G01*
X53900000Y-55375000D01*
G75*
G02*
X53825000Y-55450000I-75000J0D01*
G01*
X53675000Y-55450000D01*
G75*
G02*
X53600000Y-55375000I0J75000D01*
G01*
G37*
G36*
G01*
X54100000Y-55375000D02*
X54100000Y-53975000D01*
G75*
G02*
X54175000Y-53900000I75000J0D01*
G01*
X54325000Y-53900000D01*
G75*
G02*
X54400000Y-53975000I0J-75000D01*
G01*
X54400000Y-55375000D01*
G75*
G02*
X54325000Y-55450000I-75000J0D01*
G01*
X54175000Y-55450000D01*
G75*
G02*
X54100000Y-55375000I0J75000D01*
G01*
G37*
G36*
G01*
X54600000Y-55375000D02*
X54600000Y-53975000D01*
G75*
G02*
X54675000Y-53900000I75000J0D01*
G01*
X54825000Y-53900000D01*
G75*
G02*
X54900000Y-53975000I0J-75000D01*
G01*
X54900000Y-55375000D01*
G75*
G02*
X54825000Y-55450000I-75000J0D01*
G01*
X54675000Y-55450000D01*
G75*
G02*
X54600000Y-55375000I0J75000D01*
G01*
G37*
G36*
G01*
X55100000Y-55375000D02*
X55100000Y-53975000D01*
G75*
G02*
X55175000Y-53900000I75000J0D01*
G01*
X55325000Y-53900000D01*
G75*
G02*
X55400000Y-53975000I0J-75000D01*
G01*
X55400000Y-55375000D01*
G75*
G02*
X55325000Y-55450000I-75000J0D01*
G01*
X55175000Y-55450000D01*
G75*
G02*
X55100000Y-55375000I0J75000D01*
G01*
G37*
G36*
G01*
X55600000Y-55375000D02*
X55600000Y-53975000D01*
G75*
G02*
X55675000Y-53900000I75000J0D01*
G01*
X55825000Y-53900000D01*
G75*
G02*
X55900000Y-53975000I0J-75000D01*
G01*
X55900000Y-55375000D01*
G75*
G02*
X55825000Y-55450000I-75000J0D01*
G01*
X55675000Y-55450000D01*
G75*
G02*
X55600000Y-55375000I0J75000D01*
G01*
G37*
G36*
G01*
X56100000Y-55375000D02*
X56100000Y-53975000D01*
G75*
G02*
X56175000Y-53900000I75000J0D01*
G01*
X56325000Y-53900000D01*
G75*
G02*
X56400000Y-53975000I0J-75000D01*
G01*
X56400000Y-55375000D01*
G75*
G02*
X56325000Y-55450000I-75000J0D01*
G01*
X56175000Y-55450000D01*
G75*
G02*
X56100000Y-55375000I0J75000D01*
G01*
G37*
G36*
G01*
X56600000Y-55375000D02*
X56600000Y-53975000D01*
G75*
G02*
X56675000Y-53900000I75000J0D01*
G01*
X56825000Y-53900000D01*
G75*
G02*
X56900000Y-53975000I0J-75000D01*
G01*
X56900000Y-55375000D01*
G75*
G02*
X56825000Y-55450000I-75000J0D01*
G01*
X56675000Y-55450000D01*
G75*
G02*
X56600000Y-55375000I0J75000D01*
G01*
G37*
G36*
G01*
X57100000Y-55375000D02*
X57100000Y-53975000D01*
G75*
G02*
X57175000Y-53900000I75000J0D01*
G01*
X57325000Y-53900000D01*
G75*
G02*
X57400000Y-53975000I0J-75000D01*
G01*
X57400000Y-55375000D01*
G75*
G02*
X57325000Y-55450000I-75000J0D01*
G01*
X57175000Y-55450000D01*
G75*
G02*
X57100000Y-55375000I0J75000D01*
G01*
G37*
G36*
G01*
X57600000Y-55375000D02*
X57600000Y-53975000D01*
G75*
G02*
X57675000Y-53900000I75000J0D01*
G01*
X57825000Y-53900000D01*
G75*
G02*
X57900000Y-53975000I0J-75000D01*
G01*
X57900000Y-55375000D01*
G75*
G02*
X57825000Y-55450000I-75000J0D01*
G01*
X57675000Y-55450000D01*
G75*
G02*
X57600000Y-55375000I0J75000D01*
G01*
G37*
G36*
G01*
X58100000Y-55375000D02*
X58100000Y-53975000D01*
G75*
G02*
X58175000Y-53900000I75000J0D01*
G01*
X58325000Y-53900000D01*
G75*
G02*
X58400000Y-53975000I0J-75000D01*
G01*
X58400000Y-55375000D01*
G75*
G02*
X58325000Y-55450000I-75000J0D01*
G01*
X58175000Y-55450000D01*
G75*
G02*
X58100000Y-55375000I0J75000D01*
G01*
G37*
G36*
G01*
X58600000Y-55375000D02*
X58600000Y-53975000D01*
G75*
G02*
X58675000Y-53900000I75000J0D01*
G01*
X58825000Y-53900000D01*
G75*
G02*
X58900000Y-53975000I0J-75000D01*
G01*
X58900000Y-55375000D01*
G75*
G02*
X58825000Y-55450000I-75000J0D01*
G01*
X58675000Y-55450000D01*
G75*
G02*
X58600000Y-55375000I0J75000D01*
G01*
G37*
G36*
G01*
X59100000Y-55375000D02*
X59100000Y-53975000D01*
G75*
G02*
X59175000Y-53900000I75000J0D01*
G01*
X59325000Y-53900000D01*
G75*
G02*
X59400000Y-53975000I0J-75000D01*
G01*
X59400000Y-55375000D01*
G75*
G02*
X59325000Y-55450000I-75000J0D01*
G01*
X59175000Y-55450000D01*
G75*
G02*
X59100000Y-55375000I0J75000D01*
G01*
G37*
G36*
G01*
X59600000Y-55375000D02*
X59600000Y-53975000D01*
G75*
G02*
X59675000Y-53900000I75000J0D01*
G01*
X59825000Y-53900000D01*
G75*
G02*
X59900000Y-53975000I0J-75000D01*
G01*
X59900000Y-55375000D01*
G75*
G02*
X59825000Y-55450000I-75000J0D01*
G01*
X59675000Y-55450000D01*
G75*
G02*
X59600000Y-55375000I0J75000D01*
G01*
G37*
G36*
G01*
X60900000Y-52825000D02*
X60900000Y-52675000D01*
G75*
G02*
X60975000Y-52600000I75000J0D01*
G01*
X62375000Y-52600000D01*
G75*
G02*
X62450000Y-52675000I0J-75000D01*
G01*
X62450000Y-52825000D01*
G75*
G02*
X62375000Y-52900000I-75000J0D01*
G01*
X60975000Y-52900000D01*
G75*
G02*
X60900000Y-52825000I0J75000D01*
G01*
G37*
G36*
G01*
X60900000Y-52325000D02*
X60900000Y-52175000D01*
G75*
G02*
X60975000Y-52100000I75000J0D01*
G01*
X62375000Y-52100000D01*
G75*
G02*
X62450000Y-52175000I0J-75000D01*
G01*
X62450000Y-52325000D01*
G75*
G02*
X62375000Y-52400000I-75000J0D01*
G01*
X60975000Y-52400000D01*
G75*
G02*
X60900000Y-52325000I0J75000D01*
G01*
G37*
G36*
G01*
X60900000Y-51825000D02*
X60900000Y-51675000D01*
G75*
G02*
X60975000Y-51600000I75000J0D01*
G01*
X62375000Y-51600000D01*
G75*
G02*
X62450000Y-51675000I0J-75000D01*
G01*
X62450000Y-51825000D01*
G75*
G02*
X62375000Y-51900000I-75000J0D01*
G01*
X60975000Y-51900000D01*
G75*
G02*
X60900000Y-51825000I0J75000D01*
G01*
G37*
G36*
G01*
X60900000Y-51325000D02*
X60900000Y-51175000D01*
G75*
G02*
X60975000Y-51100000I75000J0D01*
G01*
X62375000Y-51100000D01*
G75*
G02*
X62450000Y-51175000I0J-75000D01*
G01*
X62450000Y-51325000D01*
G75*
G02*
X62375000Y-51400000I-75000J0D01*
G01*
X60975000Y-51400000D01*
G75*
G02*
X60900000Y-51325000I0J75000D01*
G01*
G37*
G36*
G01*
X60900000Y-50825000D02*
X60900000Y-50675000D01*
G75*
G02*
X60975000Y-50600000I75000J0D01*
G01*
X62375000Y-50600000D01*
G75*
G02*
X62450000Y-50675000I0J-75000D01*
G01*
X62450000Y-50825000D01*
G75*
G02*
X62375000Y-50900000I-75000J0D01*
G01*
X60975000Y-50900000D01*
G75*
G02*
X60900000Y-50825000I0J75000D01*
G01*
G37*
G36*
G01*
X60900000Y-50325000D02*
X60900000Y-50175000D01*
G75*
G02*
X60975000Y-50100000I75000J0D01*
G01*
X62375000Y-50100000D01*
G75*
G02*
X62450000Y-50175000I0J-75000D01*
G01*
X62450000Y-50325000D01*
G75*
G02*
X62375000Y-50400000I-75000J0D01*
G01*
X60975000Y-50400000D01*
G75*
G02*
X60900000Y-50325000I0J75000D01*
G01*
G37*
G36*
G01*
X60900000Y-49825000D02*
X60900000Y-49675000D01*
G75*
G02*
X60975000Y-49600000I75000J0D01*
G01*
X62375000Y-49600000D01*
G75*
G02*
X62450000Y-49675000I0J-75000D01*
G01*
X62450000Y-49825000D01*
G75*
G02*
X62375000Y-49900000I-75000J0D01*
G01*
X60975000Y-49900000D01*
G75*
G02*
X60900000Y-49825000I0J75000D01*
G01*
G37*
G36*
G01*
X60900000Y-49325000D02*
X60900000Y-49175000D01*
G75*
G02*
X60975000Y-49100000I75000J0D01*
G01*
X62375000Y-49100000D01*
G75*
G02*
X62450000Y-49175000I0J-75000D01*
G01*
X62450000Y-49325000D01*
G75*
G02*
X62375000Y-49400000I-75000J0D01*
G01*
X60975000Y-49400000D01*
G75*
G02*
X60900000Y-49325000I0J75000D01*
G01*
G37*
G36*
G01*
X60900000Y-48825000D02*
X60900000Y-48675000D01*
G75*
G02*
X60975000Y-48600000I75000J0D01*
G01*
X62375000Y-48600000D01*
G75*
G02*
X62450000Y-48675000I0J-75000D01*
G01*
X62450000Y-48825000D01*
G75*
G02*
X62375000Y-48900000I-75000J0D01*
G01*
X60975000Y-48900000D01*
G75*
G02*
X60900000Y-48825000I0J75000D01*
G01*
G37*
G36*
G01*
X60900000Y-48325000D02*
X60900000Y-48175000D01*
G75*
G02*
X60975000Y-48100000I75000J0D01*
G01*
X62375000Y-48100000D01*
G75*
G02*
X62450000Y-48175000I0J-75000D01*
G01*
X62450000Y-48325000D01*
G75*
G02*
X62375000Y-48400000I-75000J0D01*
G01*
X60975000Y-48400000D01*
G75*
G02*
X60900000Y-48325000I0J75000D01*
G01*
G37*
G36*
G01*
X60900000Y-47825000D02*
X60900000Y-47675000D01*
G75*
G02*
X60975000Y-47600000I75000J0D01*
G01*
X62375000Y-47600000D01*
G75*
G02*
X62450000Y-47675000I0J-75000D01*
G01*
X62450000Y-47825000D01*
G75*
G02*
X62375000Y-47900000I-75000J0D01*
G01*
X60975000Y-47900000D01*
G75*
G02*
X60900000Y-47825000I0J75000D01*
G01*
G37*
G36*
G01*
X60900000Y-47325000D02*
X60900000Y-47175000D01*
G75*
G02*
X60975000Y-47100000I75000J0D01*
G01*
X62375000Y-47100000D01*
G75*
G02*
X62450000Y-47175000I0J-75000D01*
G01*
X62450000Y-47325000D01*
G75*
G02*
X62375000Y-47400000I-75000J0D01*
G01*
X60975000Y-47400000D01*
G75*
G02*
X60900000Y-47325000I0J75000D01*
G01*
G37*
G36*
G01*
X60900000Y-46825000D02*
X60900000Y-46675000D01*
G75*
G02*
X60975000Y-46600000I75000J0D01*
G01*
X62375000Y-46600000D01*
G75*
G02*
X62450000Y-46675000I0J-75000D01*
G01*
X62450000Y-46825000D01*
G75*
G02*
X62375000Y-46900000I-75000J0D01*
G01*
X60975000Y-46900000D01*
G75*
G02*
X60900000Y-46825000I0J75000D01*
G01*
G37*
G36*
G01*
X60900000Y-46325000D02*
X60900000Y-46175000D01*
G75*
G02*
X60975000Y-46100000I75000J0D01*
G01*
X62375000Y-46100000D01*
G75*
G02*
X62450000Y-46175000I0J-75000D01*
G01*
X62450000Y-46325000D01*
G75*
G02*
X62375000Y-46400000I-75000J0D01*
G01*
X60975000Y-46400000D01*
G75*
G02*
X60900000Y-46325000I0J75000D01*
G01*
G37*
G36*
G01*
X60900000Y-45825000D02*
X60900000Y-45675000D01*
G75*
G02*
X60975000Y-45600000I75000J0D01*
G01*
X62375000Y-45600000D01*
G75*
G02*
X62450000Y-45675000I0J-75000D01*
G01*
X62450000Y-45825000D01*
G75*
G02*
X62375000Y-45900000I-75000J0D01*
G01*
X60975000Y-45900000D01*
G75*
G02*
X60900000Y-45825000I0J75000D01*
G01*
G37*
G36*
G01*
X60900000Y-45325000D02*
X60900000Y-45175000D01*
G75*
G02*
X60975000Y-45100000I75000J0D01*
G01*
X62375000Y-45100000D01*
G75*
G02*
X62450000Y-45175000I0J-75000D01*
G01*
X62450000Y-45325000D01*
G75*
G02*
X62375000Y-45400000I-75000J0D01*
G01*
X60975000Y-45400000D01*
G75*
G02*
X60900000Y-45325000I0J75000D01*
G01*
G37*
G36*
G01*
X59600000Y-44025000D02*
X59600000Y-42625000D01*
G75*
G02*
X59675000Y-42550000I75000J0D01*
G01*
X59825000Y-42550000D01*
G75*
G02*
X59900000Y-42625000I0J-75000D01*
G01*
X59900000Y-44025000D01*
G75*
G02*
X59825000Y-44100000I-75000J0D01*
G01*
X59675000Y-44100000D01*
G75*
G02*
X59600000Y-44025000I0J75000D01*
G01*
G37*
G36*
G01*
X59100000Y-44025000D02*
X59100000Y-42625000D01*
G75*
G02*
X59175000Y-42550000I75000J0D01*
G01*
X59325000Y-42550000D01*
G75*
G02*
X59400000Y-42625000I0J-75000D01*
G01*
X59400000Y-44025000D01*
G75*
G02*
X59325000Y-44100000I-75000J0D01*
G01*
X59175000Y-44100000D01*
G75*
G02*
X59100000Y-44025000I0J75000D01*
G01*
G37*
G36*
G01*
X58600000Y-44025000D02*
X58600000Y-42625000D01*
G75*
G02*
X58675000Y-42550000I75000J0D01*
G01*
X58825000Y-42550000D01*
G75*
G02*
X58900000Y-42625000I0J-75000D01*
G01*
X58900000Y-44025000D01*
G75*
G02*
X58825000Y-44100000I-75000J0D01*
G01*
X58675000Y-44100000D01*
G75*
G02*
X58600000Y-44025000I0J75000D01*
G01*
G37*
G36*
G01*
X58100000Y-44025000D02*
X58100000Y-42625000D01*
G75*
G02*
X58175000Y-42550000I75000J0D01*
G01*
X58325000Y-42550000D01*
G75*
G02*
X58400000Y-42625000I0J-75000D01*
G01*
X58400000Y-44025000D01*
G75*
G02*
X58325000Y-44100000I-75000J0D01*
G01*
X58175000Y-44100000D01*
G75*
G02*
X58100000Y-44025000I0J75000D01*
G01*
G37*
G36*
G01*
X57600000Y-44025000D02*
X57600000Y-42625000D01*
G75*
G02*
X57675000Y-42550000I75000J0D01*
G01*
X57825000Y-42550000D01*
G75*
G02*
X57900000Y-42625000I0J-75000D01*
G01*
X57900000Y-44025000D01*
G75*
G02*
X57825000Y-44100000I-75000J0D01*
G01*
X57675000Y-44100000D01*
G75*
G02*
X57600000Y-44025000I0J75000D01*
G01*
G37*
G36*
G01*
X57100000Y-44025000D02*
X57100000Y-42625000D01*
G75*
G02*
X57175000Y-42550000I75000J0D01*
G01*
X57325000Y-42550000D01*
G75*
G02*
X57400000Y-42625000I0J-75000D01*
G01*
X57400000Y-44025000D01*
G75*
G02*
X57325000Y-44100000I-75000J0D01*
G01*
X57175000Y-44100000D01*
G75*
G02*
X57100000Y-44025000I0J75000D01*
G01*
G37*
G36*
G01*
X56600000Y-44025000D02*
X56600000Y-42625000D01*
G75*
G02*
X56675000Y-42550000I75000J0D01*
G01*
X56825000Y-42550000D01*
G75*
G02*
X56900000Y-42625000I0J-75000D01*
G01*
X56900000Y-44025000D01*
G75*
G02*
X56825000Y-44100000I-75000J0D01*
G01*
X56675000Y-44100000D01*
G75*
G02*
X56600000Y-44025000I0J75000D01*
G01*
G37*
G36*
G01*
X56100000Y-44025000D02*
X56100000Y-42625000D01*
G75*
G02*
X56175000Y-42550000I75000J0D01*
G01*
X56325000Y-42550000D01*
G75*
G02*
X56400000Y-42625000I0J-75000D01*
G01*
X56400000Y-44025000D01*
G75*
G02*
X56325000Y-44100000I-75000J0D01*
G01*
X56175000Y-44100000D01*
G75*
G02*
X56100000Y-44025000I0J75000D01*
G01*
G37*
G36*
G01*
X55600000Y-44025000D02*
X55600000Y-42625000D01*
G75*
G02*
X55675000Y-42550000I75000J0D01*
G01*
X55825000Y-42550000D01*
G75*
G02*
X55900000Y-42625000I0J-75000D01*
G01*
X55900000Y-44025000D01*
G75*
G02*
X55825000Y-44100000I-75000J0D01*
G01*
X55675000Y-44100000D01*
G75*
G02*
X55600000Y-44025000I0J75000D01*
G01*
G37*
G36*
G01*
X55100000Y-44025000D02*
X55100000Y-42625000D01*
G75*
G02*
X55175000Y-42550000I75000J0D01*
G01*
X55325000Y-42550000D01*
G75*
G02*
X55400000Y-42625000I0J-75000D01*
G01*
X55400000Y-44025000D01*
G75*
G02*
X55325000Y-44100000I-75000J0D01*
G01*
X55175000Y-44100000D01*
G75*
G02*
X55100000Y-44025000I0J75000D01*
G01*
G37*
G36*
G01*
X54600000Y-44025000D02*
X54600000Y-42625000D01*
G75*
G02*
X54675000Y-42550000I75000J0D01*
G01*
X54825000Y-42550000D01*
G75*
G02*
X54900000Y-42625000I0J-75000D01*
G01*
X54900000Y-44025000D01*
G75*
G02*
X54825000Y-44100000I-75000J0D01*
G01*
X54675000Y-44100000D01*
G75*
G02*
X54600000Y-44025000I0J75000D01*
G01*
G37*
G36*
G01*
X54100000Y-44025000D02*
X54100000Y-42625000D01*
G75*
G02*
X54175000Y-42550000I75000J0D01*
G01*
X54325000Y-42550000D01*
G75*
G02*
X54400000Y-42625000I0J-75000D01*
G01*
X54400000Y-44025000D01*
G75*
G02*
X54325000Y-44100000I-75000J0D01*
G01*
X54175000Y-44100000D01*
G75*
G02*
X54100000Y-44025000I0J75000D01*
G01*
G37*
G36*
G01*
X53600000Y-44025000D02*
X53600000Y-42625000D01*
G75*
G02*
X53675000Y-42550000I75000J0D01*
G01*
X53825000Y-42550000D01*
G75*
G02*
X53900000Y-42625000I0J-75000D01*
G01*
X53900000Y-44025000D01*
G75*
G02*
X53825000Y-44100000I-75000J0D01*
G01*
X53675000Y-44100000D01*
G75*
G02*
X53600000Y-44025000I0J75000D01*
G01*
G37*
G36*
G01*
X53100000Y-44025000D02*
X53100000Y-42625000D01*
G75*
G02*
X53175000Y-42550000I75000J0D01*
G01*
X53325000Y-42550000D01*
G75*
G02*
X53400000Y-42625000I0J-75000D01*
G01*
X53400000Y-44025000D01*
G75*
G02*
X53325000Y-44100000I-75000J0D01*
G01*
X53175000Y-44100000D01*
G75*
G02*
X53100000Y-44025000I0J75000D01*
G01*
G37*
G36*
G01*
X52600000Y-44025000D02*
X52600000Y-42625000D01*
G75*
G02*
X52675000Y-42550000I75000J0D01*
G01*
X52825000Y-42550000D01*
G75*
G02*
X52900000Y-42625000I0J-75000D01*
G01*
X52900000Y-44025000D01*
G75*
G02*
X52825000Y-44100000I-75000J0D01*
G01*
X52675000Y-44100000D01*
G75*
G02*
X52600000Y-44025000I0J75000D01*
G01*
G37*
G36*
G01*
X52100000Y-44025000D02*
X52100000Y-42625000D01*
G75*
G02*
X52175000Y-42550000I75000J0D01*
G01*
X52325000Y-42550000D01*
G75*
G02*
X52400000Y-42625000I0J-75000D01*
G01*
X52400000Y-44025000D01*
G75*
G02*
X52325000Y-44100000I-75000J0D01*
G01*
X52175000Y-44100000D01*
G75*
G02*
X52100000Y-44025000I0J75000D01*
G01*
G37*
%TD*%
D19*
%TO.C,H1*%
X38697056Y-28502944D03*
X37000000Y-27800000D03*
X35302944Y-28502944D03*
X34600000Y-30200000D03*
X35302944Y-31897056D03*
X37000000Y-32600000D03*
X38697056Y-31897056D03*
X39400000Y-30200000D03*
D20*
X37000000Y-30200000D03*
%TD*%
%TO.C,H2*%
X78800000Y-30000000D03*
D19*
X81200000Y-30000000D03*
X80497056Y-31697056D03*
X78800000Y-32400000D03*
X77102944Y-31697056D03*
X76400000Y-30000000D03*
X77102944Y-28302944D03*
X78800000Y-27600000D03*
X80497056Y-28302944D03*
%TD*%
%TO.C,H3*%
X38897056Y-70102944D03*
X37200000Y-69400000D03*
X35502944Y-70102944D03*
X34800000Y-71800000D03*
X35502944Y-73497056D03*
X37200000Y-74200000D03*
X38897056Y-73497056D03*
X39600000Y-71800000D03*
D20*
X37200000Y-71800000D03*
%TD*%
%TO.C,H4*%
X79000000Y-71700000D03*
D19*
X81400000Y-71700000D03*
X80697056Y-73397056D03*
X79000000Y-74100000D03*
X77302944Y-73397056D03*
X76600000Y-71700000D03*
X77302944Y-70002944D03*
X79000000Y-69300000D03*
X80697056Y-70002944D03*
%TD*%
D16*
%TO.C,FID1*%
X35500000Y-36100000D03*
%TD*%
%TO.C,FID2*%
X35500000Y-54000000D03*
%TD*%
%TO.C,FID3*%
X80500000Y-62475000D03*
%TD*%
%TO.C,C19*%
G36*
G01*
X70030000Y-44340000D02*
X70370000Y-44340000D01*
G75*
G02*
X70510000Y-44480000I0J-140000D01*
G01*
X70510000Y-44760000D01*
G75*
G02*
X70370000Y-44900000I-140000J0D01*
G01*
X70030000Y-44900000D01*
G75*
G02*
X69890000Y-44760000I0J140000D01*
G01*
X69890000Y-44480000D01*
G75*
G02*
X70030000Y-44340000I140000J0D01*
G01*
G37*
G36*
G01*
X70030000Y-45300000D02*
X70370000Y-45300000D01*
G75*
G02*
X70510000Y-45440000I0J-140000D01*
G01*
X70510000Y-45720000D01*
G75*
G02*
X70370000Y-45860000I-140000J0D01*
G01*
X70030000Y-45860000D01*
G75*
G02*
X69890000Y-45720000I0J140000D01*
G01*
X69890000Y-45440000D01*
G75*
G02*
X70030000Y-45300000I140000J0D01*
G01*
G37*
%TD*%
%TO.C,C20*%
G36*
G01*
X69020000Y-59100000D02*
X68680000Y-59100000D01*
G75*
G02*
X68540000Y-58960000I0J140000D01*
G01*
X68540000Y-58680000D01*
G75*
G02*
X68680000Y-58540000I140000J0D01*
G01*
X69020000Y-58540000D01*
G75*
G02*
X69160000Y-58680000I0J-140000D01*
G01*
X69160000Y-58960000D01*
G75*
G02*
X69020000Y-59100000I-140000J0D01*
G01*
G37*
G36*
G01*
X69020000Y-60060000D02*
X68680000Y-60060000D01*
G75*
G02*
X68540000Y-59920000I0J140000D01*
G01*
X68540000Y-59640000D01*
G75*
G02*
X68680000Y-59500000I140000J0D01*
G01*
X69020000Y-59500000D01*
G75*
G02*
X69160000Y-59640000I0J-140000D01*
G01*
X69160000Y-59920000D01*
G75*
G02*
X69020000Y-60060000I-140000J0D01*
G01*
G37*
%TD*%
%TO.C,C21*%
G36*
G01*
X68730000Y-54140000D02*
X69070000Y-54140000D01*
G75*
G02*
X69210000Y-54280000I0J-140000D01*
G01*
X69210000Y-54560000D01*
G75*
G02*
X69070000Y-54700000I-140000J0D01*
G01*
X68730000Y-54700000D01*
G75*
G02*
X68590000Y-54560000I0J140000D01*
G01*
X68590000Y-54280000D01*
G75*
G02*
X68730000Y-54140000I140000J0D01*
G01*
G37*
G36*
G01*
X68730000Y-55100000D02*
X69070000Y-55100000D01*
G75*
G02*
X69210000Y-55240000I0J-140000D01*
G01*
X69210000Y-55520000D01*
G75*
G02*
X69070000Y-55660000I-140000J0D01*
G01*
X68730000Y-55660000D01*
G75*
G02*
X68590000Y-55520000I0J140000D01*
G01*
X68590000Y-55240000D01*
G75*
G02*
X68730000Y-55100000I140000J0D01*
G01*
G37*
%TD*%
%TO.C,C22*%
G36*
G01*
X70370000Y-49800000D02*
X70030000Y-49800000D01*
G75*
G02*
X69890000Y-49660000I0J140000D01*
G01*
X69890000Y-49380000D01*
G75*
G02*
X70030000Y-49240000I140000J0D01*
G01*
X70370000Y-49240000D01*
G75*
G02*
X70510000Y-49380000I0J-140000D01*
G01*
X70510000Y-49660000D01*
G75*
G02*
X70370000Y-49800000I-140000J0D01*
G01*
G37*
G36*
G01*
X70370000Y-50760000D02*
X70030000Y-50760000D01*
G75*
G02*
X69890000Y-50620000I0J140000D01*
G01*
X69890000Y-50340000D01*
G75*
G02*
X70030000Y-50200000I140000J0D01*
G01*
X70370000Y-50200000D01*
G75*
G02*
X70510000Y-50340000I0J-140000D01*
G01*
X70510000Y-50620000D01*
G75*
G02*
X70370000Y-50760000I-140000J0D01*
G01*
G37*
%TD*%
D21*
%TO.C,HSE1*%
X43500000Y-42550000D03*
X43500000Y-52050000D03*
%TD*%
%TO.C,FB1*%
G36*
G01*
X44275000Y-64056250D02*
X44275000Y-63543750D01*
G75*
G02*
X44493750Y-63325000I218750J0D01*
G01*
X44931250Y-63325000D01*
G75*
G02*
X45150000Y-63543750I0J-218750D01*
G01*
X45150000Y-64056250D01*
G75*
G02*
X44931250Y-64275000I-218750J0D01*
G01*
X44493750Y-64275000D01*
G75*
G02*
X44275000Y-64056250I0J218750D01*
G01*
G37*
G36*
G01*
X45850000Y-64056250D02*
X45850000Y-63543750D01*
G75*
G02*
X46068750Y-63325000I218750J0D01*
G01*
X46506250Y-63325000D01*
G75*
G02*
X46725000Y-63543750I0J-218750D01*
G01*
X46725000Y-64056250D01*
G75*
G02*
X46506250Y-64275000I-218750J0D01*
G01*
X46068750Y-64275000D01*
G75*
G02*
X45850000Y-64056250I0J218750D01*
G01*
G37*
%TD*%
%TO.C,FB2*%
G36*
G01*
X49543750Y-57350000D02*
X50056250Y-57350000D01*
G75*
G02*
X50275000Y-57568750I0J-218750D01*
G01*
X50275000Y-58006250D01*
G75*
G02*
X50056250Y-58225000I-218750J0D01*
G01*
X49543750Y-58225000D01*
G75*
G02*
X49325000Y-58006250I0J218750D01*
G01*
X49325000Y-57568750D01*
G75*
G02*
X49543750Y-57350000I218750J0D01*
G01*
G37*
G36*
G01*
X49543750Y-55775000D02*
X50056250Y-55775000D01*
G75*
G02*
X50275000Y-55993750I0J-218750D01*
G01*
X50275000Y-56431250D01*
G75*
G02*
X50056250Y-56650000I-218750J0D01*
G01*
X49543750Y-56650000D01*
G75*
G02*
X49325000Y-56431250I0J218750D01*
G01*
X49325000Y-55993750D01*
G75*
G02*
X49543750Y-55775000I218750J0D01*
G01*
G37*
%TD*%
M02*
